M48
; DRILL file {KiCad (5.1.2)-2} date 08-Dec-20 09:14:07
; FORMAT={-:-/ absolute / inch / decimal}
; #@! TF.CreationDate,2020-12-08T09:14:07+10:00
; #@! TF.GenerationSoftware,Kicad,Pcbnew,(5.1.2)-2
; #@! TF.FileFunction,Plated,1,2,PTH
FMAT,2
INCH
T1C0.0157
T2C0.0276
T3C0.0315
T4C0.0394
T5C0.0433
T6C0.0591
T7C0.1260
%
G90
G05
T1
X2.8307Y-3.8071
X3.0079Y-4.4094
X3.2047Y-6.4252
X3.3071Y-3.7402
X3.3071Y-4.2362
X3.8465Y-4.1457
X4.2087Y-5.2874
X5.2205Y-4.2244
X5.4252Y-4.0906
X5.4488Y-3.626
X5.4724Y-4.0906
T2
X5.2571Y-3.1811
X5.5571Y-3.1811
X5.2559Y-3.6732
X5.5559Y-3.6732
X4.5433Y-3.0787
X4.5433Y-3.3787
X3.2815Y-4.5551
X3.5815Y-4.5551
X3.2815Y-4.6575
X3.5815Y-4.6575
X5.2559Y-3.2795
X5.5559Y-3.2795
X5.2559Y-3.7717
X5.5559Y-3.7717
X3.9677Y-3.937
X4.2677Y-3.937
X5.2559Y-3.8701
X5.5559Y-3.8701
X5.2559Y-3.378
X5.5559Y-3.378
X5.2559Y-3.4764
X5.5559Y-3.4764
X5.2559Y-3.5748
X5.5559Y-3.5748
X4.6457Y-3.0787
X4.6457Y-3.3787
X4.752Y-3.0787
X4.752Y-3.3787
T3
X4.437Y-4.0512
X4.437Y-4.1512
X4.487Y-4.1012
X3.9677Y-4.052
X3.9677Y-4.152
X3.9677Y-4.252
X4.2677Y-4.052
X4.2677Y-4.152
X4.2677Y-4.252
X5.0591Y-2.874
X5.0591Y-2.974
X5.0591Y-3.074
X5.0591Y-3.174
X5.0591Y-3.274
X5.0591Y-3.374
X5.0591Y-3.474
X5.0591Y-3.574
X5.0591Y-3.674
X5.0591Y-3.774
X5.0591Y-3.874
X5.0591Y-3.974
X5.6591Y-2.874
X5.6591Y-2.974
X5.6591Y-3.074
X5.6591Y-3.174
X5.6591Y-3.274
X5.6591Y-3.374
X5.6591Y-3.474
X5.6591Y-3.574
X5.6591Y-3.674
X5.6591Y-3.774
X5.6591Y-3.874
X5.6591Y-3.974
X2.8575Y-4.0535
X2.8575Y-4.1535
X2.8575Y-4.2535
X2.8575Y-4.3535
X2.8575Y-4.4535
X2.8575Y-4.5535
X2.8575Y-4.6535
X3.1575Y-4.0535
X3.1575Y-4.1535
X3.1575Y-4.2535
X3.1575Y-4.3535
X3.1575Y-4.4535
X3.1575Y-4.5535
X3.1575Y-4.6535
T4
X3.5433Y-3.7402
X3.6433Y-3.7402
X3.7008Y-4.2323
X4.2913Y-3.7598
X4.3913Y-3.7598
X4.2913Y-2.8543
X2.3228Y-5.3937
X2.4228Y-5.3937
X2.5228Y-5.3937
X2.6228Y-5.3937
X2.7228Y-5.3937
X2.8228Y-5.3937
X2.9228Y-5.3937
X3.0228Y-5.3937
X3.7008Y-5.374
X4.2126Y-4.8772
X4.2126Y-4.9772
X4.2126Y-5.0772
X4.2126Y-5.1772
X5.2606Y-3.0236
X5.4606Y-3.0236
X2.9528Y-3.7402
X3.0528Y-3.7402
X3.4252Y-4.2323
X5.6496Y-5.9449
X5.6496Y-6.0449
X5.6496Y-6.1449
X5.6496Y-6.2449
X5.6496Y-6.3449
X3.4252Y-5.374
X5.5906Y-4.7756
X5.5906Y-4.8756
X5.5906Y-4.9756
X5.5906Y-5.0756
X5.5906Y-5.1756
X5.5906Y-5.2756
X4.5299Y-2.8543
X4.6299Y-2.8543
X4.8819Y-2.8543
X4.7819Y-3.7598
X4.8819Y-3.7598
X2.5591Y-4.252
X2.5591Y-4.352
X2.5591Y-4.452
X2.5591Y-4.552
X2.5591Y-4.652
X2.5591Y-4.752
X2.5591Y-4.852
X2.5591Y-4.952
X2.5591Y-5.052
X2.5591Y-5.152
X3.563Y-4.9764
X3.563Y-5.3764
T5
X5.315Y-4.1535
X5.315Y-4.3307
X5.5709Y-4.1535
X5.5709Y-4.3307
T7
X5.8071Y-5.4134
X2.0669Y-3.6811
X4.1142Y-2.8543
X2.0669Y-5.4134
X5.8071Y-2.8543
T6
G00X2.5075Y-6.2811
M15
G01X2.5394Y-6.3386
M16
G05
G00X2.7559Y-6.3583
M15
G01X2.7575Y-6.3811
M16
G05
G00X4.9287Y-6.3992
M15
G01X4.9606Y-6.4567
M16
G05
G00X5.1772Y-6.4764
M15
G01X5.1787Y-6.4992
M16
G05
G00X4.1216Y-6.2417
M15
G01X4.1536Y-6.2992
M16
G05
G00X4.3701Y-6.3189
M15
G01X4.3716Y-6.3417
M16
G05
G00X3.3145Y-6.1039
M15
G01X3.3465Y-6.1614
M16
G05
G00X3.563Y-6.1811
M15
G01X3.5646Y-6.2039
M16
G05
T0
M30
