G04 #@! TF.GenerationSoftware,KiCad,Pcbnew,(5.1.2)-2*
G04 #@! TF.CreationDate,2020-12-08T09:13:38+10:00*
G04 #@! TF.ProjectId,MK2090_PERI_order,4d4b3230-3930-45f5-9045-52495f6f7264,rev?*
G04 #@! TF.SameCoordinates,Original*
G04 #@! TF.FileFunction,Legend,Top*
G04 #@! TF.FilePolarity,Positive*
%FSLAX46Y46*%
G04 Gerber Fmt 4.6, Leading zero omitted, Abs format (unit mm)*
G04 Created by KiCad (PCBNEW (5.1.2)-2) date 2020-12-08 09:13:38*
%MOMM*%
%LPD*%
G04 APERTURE LIST*
%ADD10C,0.150000*%
%ADD11C,0.600000*%
%ADD12C,0.120000*%
G04 APERTURE END LIST*
D10*
X136961904Y-108052380D02*
X136628571Y-107576190D01*
X136390476Y-108052380D02*
X136390476Y-107052380D01*
X136771428Y-107052380D01*
X136866666Y-107100000D01*
X136914285Y-107147619D01*
X136961904Y-107242857D01*
X136961904Y-107385714D01*
X136914285Y-107480952D01*
X136866666Y-107528571D01*
X136771428Y-107576190D01*
X136390476Y-107576190D01*
X137771428Y-108004761D02*
X137676190Y-108052380D01*
X137485714Y-108052380D01*
X137390476Y-108004761D01*
X137342857Y-107909523D01*
X137342857Y-107528571D01*
X137390476Y-107433333D01*
X137485714Y-107385714D01*
X137676190Y-107385714D01*
X137771428Y-107433333D01*
X137819047Y-107528571D01*
X137819047Y-107623809D01*
X137342857Y-107719047D01*
X138200000Y-108004761D02*
X138295238Y-108052380D01*
X138485714Y-108052380D01*
X138580952Y-108004761D01*
X138628571Y-107909523D01*
X138628571Y-107861904D01*
X138580952Y-107766666D01*
X138485714Y-107719047D01*
X138342857Y-107719047D01*
X138247619Y-107671428D01*
X138200000Y-107576190D01*
X138200000Y-107528571D01*
X138247619Y-107433333D01*
X138342857Y-107385714D01*
X138485714Y-107385714D01*
X138580952Y-107433333D01*
X139438095Y-108004761D02*
X139342857Y-108052380D01*
X139152380Y-108052380D01*
X139057142Y-108004761D01*
X139009523Y-107909523D01*
X139009523Y-107528571D01*
X139057142Y-107433333D01*
X139152380Y-107385714D01*
X139342857Y-107385714D01*
X139438095Y-107433333D01*
X139485714Y-107528571D01*
X139485714Y-107623809D01*
X139009523Y-107719047D01*
X139771428Y-107385714D02*
X140152380Y-107385714D01*
X139914285Y-107052380D02*
X139914285Y-107909523D01*
X139961904Y-108004761D01*
X140057142Y-108052380D01*
X140152380Y-108052380D01*
X143461904Y-133352380D02*
X144080952Y-133352380D01*
X143747619Y-133733333D01*
X143890476Y-133733333D01*
X143985714Y-133780952D01*
X144033333Y-133828571D01*
X144080952Y-133923809D01*
X144080952Y-134161904D01*
X144033333Y-134257142D01*
X143985714Y-134304761D01*
X143890476Y-134352380D01*
X143604761Y-134352380D01*
X143509523Y-134304761D01*
X143461904Y-134257142D01*
X144461904Y-133447619D02*
X144509523Y-133400000D01*
X144604761Y-133352380D01*
X144842857Y-133352380D01*
X144938095Y-133400000D01*
X144985714Y-133447619D01*
X145033333Y-133542857D01*
X145033333Y-133638095D01*
X144985714Y-133780952D01*
X144414285Y-134352380D01*
X145033333Y-134352380D01*
X145461904Y-134352380D02*
X145461904Y-133352380D01*
X146033333Y-134352380D02*
X145604761Y-133780952D01*
X146033333Y-133352380D02*
X145461904Y-133923809D01*
X146461904Y-134352380D02*
X146461904Y-133352380D01*
X146461904Y-133828571D02*
X147033333Y-133828571D01*
X147033333Y-134352380D02*
X147033333Y-133352380D01*
X147414285Y-133685714D02*
X147938095Y-133685714D01*
X147414285Y-134352380D01*
X147938095Y-134352380D01*
X143619047Y-131804761D02*
X143761904Y-131852380D01*
X144000000Y-131852380D01*
X144095238Y-131804761D01*
X144142857Y-131757142D01*
X144190476Y-131661904D01*
X144190476Y-131566666D01*
X144142857Y-131471428D01*
X144095238Y-131423809D01*
X144000000Y-131376190D01*
X143809523Y-131328571D01*
X143714285Y-131280952D01*
X143666666Y-131233333D01*
X143619047Y-131138095D01*
X143619047Y-131042857D01*
X143666666Y-130947619D01*
X143714285Y-130900000D01*
X143809523Y-130852380D01*
X144047619Y-130852380D01*
X144190476Y-130900000D01*
X145285714Y-131947619D02*
X145190476Y-131900000D01*
X145095238Y-131804761D01*
X144952380Y-131661904D01*
X144857142Y-131614285D01*
X144761904Y-131614285D01*
X144809523Y-131852380D02*
X144714285Y-131804761D01*
X144619047Y-131709523D01*
X144571428Y-131519047D01*
X144571428Y-131185714D01*
X144619047Y-130995238D01*
X144714285Y-130900000D01*
X144809523Y-130852380D01*
X145000000Y-130852380D01*
X145095238Y-130900000D01*
X145190476Y-130995238D01*
X145238095Y-131185714D01*
X145238095Y-131519047D01*
X145190476Y-131709523D01*
X145095238Y-131804761D01*
X145000000Y-131852380D01*
X144809523Y-131852380D01*
X145571428Y-130852380D02*
X145809523Y-131852380D01*
X146000000Y-131138095D01*
X146190476Y-131852380D01*
X146428571Y-130852380D01*
X103009523Y-132004761D02*
X103152380Y-132052380D01*
X103390476Y-132052380D01*
X103485714Y-132004761D01*
X103533333Y-131957142D01*
X103580952Y-131861904D01*
X103580952Y-131766666D01*
X103533333Y-131671428D01*
X103485714Y-131623809D01*
X103390476Y-131576190D01*
X103200000Y-131528571D01*
X103104761Y-131480952D01*
X103057142Y-131433333D01*
X103009523Y-131338095D01*
X103009523Y-131242857D01*
X103057142Y-131147619D01*
X103104761Y-131100000D01*
X103200000Y-131052380D01*
X103438095Y-131052380D01*
X103580952Y-131100000D01*
X104580952Y-131957142D02*
X104533333Y-132004761D01*
X104390476Y-132052380D01*
X104295238Y-132052380D01*
X104152380Y-132004761D01*
X104057142Y-131909523D01*
X104009523Y-131814285D01*
X103961904Y-131623809D01*
X103961904Y-131480952D01*
X104009523Y-131290476D01*
X104057142Y-131195238D01*
X104152380Y-131100000D01*
X104295238Y-131052380D01*
X104390476Y-131052380D01*
X104533333Y-131100000D01*
X104580952Y-131147619D01*
X105485714Y-132052380D02*
X105009523Y-132052380D01*
X105009523Y-131052380D01*
X102785714Y-129204761D02*
X102928571Y-129252380D01*
X103166666Y-129252380D01*
X103261904Y-129204761D01*
X103309523Y-129157142D01*
X103357142Y-129061904D01*
X103357142Y-128966666D01*
X103309523Y-128871428D01*
X103261904Y-128823809D01*
X103166666Y-128776190D01*
X102976190Y-128728571D01*
X102880952Y-128680952D01*
X102833333Y-128633333D01*
X102785714Y-128538095D01*
X102785714Y-128442857D01*
X102833333Y-128347619D01*
X102880952Y-128300000D01*
X102976190Y-128252380D01*
X103214285Y-128252380D01*
X103357142Y-128300000D01*
X103785714Y-129252380D02*
X103785714Y-128252380D01*
X104023809Y-128252380D01*
X104166666Y-128300000D01*
X104261904Y-128395238D01*
X104309523Y-128490476D01*
X104357142Y-128680952D01*
X104357142Y-128823809D01*
X104309523Y-129014285D01*
X104261904Y-129109523D01*
X104166666Y-129204761D01*
X104023809Y-129252380D01*
X103785714Y-129252380D01*
X104738095Y-128966666D02*
X105214285Y-128966666D01*
X104642857Y-129252380D02*
X104976190Y-128252380D01*
X105309523Y-129252380D01*
X102666666Y-125752380D02*
X103000000Y-126752380D01*
X103333333Y-125752380D01*
X104238095Y-126657142D02*
X104190476Y-126704761D01*
X104047619Y-126752380D01*
X103952380Y-126752380D01*
X103809523Y-126704761D01*
X103714285Y-126609523D01*
X103666666Y-126514285D01*
X103619047Y-126323809D01*
X103619047Y-126180952D01*
X103666666Y-125990476D01*
X103714285Y-125895238D01*
X103809523Y-125800000D01*
X103952380Y-125752380D01*
X104047619Y-125752380D01*
X104190476Y-125800000D01*
X104238095Y-125847619D01*
X105238095Y-126657142D02*
X105190476Y-126704761D01*
X105047619Y-126752380D01*
X104952380Y-126752380D01*
X104809523Y-126704761D01*
X104714285Y-126609523D01*
X104666666Y-126514285D01*
X104619047Y-126323809D01*
X104619047Y-126180952D01*
X104666666Y-125990476D01*
X104714285Y-125895238D01*
X104809523Y-125800000D01*
X104952380Y-125752380D01*
X105047619Y-125752380D01*
X105190476Y-125800000D01*
X105238095Y-125847619D01*
X103338095Y-123400000D02*
X103242857Y-123352380D01*
X103100000Y-123352380D01*
X102957142Y-123400000D01*
X102861904Y-123495238D01*
X102814285Y-123590476D01*
X102766666Y-123780952D01*
X102766666Y-123923809D01*
X102814285Y-124114285D01*
X102861904Y-124209523D01*
X102957142Y-124304761D01*
X103100000Y-124352380D01*
X103195238Y-124352380D01*
X103338095Y-124304761D01*
X103385714Y-124257142D01*
X103385714Y-123923809D01*
X103195238Y-123923809D01*
X103814285Y-124352380D02*
X103814285Y-123352380D01*
X104385714Y-124352380D01*
X104385714Y-123352380D01*
X104861904Y-124352380D02*
X104861904Y-123352380D01*
X105100000Y-123352380D01*
X105242857Y-123400000D01*
X105338095Y-123495238D01*
X105385714Y-123590476D01*
X105433333Y-123780952D01*
X105433333Y-123923809D01*
X105385714Y-124114285D01*
X105338095Y-124209523D01*
X105242857Y-124304761D01*
X105100000Y-124352380D01*
X104861904Y-124352380D01*
X78938095Y-136600000D02*
X78842857Y-136552380D01*
X78700000Y-136552380D01*
X78557142Y-136600000D01*
X78461904Y-136695238D01*
X78414285Y-136790476D01*
X78366666Y-136980952D01*
X78366666Y-137123809D01*
X78414285Y-137314285D01*
X78461904Y-137409523D01*
X78557142Y-137504761D01*
X78700000Y-137552380D01*
X78795238Y-137552380D01*
X78938095Y-137504761D01*
X78985714Y-137457142D01*
X78985714Y-137123809D01*
X78795238Y-137123809D01*
X79414285Y-137552380D02*
X79414285Y-136552380D01*
X79985714Y-137552380D01*
X79985714Y-136552380D01*
X80461904Y-137552380D02*
X80461904Y-136552380D01*
X80700000Y-136552380D01*
X80842857Y-136600000D01*
X80938095Y-136695238D01*
X80985714Y-136790476D01*
X81033333Y-136980952D01*
X81033333Y-137123809D01*
X80985714Y-137314285D01*
X80938095Y-137409523D01*
X80842857Y-137504761D01*
X80700000Y-137552380D01*
X80461904Y-137552380D01*
X57366666Y-133952380D02*
X57700000Y-134952380D01*
X58033333Y-133952380D01*
X58938095Y-134857142D02*
X58890476Y-134904761D01*
X58747619Y-134952380D01*
X58652380Y-134952380D01*
X58509523Y-134904761D01*
X58414285Y-134809523D01*
X58366666Y-134714285D01*
X58319047Y-134523809D01*
X58319047Y-134380952D01*
X58366666Y-134190476D01*
X58414285Y-134095238D01*
X58509523Y-134000000D01*
X58652380Y-133952380D01*
X58747619Y-133952380D01*
X58890476Y-134000000D01*
X58938095Y-134047619D01*
X59938095Y-134857142D02*
X59890476Y-134904761D01*
X59747619Y-134952380D01*
X59652380Y-134952380D01*
X59509523Y-134904761D01*
X59414285Y-134809523D01*
X59366666Y-134714285D01*
X59319047Y-134523809D01*
X59319047Y-134380952D01*
X59366666Y-134190476D01*
X59414285Y-134095238D01*
X59509523Y-134000000D01*
X59652380Y-133952380D01*
X59747619Y-133952380D01*
X59890476Y-134000000D01*
X59938095Y-134047619D01*
X60680952Y-113066666D02*
X61157142Y-113066666D01*
X60585714Y-113352380D02*
X60919047Y-112352380D01*
X61252380Y-113352380D01*
X62157142Y-113257142D02*
X62109523Y-113304761D01*
X61966666Y-113352380D01*
X61871428Y-113352380D01*
X61728571Y-113304761D01*
X61633333Y-113209523D01*
X61585714Y-113114285D01*
X61538095Y-112923809D01*
X61538095Y-112780952D01*
X61585714Y-112590476D01*
X61633333Y-112495238D01*
X61728571Y-112400000D01*
X61871428Y-112352380D01*
X61966666Y-112352380D01*
X62109523Y-112400000D01*
X62157142Y-112447619D01*
X62442857Y-112352380D02*
X63014285Y-112352380D01*
X62728571Y-113352380D02*
X62728571Y-112352380D01*
X58042857Y-116052380D02*
X58042857Y-115052380D01*
X58423809Y-115052380D01*
X58519047Y-115100000D01*
X58566666Y-115147619D01*
X58614285Y-115242857D01*
X58614285Y-115385714D01*
X58566666Y-115480952D01*
X58519047Y-115528571D01*
X58423809Y-115576190D01*
X58042857Y-115576190D01*
X58947619Y-115052380D02*
X59185714Y-116052380D01*
X59376190Y-115338095D01*
X59566666Y-116052380D01*
X59804761Y-115052380D01*
X60185714Y-116052380D02*
X60185714Y-115052380D01*
X60519047Y-115766666D01*
X60852380Y-115052380D01*
X60852380Y-116052380D01*
X61852380Y-116052380D02*
X61280952Y-116052380D01*
X61566666Y-116052380D02*
X61566666Y-115052380D01*
X61471428Y-115195238D01*
X61376190Y-115290476D01*
X61280952Y-115338095D01*
X62471428Y-115052380D02*
X62566666Y-115052380D01*
X62661904Y-115100000D01*
X62709523Y-115147619D01*
X62757142Y-115242857D01*
X62804761Y-115433333D01*
X62804761Y-115671428D01*
X62757142Y-115861904D01*
X62709523Y-115957142D01*
X62661904Y-116004761D01*
X62566666Y-116052380D01*
X62471428Y-116052380D01*
X62376190Y-116004761D01*
X62328571Y-115957142D01*
X62280952Y-115861904D01*
X62233333Y-115671428D01*
X62233333Y-115433333D01*
X62280952Y-115242857D01*
X62328571Y-115147619D01*
X62376190Y-115100000D01*
X62471428Y-115052380D01*
X58919047Y-118552380D02*
X58919047Y-117552380D01*
X59300000Y-117552380D01*
X59395238Y-117600000D01*
X59442857Y-117647619D01*
X59490476Y-117742857D01*
X59490476Y-117885714D01*
X59442857Y-117980952D01*
X59395238Y-118028571D01*
X59300000Y-118076190D01*
X58919047Y-118076190D01*
X59823809Y-117552380D02*
X60061904Y-118552380D01*
X60252380Y-117838095D01*
X60442857Y-118552380D01*
X60680952Y-117552380D01*
X61061904Y-118552380D02*
X61061904Y-117552380D01*
X61395238Y-118266666D01*
X61728571Y-117552380D01*
X61728571Y-118552380D01*
X62633333Y-117552380D02*
X62442857Y-117552380D01*
X62347619Y-117600000D01*
X62300000Y-117647619D01*
X62204761Y-117790476D01*
X62157142Y-117980952D01*
X62157142Y-118361904D01*
X62204761Y-118457142D01*
X62252380Y-118504761D01*
X62347619Y-118552380D01*
X62538095Y-118552380D01*
X62633333Y-118504761D01*
X62680952Y-118457142D01*
X62728571Y-118361904D01*
X62728571Y-118123809D01*
X62680952Y-118028571D01*
X62633333Y-117980952D01*
X62538095Y-117933333D01*
X62347619Y-117933333D01*
X62252380Y-117980952D01*
X62204761Y-118028571D01*
X62157142Y-118123809D01*
X59500000Y-121052380D02*
X59500000Y-120052380D01*
X59500000Y-120528571D02*
X60071428Y-120528571D01*
X60071428Y-121052380D02*
X60071428Y-120052380D01*
X60500000Y-120766666D02*
X60976190Y-120766666D01*
X60404761Y-121052380D02*
X60738095Y-120052380D01*
X61071428Y-121052380D01*
X61880952Y-121052380D02*
X61404761Y-121052380D01*
X61404761Y-120052380D01*
X62071428Y-120052380D02*
X62642857Y-120052380D01*
X62357142Y-121052380D02*
X62357142Y-120052380D01*
X61138095Y-122752380D02*
X61709523Y-122752380D01*
X61423809Y-123752380D02*
X61423809Y-122752380D01*
X61947619Y-122752380D02*
X62614285Y-123752380D01*
X62614285Y-122752380D02*
X61947619Y-123752380D01*
X61833333Y-126252380D02*
X61500000Y-125776190D01*
X61261904Y-126252380D02*
X61261904Y-125252380D01*
X61642857Y-125252380D01*
X61738095Y-125300000D01*
X61785714Y-125347619D01*
X61833333Y-125442857D01*
X61833333Y-125585714D01*
X61785714Y-125680952D01*
X61738095Y-125728571D01*
X61642857Y-125776190D01*
X61261904Y-125776190D01*
X62166666Y-125252380D02*
X62833333Y-126252380D01*
X62833333Y-125252380D02*
X62166666Y-126252380D01*
X60952380Y-128752380D02*
X60619047Y-128276190D01*
X60380952Y-128752380D02*
X60380952Y-127752380D01*
X60761904Y-127752380D01*
X60857142Y-127800000D01*
X60904761Y-127847619D01*
X60952380Y-127942857D01*
X60952380Y-128085714D01*
X60904761Y-128180952D01*
X60857142Y-128228571D01*
X60761904Y-128276190D01*
X60380952Y-128276190D01*
X61333333Y-128704761D02*
X61476190Y-128752380D01*
X61714285Y-128752380D01*
X61809523Y-128704761D01*
X61857142Y-128657142D01*
X61904761Y-128561904D01*
X61904761Y-128466666D01*
X61857142Y-128371428D01*
X61809523Y-128323809D01*
X61714285Y-128276190D01*
X61523809Y-128228571D01*
X61428571Y-128180952D01*
X61380952Y-128133333D01*
X61333333Y-128038095D01*
X61333333Y-127942857D01*
X61380952Y-127847619D01*
X61428571Y-127800000D01*
X61523809Y-127752380D01*
X61761904Y-127752380D01*
X61904761Y-127800000D01*
X62190476Y-127752380D02*
X62761904Y-127752380D01*
X62476190Y-128752380D02*
X62476190Y-127752380D01*
X61057142Y-110952380D02*
X60723809Y-110476190D01*
X60485714Y-110952380D02*
X60485714Y-109952380D01*
X60866666Y-109952380D01*
X60961904Y-110000000D01*
X61009523Y-110047619D01*
X61057142Y-110142857D01*
X61057142Y-110285714D01*
X61009523Y-110380952D01*
X60961904Y-110428571D01*
X60866666Y-110476190D01*
X60485714Y-110476190D01*
X61485714Y-110428571D02*
X61819047Y-110428571D01*
X61961904Y-110952380D02*
X61485714Y-110952380D01*
X61485714Y-109952380D01*
X61961904Y-109952380D01*
X62914285Y-110000000D02*
X62819047Y-109952380D01*
X62676190Y-109952380D01*
X62533333Y-110000000D01*
X62438095Y-110095238D01*
X62390476Y-110190476D01*
X62342857Y-110380952D01*
X62342857Y-110523809D01*
X62390476Y-110714285D01*
X62438095Y-110809523D01*
X62533333Y-110904761D01*
X62676190Y-110952380D01*
X62771428Y-110952380D01*
X62914285Y-110904761D01*
X62961904Y-110857142D01*
X62961904Y-110523809D01*
X62771428Y-110523809D01*
X60938095Y-130300000D02*
X60842857Y-130252380D01*
X60700000Y-130252380D01*
X60557142Y-130300000D01*
X60461904Y-130395238D01*
X60414285Y-130490476D01*
X60366666Y-130680952D01*
X60366666Y-130823809D01*
X60414285Y-131014285D01*
X60461904Y-131109523D01*
X60557142Y-131204761D01*
X60700000Y-131252380D01*
X60795238Y-131252380D01*
X60938095Y-131204761D01*
X60985714Y-131157142D01*
X60985714Y-130823809D01*
X60795238Y-130823809D01*
X61414285Y-131252380D02*
X61414285Y-130252380D01*
X61985714Y-131252380D01*
X61985714Y-130252380D01*
X62461904Y-131252380D02*
X62461904Y-130252380D01*
X62700000Y-130252380D01*
X62842857Y-130300000D01*
X62938095Y-130395238D01*
X62985714Y-130490476D01*
X63033333Y-130680952D01*
X63033333Y-130823809D01*
X62985714Y-131014285D01*
X62938095Y-131109523D01*
X62842857Y-131204761D01*
X62700000Y-131252380D01*
X62461904Y-131252380D01*
X61009523Y-108352380D02*
X60676190Y-107876190D01*
X60438095Y-108352380D02*
X60438095Y-107352380D01*
X60819047Y-107352380D01*
X60914285Y-107400000D01*
X60961904Y-107447619D01*
X61009523Y-107542857D01*
X61009523Y-107685714D01*
X60961904Y-107780952D01*
X60914285Y-107828571D01*
X60819047Y-107876190D01*
X60438095Y-107876190D01*
X61390476Y-108066666D02*
X61866666Y-108066666D01*
X61295238Y-108352380D02*
X61628571Y-107352380D01*
X61961904Y-108352380D01*
X62200000Y-107352380D02*
X62438095Y-108352380D01*
X62628571Y-107638095D01*
X62819047Y-108352380D01*
X63057142Y-107352380D01*
D11*
X55357142Y-129528571D02*
X52357142Y-129528571D01*
X54500000Y-128528571D01*
X52357142Y-127528571D01*
X55357142Y-127528571D01*
X55357142Y-126100000D02*
X52357142Y-126100000D01*
X55357142Y-124385714D02*
X53642857Y-125671428D01*
X52357142Y-124385714D02*
X54071428Y-126100000D01*
X52642857Y-123242857D02*
X52500000Y-123100000D01*
X52357142Y-122814285D01*
X52357142Y-122100000D01*
X52500000Y-121814285D01*
X52642857Y-121671428D01*
X52928571Y-121528571D01*
X53214285Y-121528571D01*
X53642857Y-121671428D01*
X55357142Y-123385714D01*
X55357142Y-121528571D01*
X52357142Y-119671428D02*
X52357142Y-119385714D01*
X52500000Y-119100000D01*
X52642857Y-118957142D01*
X52928571Y-118814285D01*
X53500000Y-118671428D01*
X54214285Y-118671428D01*
X54785714Y-118814285D01*
X55071428Y-118957142D01*
X55214285Y-119100000D01*
X55357142Y-119385714D01*
X55357142Y-119671428D01*
X55214285Y-119957142D01*
X55071428Y-120100000D01*
X54785714Y-120242857D01*
X54214285Y-120385714D01*
X53500000Y-120385714D01*
X52928571Y-120242857D01*
X52642857Y-120100000D01*
X52500000Y-119957142D01*
X52357142Y-119671428D01*
X55357142Y-117242857D02*
X55357142Y-116671428D01*
X55214285Y-116385714D01*
X55071428Y-116242857D01*
X54642857Y-115957142D01*
X54071428Y-115814285D01*
X52928571Y-115814285D01*
X52642857Y-115957142D01*
X52500000Y-116100000D01*
X52357142Y-116385714D01*
X52357142Y-116957142D01*
X52500000Y-117242857D01*
X52642857Y-117385714D01*
X52928571Y-117528571D01*
X53642857Y-117528571D01*
X53928571Y-117385714D01*
X54071428Y-117242857D01*
X54214285Y-116957142D01*
X54214285Y-116385714D01*
X54071428Y-116100000D01*
X53928571Y-115957142D01*
X53642857Y-115814285D01*
X52357142Y-113957142D02*
X52357142Y-113671428D01*
X52500000Y-113385714D01*
X52642857Y-113242857D01*
X52928571Y-113100000D01*
X53500000Y-112957142D01*
X54214285Y-112957142D01*
X54785714Y-113100000D01*
X55071428Y-113242857D01*
X55214285Y-113385714D01*
X55357142Y-113671428D01*
X55357142Y-113957142D01*
X55214285Y-114242857D01*
X55071428Y-114385714D01*
X54785714Y-114528571D01*
X54214285Y-114671428D01*
X53500000Y-114671428D01*
X52928571Y-114528571D01*
X52642857Y-114385714D01*
X52500000Y-114242857D01*
X52357142Y-113957142D01*
X55357142Y-109385714D02*
X52357142Y-109385714D01*
X52357142Y-108242857D01*
X52500000Y-107957142D01*
X52642857Y-107814285D01*
X52928571Y-107671428D01*
X53357142Y-107671428D01*
X53642857Y-107814285D01*
X53785714Y-107957142D01*
X53928571Y-108242857D01*
X53928571Y-109385714D01*
X53785714Y-106385714D02*
X53785714Y-105385714D01*
X55357142Y-104957142D02*
X55357142Y-106385714D01*
X52357142Y-106385714D01*
X52357142Y-104957142D01*
X55357142Y-101957142D02*
X53928571Y-102957142D01*
X55357142Y-103671428D02*
X52357142Y-103671428D01*
X52357142Y-102528571D01*
X52500000Y-102242857D01*
X52642857Y-102100000D01*
X52928571Y-101957142D01*
X53357142Y-101957142D01*
X53642857Y-102100000D01*
X53785714Y-102242857D01*
X53928571Y-102528571D01*
X53928571Y-103671428D01*
X55357142Y-100671428D02*
X52357142Y-100671428D01*
D12*
X140240000Y-90800000D02*
X139170000Y-90800000D01*
X134380000Y-90800000D02*
X135450000Y-90800000D01*
X139170000Y-89940000D02*
X135450000Y-89940000D01*
X139170000Y-91660000D02*
X139170000Y-89940000D01*
X135450000Y-91660000D02*
X139170000Y-91660000D01*
X135450000Y-89940000D02*
X135450000Y-91660000D01*
X134410000Y-80800000D02*
X135480000Y-80800000D01*
X140270000Y-80800000D02*
X139200000Y-80800000D01*
X135480000Y-81660000D02*
X139200000Y-81660000D01*
X135480000Y-79940000D02*
X135480000Y-81660000D01*
X139200000Y-79940000D02*
X135480000Y-79940000D01*
X139200000Y-81660000D02*
X139200000Y-79940000D01*
X73740000Y-119530000D02*
X75390000Y-119530000D01*
X73740000Y-101630000D02*
X73740000Y-119530000D01*
X79040000Y-101630000D02*
X73740000Y-101630000D01*
X79040000Y-119530000D02*
X79040000Y-101630000D01*
X77390000Y-119530000D02*
X79040000Y-119530000D01*
X75390000Y-119530000D02*
G75*
G02X77390000Y-119530000I1000000J0D01*
G01*
X122670000Y-71170000D02*
X124000000Y-71170000D01*
X122670000Y-72500000D02*
X122670000Y-71170000D01*
X122670000Y-73770000D02*
X125330000Y-73770000D01*
X125330000Y-73770000D02*
X125330000Y-73830000D01*
X122670000Y-73770000D02*
X122670000Y-73830000D01*
X122670000Y-73830000D02*
X125330000Y-73830000D01*
X107670000Y-73830000D02*
X110330000Y-73830000D01*
X107670000Y-73770000D02*
X107670000Y-73830000D01*
X110330000Y-73770000D02*
X110330000Y-73830000D01*
X107670000Y-73770000D02*
X110330000Y-73770000D01*
X107670000Y-72500000D02*
X107670000Y-71170000D01*
X107670000Y-71170000D02*
X109000000Y-71170000D01*
X120130000Y-94170000D02*
X120130000Y-96830000D01*
X122730000Y-94170000D02*
X120130000Y-94170000D01*
X122730000Y-96830000D02*
X120130000Y-96830000D01*
X122730000Y-94170000D02*
X122730000Y-96830000D01*
X124000000Y-94170000D02*
X125330000Y-94170000D01*
X125330000Y-94170000D02*
X125330000Y-95500000D01*
X107670000Y-96830000D02*
X107670000Y-95500000D01*
X109000000Y-96830000D02*
X107670000Y-96830000D01*
X110270000Y-96830000D02*
X110270000Y-94170000D01*
X110270000Y-94170000D02*
X112870000Y-94170000D01*
X110270000Y-96830000D02*
X112870000Y-96830000D01*
X112870000Y-96830000D02*
X112870000Y-94170000D01*
X85670000Y-106170000D02*
X87000000Y-106170000D01*
X85670000Y-107500000D02*
X85670000Y-106170000D01*
X85670000Y-108770000D02*
X88330000Y-108770000D01*
X88330000Y-108770000D02*
X88330000Y-108830000D01*
X85670000Y-108770000D02*
X85670000Y-108830000D01*
X85670000Y-108830000D02*
X88330000Y-108830000D01*
X57670000Y-138330000D02*
X57670000Y-137000000D01*
X59000000Y-138330000D02*
X57670000Y-138330000D01*
X60270000Y-138330000D02*
X60270000Y-135670000D01*
X60270000Y-135670000D02*
X78110000Y-135670000D01*
X60270000Y-138330000D02*
X78110000Y-138330000D01*
X78110000Y-138330000D02*
X78110000Y-135670000D01*
X101940000Y-109330000D02*
X103590000Y-109330000D01*
X101940000Y-101590000D02*
X101940000Y-109330000D01*
X107240000Y-101590000D02*
X101940000Y-101590000D01*
X107240000Y-109330000D02*
X107240000Y-101590000D01*
X105590000Y-109330000D02*
X107240000Y-109330000D01*
X103590000Y-109330000D02*
G75*
G02X105590000Y-109330000I1000000J0D01*
G01*
X118930000Y-71170000D02*
X118930000Y-72500000D01*
X117600000Y-71170000D02*
X118930000Y-71170000D01*
X116330000Y-71170000D02*
X116330000Y-73830000D01*
X116330000Y-73830000D02*
X113730000Y-73830000D01*
X116330000Y-71170000D02*
X113730000Y-71170000D01*
X113730000Y-71170000D02*
X113730000Y-73830000D01*
X93870000Y-96330000D02*
X93870000Y-93670000D01*
X91270000Y-96330000D02*
X93870000Y-96330000D01*
X91270000Y-93670000D02*
X93870000Y-93670000D01*
X91270000Y-96330000D02*
X91270000Y-93670000D01*
X90000000Y-96330000D02*
X88670000Y-96330000D01*
X88670000Y-96330000D02*
X88670000Y-95000000D01*
X73670000Y-96330000D02*
X73670000Y-95000000D01*
X75000000Y-96330000D02*
X73670000Y-96330000D01*
X76270000Y-96330000D02*
X76270000Y-93670000D01*
X76270000Y-93670000D02*
X78870000Y-93670000D01*
X76270000Y-96330000D02*
X78870000Y-96330000D01*
X78870000Y-96330000D02*
X78870000Y-93670000D01*
X110861522Y-106008478D02*
G75*
G03X115300000Y-104170000I1838478J1838478D01*
G01*
X110861522Y-102331522D02*
G75*
G02X115300000Y-104170000I1838478J-1838478D01*
G01*
X110850000Y-102370000D02*
X110850000Y-105970000D01*
X101660000Y-100000000D02*
X102730000Y-100000000D01*
X107520000Y-100000000D02*
X106450000Y-100000000D01*
X102730000Y-100860000D02*
X106450000Y-100860000D01*
X102730000Y-99140000D02*
X102730000Y-100860000D01*
X106450000Y-99140000D02*
X102730000Y-99140000D01*
X106450000Y-100860000D02*
X106450000Y-99140000D01*
X118860000Y-80150000D02*
X117140000Y-80150000D01*
X117140000Y-80150000D02*
X117140000Y-83870000D01*
X117140000Y-83870000D02*
X118860000Y-83870000D01*
X118860000Y-83870000D02*
X118860000Y-80150000D01*
X118000000Y-79080000D02*
X118000000Y-80150000D01*
X118000000Y-84940000D02*
X118000000Y-83870000D01*
X116260000Y-80150000D02*
X114540000Y-80150000D01*
X114540000Y-80150000D02*
X114540000Y-83870000D01*
X114540000Y-83870000D02*
X116260000Y-83870000D01*
X116260000Y-83870000D02*
X116260000Y-80150000D01*
X115400000Y-79080000D02*
X115400000Y-80150000D01*
X115400000Y-84940000D02*
X115400000Y-83870000D01*
X90090000Y-118300000D02*
X89020000Y-118300000D01*
X84230000Y-118300000D02*
X85300000Y-118300000D01*
X89020000Y-117440000D02*
X85300000Y-117440000D01*
X89020000Y-119160000D02*
X89020000Y-117440000D01*
X85300000Y-119160000D02*
X89020000Y-119160000D01*
X85300000Y-117440000D02*
X85300000Y-119160000D01*
X85300000Y-114840000D02*
X85300000Y-116560000D01*
X85300000Y-116560000D02*
X89020000Y-116560000D01*
X89020000Y-116560000D02*
X89020000Y-114840000D01*
X89020000Y-114840000D02*
X85300000Y-114840000D01*
X84230000Y-115700000D02*
X85300000Y-115700000D01*
X90090000Y-115700000D02*
X89020000Y-115700000D01*
X135450000Y-87440000D02*
X135450000Y-89160000D01*
X135450000Y-89160000D02*
X139170000Y-89160000D01*
X139170000Y-89160000D02*
X139170000Y-87440000D01*
X139170000Y-87440000D02*
X135450000Y-87440000D01*
X134380000Y-88300000D02*
X135450000Y-88300000D01*
X140240000Y-88300000D02*
X139170000Y-88300000D01*
X121560000Y-80150000D02*
X119840000Y-80150000D01*
X119840000Y-80150000D02*
X119840000Y-83870000D01*
X119840000Y-83870000D02*
X121560000Y-83870000D01*
X121560000Y-83870000D02*
X121560000Y-80150000D01*
X120700000Y-79080000D02*
X120700000Y-80150000D01*
X120700000Y-84940000D02*
X120700000Y-83870000D01*
X140240000Y-83300000D02*
X139170000Y-83300000D01*
X134380000Y-83300000D02*
X135450000Y-83300000D01*
X139170000Y-82440000D02*
X135450000Y-82440000D01*
X139170000Y-84160000D02*
X139170000Y-82440000D01*
X135450000Y-84160000D02*
X139170000Y-84160000D01*
X135450000Y-82440000D02*
X135450000Y-84160000D01*
X140240000Y-85800000D02*
X139170000Y-85800000D01*
X134380000Y-85800000D02*
X135450000Y-85800000D01*
X139170000Y-84940000D02*
X135450000Y-84940000D01*
X139170000Y-86660000D02*
X139170000Y-84940000D01*
X135450000Y-86660000D02*
X139170000Y-86660000D01*
X135450000Y-84940000D02*
X135450000Y-86660000D01*
X135450000Y-92440000D02*
X135450000Y-94160000D01*
X135450000Y-94160000D02*
X139170000Y-94160000D01*
X139170000Y-94160000D02*
X139170000Y-92440000D01*
X139170000Y-92440000D02*
X135450000Y-92440000D01*
X134380000Y-93300000D02*
X135450000Y-93300000D01*
X140240000Y-93300000D02*
X139170000Y-93300000D01*
X140240000Y-95800000D02*
X139170000Y-95800000D01*
X134380000Y-95800000D02*
X135450000Y-95800000D01*
X139170000Y-94940000D02*
X135450000Y-94940000D01*
X139170000Y-96660000D02*
X139170000Y-94940000D01*
X135450000Y-96660000D02*
X139170000Y-96660000D01*
X135450000Y-94940000D02*
X135450000Y-96660000D01*
X135450000Y-97440000D02*
X135450000Y-99160000D01*
X135450000Y-99160000D02*
X139170000Y-99160000D01*
X139170000Y-99160000D02*
X139170000Y-97440000D01*
X139170000Y-97440000D02*
X135450000Y-97440000D01*
X134380000Y-98300000D02*
X135450000Y-98300000D01*
X140240000Y-98300000D02*
X139170000Y-98300000D01*
X92670000Y-106170000D02*
X94000000Y-106170000D01*
X92670000Y-107500000D02*
X92670000Y-106170000D01*
X92670000Y-108770000D02*
X95330000Y-108770000D01*
X95330000Y-108770000D02*
X95330000Y-108830000D01*
X92670000Y-108770000D02*
X92670000Y-108830000D01*
X92670000Y-108830000D02*
X95330000Y-108830000D01*
X92670000Y-137830000D02*
X95330000Y-137830000D01*
X92670000Y-137770000D02*
X92670000Y-137830000D01*
X95330000Y-137770000D02*
X95330000Y-137830000D01*
X92670000Y-137770000D02*
X95330000Y-137770000D01*
X92670000Y-136500000D02*
X92670000Y-135170000D01*
X92670000Y-135170000D02*
X94000000Y-135170000D01*
X85670000Y-135170000D02*
X87000000Y-135170000D01*
X85670000Y-136500000D02*
X85670000Y-135170000D01*
X85670000Y-137770000D02*
X88330000Y-137770000D01*
X88330000Y-137770000D02*
X88330000Y-137830000D01*
X85670000Y-137770000D02*
X85670000Y-137830000D01*
X85670000Y-137830000D02*
X88330000Y-137830000D01*
X137280000Y-78160000D02*
X137280000Y-75440000D01*
X134500000Y-75440000D02*
X134500000Y-75620000D01*
X137820000Y-75440000D02*
X134500000Y-75440000D01*
X137820000Y-75620000D02*
X137820000Y-75440000D01*
X134500000Y-78160000D02*
X134500000Y-77980000D01*
X137820000Y-78160000D02*
X134500000Y-78160000D01*
X137820000Y-77980000D02*
X137820000Y-78160000D01*
X91860000Y-130360000D02*
X89140000Y-130360000D01*
X90500000Y-135380000D02*
X90500000Y-133140000D01*
X90500000Y-127580000D02*
X90500000Y-129820000D01*
X91860000Y-133140000D02*
X91860000Y-129820000D01*
X89140000Y-133140000D02*
X91860000Y-133140000D01*
X89140000Y-129820000D02*
X89140000Y-133140000D01*
X91860000Y-129820000D02*
X89140000Y-129820000D01*
X142170000Y-149670000D02*
X143500000Y-149670000D01*
X142170000Y-151000000D02*
X142170000Y-149670000D01*
X142170000Y-152270000D02*
X144830000Y-152270000D01*
X144830000Y-152270000D02*
X144830000Y-162490000D01*
X142170000Y-152270000D02*
X142170000Y-162490000D01*
X142170000Y-162490000D02*
X144830000Y-162490000D01*
X142580000Y-71670000D02*
X137120000Y-71670000D01*
X142580000Y-102270000D02*
X142580000Y-71670000D01*
X129660000Y-102270000D02*
X142580000Y-102270000D01*
X129660000Y-71670000D02*
X129660000Y-102270000D01*
X135120000Y-71670000D02*
X129660000Y-71670000D01*
X137120000Y-71670000D02*
G75*
G02X135120000Y-71670000I-1000000J0D01*
G01*
D10*
X136559523Y-91252380D02*
X135988095Y-91252380D01*
X136273809Y-91252380D02*
X136273809Y-90252380D01*
X136178571Y-90395238D01*
X136083333Y-90490476D01*
X135988095Y-90538095D01*
X137511904Y-91252380D02*
X136940476Y-91252380D01*
X137226190Y-91252380D02*
X137226190Y-90252380D01*
X137130952Y-90395238D01*
X137035714Y-90490476D01*
X136940476Y-90538095D01*
X137940476Y-91252380D02*
X137940476Y-90252380D01*
X138511904Y-91252380D02*
X138083333Y-90680952D01*
X138511904Y-90252380D02*
X137940476Y-90823809D01*
X136709523Y-81252380D02*
X136138095Y-81252380D01*
X136423809Y-81252380D02*
X136423809Y-80252380D01*
X136328571Y-80395238D01*
X136233333Y-80490476D01*
X136138095Y-80538095D01*
X137661904Y-81252380D02*
X137090476Y-81252380D01*
X137376190Y-81252380D02*
X137376190Y-80252380D01*
X137280952Y-80395238D01*
X137185714Y-80490476D01*
X137090476Y-80538095D01*
X138090476Y-81252380D02*
X138090476Y-80252380D01*
X138661904Y-81252380D02*
X138233333Y-80680952D01*
X138661904Y-80252380D02*
X138090476Y-80823809D01*
X75738095Y-120552380D02*
X75738095Y-121361904D01*
X75785714Y-121457142D01*
X75833333Y-121504761D01*
X75928571Y-121552380D01*
X76119047Y-121552380D01*
X76214285Y-121504761D01*
X76261904Y-121457142D01*
X76309523Y-121361904D01*
X76309523Y-120552380D01*
X76738095Y-120647619D02*
X76785714Y-120600000D01*
X76880952Y-120552380D01*
X77119047Y-120552380D01*
X77214285Y-120600000D01*
X77261904Y-120647619D01*
X77309523Y-120742857D01*
X77309523Y-120838095D01*
X77261904Y-120980952D01*
X76690476Y-121552380D01*
X77309523Y-121552380D01*
X122142857Y-74901428D02*
X122904761Y-74901428D01*
X122523809Y-75282380D02*
X122523809Y-74520476D01*
X123952380Y-75282380D02*
X123619047Y-74806190D01*
X123380952Y-75282380D02*
X123380952Y-74282380D01*
X123761904Y-74282380D01*
X123857142Y-74330000D01*
X123904761Y-74377619D01*
X123952380Y-74472857D01*
X123952380Y-74615714D01*
X123904761Y-74710952D01*
X123857142Y-74758571D01*
X123761904Y-74806190D01*
X123380952Y-74806190D01*
X124809523Y-75282380D02*
X124809523Y-74758571D01*
X124761904Y-74663333D01*
X124666666Y-74615714D01*
X124476190Y-74615714D01*
X124380952Y-74663333D01*
X124809523Y-75234761D02*
X124714285Y-75282380D01*
X124476190Y-75282380D01*
X124380952Y-75234761D01*
X124333333Y-75139523D01*
X124333333Y-75044285D01*
X124380952Y-74949047D01*
X124476190Y-74901428D01*
X124714285Y-74901428D01*
X124809523Y-74853809D01*
X125190476Y-74615714D02*
X125380952Y-75282380D01*
X125571428Y-74806190D01*
X125761904Y-75282380D01*
X125952380Y-74615714D01*
X107142857Y-74901428D02*
X107904761Y-74901428D01*
X108952380Y-75282380D02*
X108619047Y-74806190D01*
X108380952Y-75282380D02*
X108380952Y-74282380D01*
X108761904Y-74282380D01*
X108857142Y-74330000D01*
X108904761Y-74377619D01*
X108952380Y-74472857D01*
X108952380Y-74615714D01*
X108904761Y-74710952D01*
X108857142Y-74758571D01*
X108761904Y-74806190D01*
X108380952Y-74806190D01*
X109809523Y-75282380D02*
X109809523Y-74758571D01*
X109761904Y-74663333D01*
X109666666Y-74615714D01*
X109476190Y-74615714D01*
X109380952Y-74663333D01*
X109809523Y-75234761D02*
X109714285Y-75282380D01*
X109476190Y-75282380D01*
X109380952Y-75234761D01*
X109333333Y-75139523D01*
X109333333Y-75044285D01*
X109380952Y-74949047D01*
X109476190Y-74901428D01*
X109714285Y-74901428D01*
X109809523Y-74853809D01*
X110190476Y-74615714D02*
X110380952Y-75282380D01*
X110571428Y-74806190D01*
X110761904Y-75282380D01*
X110952380Y-74615714D01*
X84095238Y-109282380D02*
X84714285Y-109282380D01*
X84380952Y-109663333D01*
X84523809Y-109663333D01*
X84619047Y-109710952D01*
X84666666Y-109758571D01*
X84714285Y-109853809D01*
X84714285Y-110091904D01*
X84666666Y-110187142D01*
X84619047Y-110234761D01*
X84523809Y-110282380D01*
X84238095Y-110282380D01*
X84142857Y-110234761D01*
X84095238Y-110187142D01*
X85095238Y-109377619D02*
X85142857Y-109330000D01*
X85238095Y-109282380D01*
X85476190Y-109282380D01*
X85571428Y-109330000D01*
X85619047Y-109377619D01*
X85666666Y-109472857D01*
X85666666Y-109568095D01*
X85619047Y-109710952D01*
X85047619Y-110282380D01*
X85666666Y-110282380D01*
X86142857Y-110282380D02*
X86333333Y-110282380D01*
X86428571Y-110234761D01*
X86476190Y-110187142D01*
X86571428Y-110044285D01*
X86619047Y-109853809D01*
X86619047Y-109472857D01*
X86571428Y-109377619D01*
X86523809Y-109330000D01*
X86428571Y-109282380D01*
X86238095Y-109282380D01*
X86142857Y-109330000D01*
X86095238Y-109377619D01*
X86047619Y-109472857D01*
X86047619Y-109710952D01*
X86095238Y-109806190D01*
X86142857Y-109853809D01*
X86238095Y-109901428D01*
X86428571Y-109901428D01*
X86523809Y-109853809D01*
X86571428Y-109806190D01*
X86619047Y-109710952D01*
X87476190Y-109282380D02*
X87285714Y-109282380D01*
X87190476Y-109330000D01*
X87142857Y-109377619D01*
X87047619Y-109520476D01*
X87000000Y-109710952D01*
X87000000Y-110091904D01*
X87047619Y-110187142D01*
X87095238Y-110234761D01*
X87190476Y-110282380D01*
X87380952Y-110282380D01*
X87476190Y-110234761D01*
X87523809Y-110187142D01*
X87571428Y-110091904D01*
X87571428Y-109853809D01*
X87523809Y-109758571D01*
X87476190Y-109710952D01*
X87380952Y-109663333D01*
X87190476Y-109663333D01*
X87095238Y-109710952D01*
X87047619Y-109758571D01*
X87000000Y-109853809D01*
X88761904Y-110282380D02*
X88761904Y-109282380D01*
X89238095Y-110282380D02*
X89238095Y-109282380D01*
X89809523Y-110282380D01*
X89809523Y-109282380D01*
X71809523Y-134702380D02*
X71809523Y-133702380D01*
X72380952Y-134702380D02*
X71952380Y-134130952D01*
X72380952Y-133702380D02*
X71809523Y-134273809D01*
X73190476Y-134654761D02*
X73095238Y-134702380D01*
X72904761Y-134702380D01*
X72809523Y-134654761D01*
X72761904Y-134559523D01*
X72761904Y-134178571D01*
X72809523Y-134083333D01*
X72904761Y-134035714D01*
X73095238Y-134035714D01*
X73190476Y-134083333D01*
X73238095Y-134178571D01*
X73238095Y-134273809D01*
X72761904Y-134369047D01*
X73571428Y-134035714D02*
X73809523Y-134702380D01*
X74047619Y-134035714D02*
X73809523Y-134702380D01*
X73714285Y-134940476D01*
X73666666Y-134988095D01*
X73571428Y-135035714D01*
X74428571Y-134702380D02*
X74428571Y-133702380D01*
X74428571Y-134083333D02*
X74523809Y-134035714D01*
X74714285Y-134035714D01*
X74809523Y-134083333D01*
X74857142Y-134130952D01*
X74904761Y-134226190D01*
X74904761Y-134511904D01*
X74857142Y-134607142D01*
X74809523Y-134654761D01*
X74714285Y-134702380D01*
X74523809Y-134702380D01*
X74428571Y-134654761D01*
X75476190Y-134702380D02*
X75380952Y-134654761D01*
X75333333Y-134607142D01*
X75285714Y-134511904D01*
X75285714Y-134226190D01*
X75333333Y-134130952D01*
X75380952Y-134083333D01*
X75476190Y-134035714D01*
X75619047Y-134035714D01*
X75714285Y-134083333D01*
X75761904Y-134130952D01*
X75809523Y-134226190D01*
X75809523Y-134511904D01*
X75761904Y-134607142D01*
X75714285Y-134654761D01*
X75619047Y-134702380D01*
X75476190Y-134702380D01*
X76666666Y-134702380D02*
X76666666Y-134178571D01*
X76619047Y-134083333D01*
X76523809Y-134035714D01*
X76333333Y-134035714D01*
X76238095Y-134083333D01*
X76666666Y-134654761D02*
X76571428Y-134702380D01*
X76333333Y-134702380D01*
X76238095Y-134654761D01*
X76190476Y-134559523D01*
X76190476Y-134464285D01*
X76238095Y-134369047D01*
X76333333Y-134321428D01*
X76571428Y-134321428D01*
X76666666Y-134273809D01*
X77142857Y-134702380D02*
X77142857Y-134035714D01*
X77142857Y-134226190D02*
X77190476Y-134130952D01*
X77238095Y-134083333D01*
X77333333Y-134035714D01*
X77428571Y-134035714D01*
X78190476Y-134702380D02*
X78190476Y-133702380D01*
X78190476Y-134654761D02*
X78095238Y-134702380D01*
X77904761Y-134702380D01*
X77809523Y-134654761D01*
X77761904Y-134607142D01*
X77714285Y-134511904D01*
X77714285Y-134226190D01*
X77761904Y-134130952D01*
X77809523Y-134083333D01*
X77904761Y-134035714D01*
X78095238Y-134035714D01*
X78190476Y-134083333D01*
X103938095Y-110052380D02*
X103938095Y-110861904D01*
X103985714Y-110957142D01*
X104033333Y-111004761D01*
X104128571Y-111052380D01*
X104319047Y-111052380D01*
X104414285Y-111004761D01*
X104461904Y-110957142D01*
X104509523Y-110861904D01*
X104509523Y-110052380D01*
X105509523Y-111052380D02*
X104938095Y-111052380D01*
X105223809Y-111052380D02*
X105223809Y-110052380D01*
X105128571Y-110195238D01*
X105033333Y-110290476D01*
X104938095Y-110338095D01*
X113200000Y-74828571D02*
X113533333Y-74828571D01*
X113676190Y-75352380D02*
X113200000Y-75352380D01*
X113200000Y-74352380D01*
X113676190Y-74352380D01*
X114009523Y-75352380D02*
X114533333Y-74685714D01*
X114009523Y-74685714D02*
X114533333Y-75352380D01*
X114771428Y-74685714D02*
X115152380Y-74685714D01*
X114914285Y-74352380D02*
X114914285Y-75209523D01*
X114961904Y-75304761D01*
X115057142Y-75352380D01*
X115152380Y-75352380D01*
X116247619Y-75352380D02*
X116247619Y-74352380D01*
X116628571Y-74352380D01*
X116723809Y-74400000D01*
X116771428Y-74447619D01*
X116819047Y-74542857D01*
X116819047Y-74685714D01*
X116771428Y-74780952D01*
X116723809Y-74828571D01*
X116628571Y-74876190D01*
X116247619Y-74876190D01*
X117390476Y-75352380D02*
X117295238Y-75304761D01*
X117247619Y-75257142D01*
X117200000Y-75161904D01*
X117200000Y-74876190D01*
X117247619Y-74780952D01*
X117295238Y-74733333D01*
X117390476Y-74685714D01*
X117533333Y-74685714D01*
X117628571Y-74733333D01*
X117676190Y-74780952D01*
X117723809Y-74876190D01*
X117723809Y-75161904D01*
X117676190Y-75257142D01*
X117628571Y-75304761D01*
X117533333Y-75352380D01*
X117390476Y-75352380D01*
X118057142Y-74685714D02*
X118247619Y-75352380D01*
X118438095Y-74876190D01*
X118628571Y-75352380D01*
X118819047Y-74685714D01*
X119580952Y-75304761D02*
X119485714Y-75352380D01*
X119295238Y-75352380D01*
X119200000Y-75304761D01*
X119152380Y-75209523D01*
X119152380Y-74828571D01*
X119200000Y-74733333D01*
X119295238Y-74685714D01*
X119485714Y-74685714D01*
X119580952Y-74733333D01*
X119628571Y-74828571D01*
X119628571Y-74923809D01*
X119152380Y-75019047D01*
X120057142Y-75352380D02*
X120057142Y-74685714D01*
X120057142Y-74876190D02*
X120104761Y-74780952D01*
X120152380Y-74733333D01*
X120247619Y-74685714D01*
X120342857Y-74685714D01*
X89964285Y-98428571D02*
X90107142Y-98476190D01*
X90154761Y-98523809D01*
X90202380Y-98619047D01*
X90202380Y-98761904D01*
X90154761Y-98857142D01*
X90107142Y-98904761D01*
X90011904Y-98952380D01*
X89630952Y-98952380D01*
X89630952Y-97952380D01*
X89964285Y-97952380D01*
X90059523Y-98000000D01*
X90107142Y-98047619D01*
X90154761Y-98142857D01*
X90154761Y-98238095D01*
X90107142Y-98333333D01*
X90059523Y-98380952D01*
X89964285Y-98428571D01*
X89630952Y-98428571D01*
X91059523Y-98952380D02*
X91059523Y-98428571D01*
X91011904Y-98333333D01*
X90916666Y-98285714D01*
X90726190Y-98285714D01*
X90630952Y-98333333D01*
X91059523Y-98904761D02*
X90964285Y-98952380D01*
X90726190Y-98952380D01*
X90630952Y-98904761D01*
X90583333Y-98809523D01*
X90583333Y-98714285D01*
X90630952Y-98619047D01*
X90726190Y-98571428D01*
X90964285Y-98571428D01*
X91059523Y-98523809D01*
X91392857Y-98285714D02*
X91773809Y-98285714D01*
X91535714Y-97952380D02*
X91535714Y-98809523D01*
X91583333Y-98904761D01*
X91678571Y-98952380D01*
X91773809Y-98952380D01*
X92107142Y-98571428D02*
X92869047Y-98571428D01*
X92488095Y-98952380D02*
X92488095Y-98190476D01*
X74583333Y-98428571D02*
X74726190Y-98476190D01*
X74773809Y-98523809D01*
X74821428Y-98619047D01*
X74821428Y-98761904D01*
X74773809Y-98857142D01*
X74726190Y-98904761D01*
X74630952Y-98952380D01*
X74250000Y-98952380D01*
X74250000Y-97952380D01*
X74583333Y-97952380D01*
X74678571Y-98000000D01*
X74726190Y-98047619D01*
X74773809Y-98142857D01*
X74773809Y-98238095D01*
X74726190Y-98333333D01*
X74678571Y-98380952D01*
X74583333Y-98428571D01*
X74250000Y-98428571D01*
X75678571Y-98952380D02*
X75678571Y-98428571D01*
X75630952Y-98333333D01*
X75535714Y-98285714D01*
X75345238Y-98285714D01*
X75250000Y-98333333D01*
X75678571Y-98904761D02*
X75583333Y-98952380D01*
X75345238Y-98952380D01*
X75250000Y-98904761D01*
X75202380Y-98809523D01*
X75202380Y-98714285D01*
X75250000Y-98619047D01*
X75345238Y-98571428D01*
X75583333Y-98571428D01*
X75678571Y-98523809D01*
X76011904Y-98285714D02*
X76392857Y-98285714D01*
X76154761Y-97952380D02*
X76154761Y-98809523D01*
X76202380Y-98904761D01*
X76297619Y-98952380D01*
X76392857Y-98952380D01*
X77488095Y-98571428D02*
X78250000Y-98571428D01*
X117247619Y-102995238D02*
X117200000Y-103090476D01*
X117104761Y-103185714D01*
X116961904Y-103328571D01*
X116914285Y-103423809D01*
X116914285Y-103519047D01*
X117152380Y-103471428D02*
X117104761Y-103566666D01*
X117009523Y-103661904D01*
X116819047Y-103709523D01*
X116485714Y-103709523D01*
X116295238Y-103661904D01*
X116200000Y-103566666D01*
X116152380Y-103471428D01*
X116152380Y-103280952D01*
X116200000Y-103185714D01*
X116295238Y-103090476D01*
X116485714Y-103042857D01*
X116819047Y-103042857D01*
X117009523Y-103090476D01*
X117104761Y-103185714D01*
X117152380Y-103280952D01*
X117152380Y-103471428D01*
X117152380Y-102090476D02*
X117152380Y-102661904D01*
X117152380Y-102376190D02*
X116152380Y-102376190D01*
X116295238Y-102471428D01*
X116390476Y-102566666D01*
X116438095Y-102661904D01*
X103357142Y-99685714D02*
X103357142Y-100352380D01*
X103119047Y-99304761D02*
X102880952Y-100019047D01*
X103500000Y-100019047D01*
X103785714Y-99352380D02*
X104452380Y-99352380D01*
X104023809Y-100352380D01*
X105023809Y-99352380D02*
X105119047Y-99352380D01*
X105214285Y-99400000D01*
X105261904Y-99447619D01*
X105309523Y-99542857D01*
X105357142Y-99733333D01*
X105357142Y-99971428D01*
X105309523Y-100161904D01*
X105261904Y-100257142D01*
X105214285Y-100304761D01*
X105119047Y-100352380D01*
X105023809Y-100352380D01*
X104928571Y-100304761D01*
X104880952Y-100257142D01*
X104833333Y-100161904D01*
X104785714Y-99971428D01*
X104785714Y-99733333D01*
X104833333Y-99542857D01*
X104880952Y-99447619D01*
X104928571Y-99400000D01*
X105023809Y-99352380D01*
X105928571Y-99352380D02*
X105928571Y-99590476D01*
X105690476Y-99495238D02*
X105928571Y-99590476D01*
X106166666Y-99495238D01*
X105785714Y-99780952D02*
X105928571Y-99590476D01*
X106071428Y-99780952D01*
X117685714Y-83195238D02*
X118352380Y-83195238D01*
X117304761Y-83433333D02*
X118019047Y-83671428D01*
X118019047Y-83052380D01*
X118257142Y-82671428D02*
X118304761Y-82623809D01*
X118352380Y-82671428D01*
X118304761Y-82719047D01*
X118257142Y-82671428D01*
X118352380Y-82671428D01*
X117352380Y-82290476D02*
X117352380Y-81623809D01*
X118352380Y-82052380D01*
X118352380Y-81242857D02*
X117352380Y-81242857D01*
X118066666Y-80909523D01*
X117352380Y-80576190D01*
X118352380Y-80576190D01*
X115852380Y-82833333D02*
X115852380Y-83404761D01*
X115852380Y-83119047D02*
X114852380Y-83119047D01*
X114995238Y-83214285D01*
X115090476Y-83309523D01*
X115138095Y-83404761D01*
X115757142Y-82404761D02*
X115804761Y-82357142D01*
X115852380Y-82404761D01*
X115804761Y-82452380D01*
X115757142Y-82404761D01*
X115852380Y-82404761D01*
X115852380Y-81404761D02*
X115852380Y-81976190D01*
X115852380Y-81690476D02*
X114852380Y-81690476D01*
X114995238Y-81785714D01*
X115090476Y-81880952D01*
X115138095Y-81976190D01*
X115852380Y-80976190D02*
X114852380Y-80976190D01*
X115471428Y-80880952D02*
X115852380Y-80595238D01*
X115185714Y-80595238D02*
X115566666Y-80976190D01*
X86564761Y-118652380D02*
X85993333Y-118652380D01*
X86279047Y-118652380D02*
X86279047Y-117652380D01*
X86183809Y-117795238D01*
X86088571Y-117890476D01*
X85993333Y-117938095D01*
X87469523Y-117652380D02*
X86993333Y-117652380D01*
X86945714Y-118128571D01*
X86993333Y-118080952D01*
X87088571Y-118033333D01*
X87326666Y-118033333D01*
X87421904Y-118080952D01*
X87469523Y-118128571D01*
X87517142Y-118223809D01*
X87517142Y-118461904D01*
X87469523Y-118557142D01*
X87421904Y-118604761D01*
X87326666Y-118652380D01*
X87088571Y-118652380D01*
X86993333Y-118604761D01*
X86945714Y-118557142D01*
X87945714Y-118652380D02*
X87945714Y-117652380D01*
X88040952Y-118271428D02*
X88326666Y-118652380D01*
X88326666Y-117985714D02*
X87945714Y-118366666D01*
X86564761Y-116152380D02*
X85993333Y-116152380D01*
X86279047Y-116152380D02*
X86279047Y-115152380D01*
X86183809Y-115295238D01*
X86088571Y-115390476D01*
X85993333Y-115438095D01*
X87469523Y-115152380D02*
X86993333Y-115152380D01*
X86945714Y-115628571D01*
X86993333Y-115580952D01*
X87088571Y-115533333D01*
X87326666Y-115533333D01*
X87421904Y-115580952D01*
X87469523Y-115628571D01*
X87517142Y-115723809D01*
X87517142Y-115961904D01*
X87469523Y-116057142D01*
X87421904Y-116104761D01*
X87326666Y-116152380D01*
X87088571Y-116152380D01*
X86993333Y-116104761D01*
X86945714Y-116057142D01*
X87945714Y-116152380D02*
X87945714Y-115152380D01*
X88040952Y-115771428D02*
X88326666Y-116152380D01*
X88326666Y-115485714D02*
X87945714Y-115866666D01*
X136714761Y-88752380D02*
X136143333Y-88752380D01*
X136429047Y-88752380D02*
X136429047Y-87752380D01*
X136333809Y-87895238D01*
X136238571Y-87990476D01*
X136143333Y-88038095D01*
X137619523Y-87752380D02*
X137143333Y-87752380D01*
X137095714Y-88228571D01*
X137143333Y-88180952D01*
X137238571Y-88133333D01*
X137476666Y-88133333D01*
X137571904Y-88180952D01*
X137619523Y-88228571D01*
X137667142Y-88323809D01*
X137667142Y-88561904D01*
X137619523Y-88657142D01*
X137571904Y-88704761D01*
X137476666Y-88752380D01*
X137238571Y-88752380D01*
X137143333Y-88704761D01*
X137095714Y-88657142D01*
X138095714Y-88752380D02*
X138095714Y-87752380D01*
X138190952Y-88371428D02*
X138476666Y-88752380D01*
X138476666Y-88085714D02*
X138095714Y-88466666D01*
X120485714Y-83105238D02*
X121152380Y-83105238D01*
X120104761Y-83343333D02*
X120819047Y-83581428D01*
X120819047Y-82962380D01*
X121057142Y-82581428D02*
X121104761Y-82533809D01*
X121152380Y-82581428D01*
X121104761Y-82629047D01*
X121057142Y-82581428D01*
X121152380Y-82581428D01*
X120152380Y-82200476D02*
X120152380Y-81533809D01*
X121152380Y-81962380D01*
X121152380Y-81152857D02*
X120152380Y-81152857D01*
X120866666Y-80819523D01*
X120152380Y-80486190D01*
X121152380Y-80486190D01*
X136304761Y-83085714D02*
X136304761Y-83752380D01*
X136066666Y-82704761D02*
X135828571Y-83419047D01*
X136447619Y-83419047D01*
X136828571Y-83657142D02*
X136876190Y-83704761D01*
X136828571Y-83752380D01*
X136780952Y-83704761D01*
X136828571Y-83657142D01*
X136828571Y-83752380D01*
X137209523Y-82752380D02*
X137876190Y-82752380D01*
X137447619Y-83752380D01*
X138257142Y-83752380D02*
X138257142Y-82752380D01*
X138590476Y-83466666D01*
X138923809Y-82752380D01*
X138923809Y-83752380D01*
X136714761Y-86252380D02*
X136143333Y-86252380D01*
X136429047Y-86252380D02*
X136429047Y-85252380D01*
X136333809Y-85395238D01*
X136238571Y-85490476D01*
X136143333Y-85538095D01*
X137619523Y-85252380D02*
X137143333Y-85252380D01*
X137095714Y-85728571D01*
X137143333Y-85680952D01*
X137238571Y-85633333D01*
X137476666Y-85633333D01*
X137571904Y-85680952D01*
X137619523Y-85728571D01*
X137667142Y-85823809D01*
X137667142Y-86061904D01*
X137619523Y-86157142D01*
X137571904Y-86204761D01*
X137476666Y-86252380D01*
X137238571Y-86252380D01*
X137143333Y-86204761D01*
X137095714Y-86157142D01*
X138095714Y-86252380D02*
X138095714Y-85252380D01*
X138190952Y-85871428D02*
X138476666Y-86252380D01*
X138476666Y-85585714D02*
X138095714Y-85966666D01*
X136619523Y-93752380D02*
X136048095Y-93752380D01*
X136333809Y-93752380D02*
X136333809Y-92752380D01*
X136238571Y-92895238D01*
X136143333Y-92990476D01*
X136048095Y-93038095D01*
X137571904Y-93752380D02*
X137000476Y-93752380D01*
X137286190Y-93752380D02*
X137286190Y-92752380D01*
X137190952Y-92895238D01*
X137095714Y-92990476D01*
X137000476Y-93038095D01*
X138000476Y-93752380D02*
X138000476Y-92752380D01*
X138571904Y-93752380D02*
X138143333Y-93180952D01*
X138571904Y-92752380D02*
X138000476Y-93323809D01*
X136809523Y-96252380D02*
X136238095Y-96252380D01*
X136523809Y-96252380D02*
X136523809Y-95252380D01*
X136428571Y-95395238D01*
X136333333Y-95490476D01*
X136238095Y-95538095D01*
X137761904Y-96252380D02*
X137190476Y-96252380D01*
X137476190Y-96252380D02*
X137476190Y-95252380D01*
X137380952Y-95395238D01*
X137285714Y-95490476D01*
X137190476Y-95538095D01*
X138190476Y-96252380D02*
X138190476Y-95252380D01*
X138761904Y-96252380D02*
X138333333Y-95680952D01*
X138761904Y-95252380D02*
X138190476Y-95823809D01*
X136619523Y-98752380D02*
X136048095Y-98752380D01*
X136333809Y-98752380D02*
X136333809Y-97752380D01*
X136238571Y-97895238D01*
X136143333Y-97990476D01*
X136048095Y-98038095D01*
X137571904Y-98752380D02*
X137000476Y-98752380D01*
X137286190Y-98752380D02*
X137286190Y-97752380D01*
X137190952Y-97895238D01*
X137095714Y-97990476D01*
X137000476Y-98038095D01*
X138000476Y-98752380D02*
X138000476Y-97752380D01*
X138571904Y-98752380D02*
X138143333Y-98180952D01*
X138571904Y-97752380D02*
X138000476Y-98323809D01*
X93238095Y-109330000D02*
X93142857Y-109282380D01*
X93000000Y-109282380D01*
X92857142Y-109330000D01*
X92761904Y-109425238D01*
X92714285Y-109520476D01*
X92666666Y-109710952D01*
X92666666Y-109853809D01*
X92714285Y-110044285D01*
X92761904Y-110139523D01*
X92857142Y-110234761D01*
X93000000Y-110282380D01*
X93095238Y-110282380D01*
X93238095Y-110234761D01*
X93285714Y-110187142D01*
X93285714Y-109853809D01*
X93095238Y-109853809D01*
X93714285Y-110282380D02*
X93714285Y-109282380D01*
X94285714Y-110282380D01*
X94285714Y-109282380D01*
X94761904Y-110282380D02*
X94761904Y-109282380D01*
X95000000Y-109282380D01*
X95142857Y-109330000D01*
X95238095Y-109425238D01*
X95285714Y-109520476D01*
X95333333Y-109710952D01*
X95333333Y-109853809D01*
X95285714Y-110044285D01*
X95238095Y-110139523D01*
X95142857Y-110234761D01*
X95000000Y-110282380D01*
X94761904Y-110282380D01*
X93238095Y-138330000D02*
X93142857Y-138282380D01*
X93000000Y-138282380D01*
X92857142Y-138330000D01*
X92761904Y-138425238D01*
X92714285Y-138520476D01*
X92666666Y-138710952D01*
X92666666Y-138853809D01*
X92714285Y-139044285D01*
X92761904Y-139139523D01*
X92857142Y-139234761D01*
X93000000Y-139282380D01*
X93095238Y-139282380D01*
X93238095Y-139234761D01*
X93285714Y-139187142D01*
X93285714Y-138853809D01*
X93095238Y-138853809D01*
X93714285Y-139282380D02*
X93714285Y-138282380D01*
X94285714Y-139282380D01*
X94285714Y-138282380D01*
X94761904Y-139282380D02*
X94761904Y-138282380D01*
X95000000Y-138282380D01*
X95142857Y-138330000D01*
X95238095Y-138425238D01*
X95285714Y-138520476D01*
X95333333Y-138710952D01*
X95333333Y-138853809D01*
X95285714Y-139044285D01*
X95238095Y-139139523D01*
X95142857Y-139234761D01*
X95000000Y-139282380D01*
X94761904Y-139282380D01*
X83428571Y-138282380D02*
X84047619Y-138282380D01*
X83714285Y-138663333D01*
X83857142Y-138663333D01*
X83952380Y-138710952D01*
X84000000Y-138758571D01*
X84047619Y-138853809D01*
X84047619Y-139091904D01*
X84000000Y-139187142D01*
X83952380Y-139234761D01*
X83857142Y-139282380D01*
X83571428Y-139282380D01*
X83476190Y-139234761D01*
X83428571Y-139187142D01*
X84428571Y-138377619D02*
X84476190Y-138330000D01*
X84571428Y-138282380D01*
X84809523Y-138282380D01*
X84904761Y-138330000D01*
X84952380Y-138377619D01*
X85000000Y-138472857D01*
X85000000Y-138568095D01*
X84952380Y-138710952D01*
X84380952Y-139282380D01*
X85000000Y-139282380D01*
X85476190Y-139282380D02*
X85666666Y-139282380D01*
X85761904Y-139234761D01*
X85809523Y-139187142D01*
X85904761Y-139044285D01*
X85952380Y-138853809D01*
X85952380Y-138472857D01*
X85904761Y-138377619D01*
X85857142Y-138330000D01*
X85761904Y-138282380D01*
X85571428Y-138282380D01*
X85476190Y-138330000D01*
X85428571Y-138377619D01*
X85380952Y-138472857D01*
X85380952Y-138710952D01*
X85428571Y-138806190D01*
X85476190Y-138853809D01*
X85571428Y-138901428D01*
X85761904Y-138901428D01*
X85857142Y-138853809D01*
X85904761Y-138806190D01*
X85952380Y-138710952D01*
X86809523Y-138282380D02*
X86619047Y-138282380D01*
X86523809Y-138330000D01*
X86476190Y-138377619D01*
X86380952Y-138520476D01*
X86333333Y-138710952D01*
X86333333Y-139091904D01*
X86380952Y-139187142D01*
X86428571Y-139234761D01*
X86523809Y-139282380D01*
X86714285Y-139282380D01*
X86809523Y-139234761D01*
X86857142Y-139187142D01*
X86904761Y-139091904D01*
X86904761Y-138853809D01*
X86857142Y-138758571D01*
X86809523Y-138710952D01*
X86714285Y-138663333D01*
X86523809Y-138663333D01*
X86428571Y-138710952D01*
X86380952Y-138758571D01*
X86333333Y-138853809D01*
X88285714Y-138282380D02*
X88476190Y-138282380D01*
X88571428Y-138330000D01*
X88666666Y-138425238D01*
X88714285Y-138615714D01*
X88714285Y-138949047D01*
X88666666Y-139139523D01*
X88571428Y-139234761D01*
X88476190Y-139282380D01*
X88285714Y-139282380D01*
X88190476Y-139234761D01*
X88095238Y-139139523D01*
X88047619Y-138949047D01*
X88047619Y-138615714D01*
X88095238Y-138425238D01*
X88190476Y-138330000D01*
X88285714Y-138282380D01*
X89142857Y-138282380D02*
X89142857Y-139091904D01*
X89190476Y-139187142D01*
X89238095Y-139234761D01*
X89333333Y-139282380D01*
X89523809Y-139282380D01*
X89619047Y-139234761D01*
X89666666Y-139187142D01*
X89714285Y-139091904D01*
X89714285Y-138282380D01*
X90047619Y-138282380D02*
X90619047Y-138282380D01*
X90333333Y-139282380D02*
X90333333Y-138282380D01*
X135421904Y-79612380D02*
X135421904Y-78612380D01*
X135660000Y-78612380D01*
X135802857Y-78660000D01*
X135898095Y-78755238D01*
X135945714Y-78850476D01*
X135993333Y-79040952D01*
X135993333Y-79183809D01*
X135945714Y-79374285D01*
X135898095Y-79469523D01*
X135802857Y-79564761D01*
X135660000Y-79612380D01*
X135421904Y-79612380D01*
X136945714Y-79612380D02*
X136374285Y-79612380D01*
X136660000Y-79612380D02*
X136660000Y-78612380D01*
X136564761Y-78755238D01*
X136469523Y-78850476D01*
X136374285Y-78898095D01*
X87161904Y-131352380D02*
X87161904Y-130352380D01*
X87400000Y-130352380D01*
X87542857Y-130400000D01*
X87638095Y-130495238D01*
X87685714Y-130590476D01*
X87733333Y-130780952D01*
X87733333Y-130923809D01*
X87685714Y-131114285D01*
X87638095Y-131209523D01*
X87542857Y-131304761D01*
X87400000Y-131352380D01*
X87161904Y-131352380D01*
X88114285Y-130447619D02*
X88161904Y-130400000D01*
X88257142Y-130352380D01*
X88495238Y-130352380D01*
X88590476Y-130400000D01*
X88638095Y-130447619D01*
X88685714Y-130542857D01*
X88685714Y-130638095D01*
X88638095Y-130780952D01*
X88066666Y-131352380D01*
X88685714Y-131352380D01*
X142595238Y-163418571D02*
X142928571Y-163418571D01*
X143071428Y-163942380D02*
X142595238Y-163942380D01*
X142595238Y-162942380D01*
X143071428Y-162942380D01*
X143404761Y-163942380D02*
X143928571Y-163275714D01*
X143404761Y-163275714D02*
X143928571Y-163942380D01*
X144166666Y-163275714D02*
X144547619Y-163275714D01*
X144309523Y-162942380D02*
X144309523Y-163799523D01*
X144357142Y-163894761D01*
X144452380Y-163942380D01*
X144547619Y-163942380D01*
X135358095Y-70122380D02*
X135358095Y-70931904D01*
X135405714Y-71027142D01*
X135453333Y-71074761D01*
X135548571Y-71122380D01*
X135739047Y-71122380D01*
X135834285Y-71074761D01*
X135881904Y-71027142D01*
X135929523Y-70931904D01*
X135929523Y-70122380D01*
X136310476Y-70122380D02*
X136929523Y-70122380D01*
X136596190Y-70503333D01*
X136739047Y-70503333D01*
X136834285Y-70550952D01*
X136881904Y-70598571D01*
X136929523Y-70693809D01*
X136929523Y-70931904D01*
X136881904Y-71027142D01*
X136834285Y-71074761D01*
X136739047Y-71122380D01*
X136453333Y-71122380D01*
X136358095Y-71074761D01*
X136310476Y-71027142D01*
M02*
