G04 #@! TF.GenerationSoftware,KiCad,Pcbnew,(5.1.2)-2*
G04 #@! TF.CreationDate,2020-12-08T09:13:38+10:00*
G04 #@! TF.ProjectId,MK2090_PERI_order,4d4b3230-3930-45f5-9045-52495f6f7264,rev?*
G04 #@! TF.SameCoordinates,Original*
G04 #@! TF.FileFunction,Soldermask,Bot*
G04 #@! TF.FilePolarity,Negative*
%FSLAX46Y46*%
G04 Gerber Fmt 4.6, Leading zero omitted, Abs format (unit mm)*
G04 Created by KiCad (PCBNEW (5.1.2)-2) date 2020-12-08 09:13:38*
%MOMM*%
%LPD*%
G04 APERTURE LIST*
%ADD10C,3.200000*%
%ADD11O,1.400000X1.400000*%
%ADD12C,1.400000*%
%ADD13O,1.600000X1.600000*%
%ADD14R,1.600000X1.600000*%
%ADD15C,4.000000*%
%ADD16R,1.700000X1.700000*%
%ADD17O,1.700000X1.700000*%
%ADD18C,1.300000*%
%ADD19C,1.300000*%
%ADD20C,0.100000*%
%ADD21O,1.800000X1.300000*%
%ADD22O,2.000000X2.000000*%
%ADD23R,2.000000X2.000000*%
%ADD24C,2.500000*%
%ADD25C,2.500000*%
%ADD26C,2.000000*%
G04 APERTURE END LIST*
D10*
X147500000Y-144250000D03*
X52500000Y-144250000D03*
X147500000Y-167500000D03*
X52500000Y-167500000D03*
D11*
X141120000Y-90800000D03*
D12*
X133500000Y-90800000D03*
D11*
X133530000Y-80800000D03*
D12*
X141150000Y-80800000D03*
D13*
X72580000Y-118200000D03*
X80200000Y-102960000D03*
X72580000Y-115660000D03*
X80200000Y-105500000D03*
X72580000Y-113120000D03*
X80200000Y-108040000D03*
X72580000Y-110580000D03*
X80200000Y-110580000D03*
X72580000Y-108040000D03*
X80200000Y-113120000D03*
X72580000Y-105500000D03*
X80200000Y-115660000D03*
X72580000Y-102960000D03*
D14*
X80200000Y-118200000D03*
D15*
X147500000Y-72500000D03*
X104500000Y-72500000D03*
X52500000Y-93500000D03*
X147500000Y-137500000D03*
X52500000Y-137500000D03*
D16*
X124000000Y-72500000D03*
X109000000Y-72500000D03*
X124000000Y-95500000D03*
D17*
X121460000Y-95500000D03*
X111540000Y-95500000D03*
D16*
X109000000Y-95500000D03*
X87000000Y-107500000D03*
D17*
X65000000Y-130860000D03*
X65000000Y-128320000D03*
X65000000Y-125780000D03*
X65000000Y-123240000D03*
X65000000Y-120700000D03*
X65000000Y-118160000D03*
X65000000Y-115620000D03*
X65000000Y-113080000D03*
X65000000Y-110540000D03*
D16*
X65000000Y-108000000D03*
D17*
X76780000Y-137000000D03*
X74240000Y-137000000D03*
X71700000Y-137000000D03*
X69160000Y-137000000D03*
X66620000Y-137000000D03*
X64080000Y-137000000D03*
X61540000Y-137000000D03*
D16*
X59000000Y-137000000D03*
D17*
X107000000Y-123880000D03*
X107000000Y-126420000D03*
X107000000Y-128960000D03*
D16*
X107000000Y-131500000D03*
D17*
X142000000Y-121300000D03*
X142000000Y-123840000D03*
X142000000Y-126380000D03*
X142000000Y-128920000D03*
X142000000Y-131460000D03*
D16*
X142000000Y-134000000D03*
D13*
X100780000Y-108000000D03*
X108400000Y-102920000D03*
X100780000Y-105460000D03*
X108400000Y-105460000D03*
X100780000Y-102920000D03*
D14*
X108400000Y-108000000D03*
D17*
X115060000Y-72500000D03*
D16*
X117600000Y-72500000D03*
X90000000Y-95000000D03*
D17*
X92540000Y-95000000D03*
X77540000Y-95000000D03*
D16*
X75000000Y-95000000D03*
D18*
X112700000Y-105440000D03*
D19*
X112523223Y-105263223D02*
X112876777Y-105616777D01*
D18*
X112700000Y-102900000D03*
D20*
G36*
X111603984Y-103076777D02*
G01*
X112876777Y-101803984D01*
X113796016Y-102723223D01*
X112523223Y-103996016D01*
X111603984Y-103076777D01*
X111603984Y-103076777D01*
G37*
D21*
X113970000Y-104170000D03*
D11*
X100780000Y-100000000D03*
D12*
X108400000Y-100000000D03*
X118000000Y-78200000D03*
D11*
X118000000Y-85820000D03*
D12*
X115400000Y-78200000D03*
D11*
X115400000Y-85820000D03*
X90970000Y-118300000D03*
D12*
X83350000Y-118300000D03*
X83350000Y-115700000D03*
D11*
X90970000Y-115700000D03*
D12*
X133500000Y-88300000D03*
D11*
X141120000Y-88300000D03*
D12*
X120700000Y-78200000D03*
D11*
X120700000Y-85820000D03*
X141120000Y-83300000D03*
D12*
X133500000Y-83300000D03*
D11*
X141120000Y-85800000D03*
D12*
X133500000Y-85800000D03*
X133500000Y-93300000D03*
D11*
X141120000Y-93300000D03*
X141120000Y-95800000D03*
D12*
X133500000Y-95800000D03*
X133500000Y-98300000D03*
D11*
X141120000Y-98300000D03*
D16*
X94000000Y-107500000D03*
X94000000Y-136500000D03*
X87000000Y-136500000D03*
D22*
X133620000Y-76800000D03*
D23*
X138700000Y-76800000D03*
D22*
X90500000Y-136560000D03*
D23*
X90500000Y-126400000D03*
D17*
X143500000Y-161160000D03*
X143500000Y-158620000D03*
X143500000Y-156080000D03*
X143500000Y-153540000D03*
D16*
X143500000Y-151000000D03*
D24*
X70020000Y-161790000D03*
D25*
X70000276Y-161500672D02*
X70039724Y-162079328D01*
D24*
X64095000Y-160270000D03*
D25*
X63689547Y-159540046D02*
X64500453Y-160999954D01*
D24*
X84595000Y-155770000D03*
D25*
X84189547Y-155040046D02*
X85000453Y-156499954D01*
D24*
X90520000Y-157290000D03*
D25*
X90500276Y-157000672D02*
X90539724Y-157579328D01*
D24*
X111020000Y-160790000D03*
D25*
X111000276Y-160500672D02*
X111039724Y-161079328D01*
D24*
X105095000Y-159270000D03*
D25*
X104689547Y-158540046D02*
X105500453Y-159999954D01*
D24*
X125595000Y-163270000D03*
D25*
X125189547Y-162540046D02*
X126000453Y-163999954D01*
D24*
X131520000Y-164790000D03*
D25*
X131500276Y-164500672D02*
X131539724Y-165079328D01*
D26*
X141500000Y-110000000D03*
X141500000Y-105500000D03*
X135000000Y-110000000D03*
X135000000Y-105500000D03*
D13*
X143740000Y-73000000D03*
X128500000Y-100940000D03*
X143740000Y-75540000D03*
X128500000Y-98400000D03*
X143740000Y-78080000D03*
X128500000Y-95860000D03*
X143740000Y-80620000D03*
X128500000Y-93320000D03*
X143740000Y-83160000D03*
X128500000Y-90780000D03*
X143740000Y-85700000D03*
X128500000Y-88240000D03*
X143740000Y-88240000D03*
X128500000Y-85700000D03*
X143740000Y-90780000D03*
X128500000Y-83160000D03*
X143740000Y-93320000D03*
X128500000Y-80620000D03*
X143740000Y-95860000D03*
X128500000Y-78080000D03*
X143740000Y-98400000D03*
X128500000Y-75540000D03*
X143740000Y-100940000D03*
D14*
X128500000Y-73000000D03*
M02*
