G04 #@! TF.GenerationSoftware,KiCad,Pcbnew,(5.1.2)-2*
G04 #@! TF.CreationDate,2019-10-18T14:43:35+10:00*
G04 #@! TF.ProjectId,KBD_59_4d_ortho_pcb,4b42445f-3539-45f3-9464-5f6f7274686f,rev?*
G04 #@! TF.SameCoordinates,Original*
G04 #@! TF.FileFunction,Profile,NP*
%FSLAX46Y46*%
G04 Gerber Fmt 4.6, Leading zero omitted, Abs format (unit mm)*
G04 Created by KiCad (PCBNEW (5.1.2)-2) date 2019-10-18 14:43:35*
%MOMM*%
%LPD*%
G04 APERTURE LIST*
%ADD10C,0.050000*%
G04 APERTURE END LIST*
D10*
X129000000Y-100000000D02*
X89000000Y-100000000D01*
X89000000Y-102000000D02*
X129000000Y-102000000D01*
X59000000Y-102000000D02*
X31000000Y-102000000D01*
X31000000Y-100000000D02*
X59000000Y-100000000D01*
X59000000Y-100000000D02*
G75*
G02X59000000Y-102000000I0J-1000000D01*
G01*
X89000000Y-102000000D02*
G75*
G02X89000000Y-100000000I0J1000000D01*
G01*
X130000000Y-129000000D02*
G75*
G02X129000000Y-130000000I-1000000J0D01*
G01*
X129000000Y-102000000D02*
G75*
G02X130000000Y-103000000I0J-1000000D01*
G01*
X130000000Y-103000000D02*
X130000000Y-129000000D01*
X30000000Y-103000000D02*
X30000000Y-129000000D01*
X31000000Y-130000000D02*
G75*
G02X30000000Y-129000000I0J1000000D01*
G01*
X30000000Y-103000000D02*
G75*
G02X31000000Y-102000000I1000000J0D01*
G01*
X31000000Y-130000000D02*
X129000000Y-130000000D01*
X31000000Y-100000000D02*
G75*
G02X30000000Y-99000000I0J1000000D01*
G01*
X130000000Y-99000000D02*
G75*
G02X129000000Y-100000000I-1000000J0D01*
G01*
X129000000Y-30000000D02*
G75*
G02X130000000Y-31000000I0J-1000000D01*
G01*
X30000000Y-31000000D02*
G75*
G02X31000000Y-30000000I1000000J0D01*
G01*
X30000000Y-31000000D02*
X30000000Y-99000000D01*
X130000000Y-31000000D02*
X130000000Y-99000000D01*
X31000000Y-30000000D02*
X129000000Y-30000000D01*
M02*
