G04 #@! TF.GenerationSoftware,KiCad,Pcbnew,(5.1.2)-2*
G04 #@! TF.CreationDate,2019-10-18T14:43:34+10:00*
G04 #@! TF.ProjectId,KBD_59_4d_ortho_pcb,4b42445f-3539-45f3-9464-5f6f7274686f,rev?*
G04 #@! TF.SameCoordinates,Original*
G04 #@! TF.FileFunction,Legend,Top*
G04 #@! TF.FilePolarity,Positive*
%FSLAX46Y46*%
G04 Gerber Fmt 4.6, Leading zero omitted, Abs format (unit mm)*
G04 Created by KiCad (PCBNEW (5.1.2)-2) date 2019-10-18 14:43:34*
%MOMM*%
%LPD*%
G04 APERTURE LIST*
%ADD10C,0.450000*%
%ADD11C,0.120000*%
%ADD12C,0.381000*%
%ADD13C,0.150000*%
%ADD14C,0.200000*%
G04 APERTURE END LIST*
D10*
X60892857Y-98357142D02*
X60892857Y-95357142D01*
X61892857Y-97500000D01*
X62892857Y-95357142D01*
X62892857Y-98357142D01*
X64321428Y-98357142D02*
X64321428Y-95357142D01*
X66035714Y-98357142D02*
X64750000Y-96642857D01*
X66035714Y-95357142D02*
X64321428Y-97071428D01*
X67178571Y-95642857D02*
X67321428Y-95500000D01*
X67607142Y-95357142D01*
X68321428Y-95357142D01*
X68607142Y-95500000D01*
X68750000Y-95642857D01*
X68892857Y-95928571D01*
X68892857Y-96214285D01*
X68750000Y-96642857D01*
X67035714Y-98357142D01*
X68892857Y-98357142D01*
X70750000Y-95357142D02*
X71035714Y-95357142D01*
X71321428Y-95500000D01*
X71464285Y-95642857D01*
X71607142Y-95928571D01*
X71750000Y-96500000D01*
X71750000Y-97214285D01*
X71607142Y-97785714D01*
X71464285Y-98071428D01*
X71321428Y-98214285D01*
X71035714Y-98357142D01*
X70750000Y-98357142D01*
X70464285Y-98214285D01*
X70321428Y-98071428D01*
X70178571Y-97785714D01*
X70035714Y-97214285D01*
X70035714Y-96500000D01*
X70178571Y-95928571D01*
X70321428Y-95642857D01*
X70464285Y-95500000D01*
X70750000Y-95357142D01*
X73178571Y-98357142D02*
X73750000Y-98357142D01*
X74035714Y-98214285D01*
X74178571Y-98071428D01*
X74464285Y-97642857D01*
X74607142Y-97071428D01*
X74607142Y-95928571D01*
X74464285Y-95642857D01*
X74321428Y-95500000D01*
X74035714Y-95357142D01*
X73464285Y-95357142D01*
X73178571Y-95500000D01*
X73035714Y-95642857D01*
X72892857Y-95928571D01*
X72892857Y-96642857D01*
X73035714Y-96928571D01*
X73178571Y-97071428D01*
X73464285Y-97214285D01*
X74035714Y-97214285D01*
X74321428Y-97071428D01*
X74464285Y-96928571D01*
X74607142Y-96642857D01*
X76464285Y-95357142D02*
X76750000Y-95357142D01*
X77035714Y-95500000D01*
X77178571Y-95642857D01*
X77321428Y-95928571D01*
X77464285Y-96500000D01*
X77464285Y-97214285D01*
X77321428Y-97785714D01*
X77178571Y-98071428D01*
X77035714Y-98214285D01*
X76750000Y-98357142D01*
X76464285Y-98357142D01*
X76178571Y-98214285D01*
X76035714Y-98071428D01*
X75892857Y-97785714D01*
X75750000Y-97214285D01*
X75750000Y-96500000D01*
X75892857Y-95928571D01*
X76035714Y-95642857D01*
X76178571Y-95500000D01*
X76464285Y-95357142D01*
X81035714Y-98357142D02*
X81035714Y-95357142D01*
X82750000Y-98357142D02*
X81464285Y-96642857D01*
X82750000Y-95357142D02*
X81035714Y-97071428D01*
X85035714Y-96785714D02*
X85464285Y-96928571D01*
X85607142Y-97071428D01*
X85750000Y-97357142D01*
X85750000Y-97785714D01*
X85607142Y-98071428D01*
X85464285Y-98214285D01*
X85178571Y-98357142D01*
X84035714Y-98357142D01*
X84035714Y-95357142D01*
X85035714Y-95357142D01*
X85321428Y-95500000D01*
X85464285Y-95642857D01*
X85607142Y-95928571D01*
X85607142Y-96214285D01*
X85464285Y-96500000D01*
X85321428Y-96642857D01*
X85035714Y-96785714D01*
X84035714Y-96785714D01*
X87035714Y-98357142D02*
X87035714Y-95357142D01*
X87750000Y-95357142D01*
X88178571Y-95500000D01*
X88464285Y-95785714D01*
X88607142Y-96071428D01*
X88750000Y-96642857D01*
X88750000Y-97071428D01*
X88607142Y-97642857D01*
X88464285Y-97928571D01*
X88178571Y-98214285D01*
X87750000Y-98357142D01*
X87035714Y-98357142D01*
D11*
X51080000Y-91210000D02*
X51080000Y-89560000D01*
X30640000Y-91210000D02*
X51080000Y-91210000D01*
X30640000Y-85910000D02*
X30640000Y-91210000D01*
X51080000Y-85910000D02*
X30640000Y-85910000D01*
X51080000Y-87560000D02*
X51080000Y-85910000D01*
X51080000Y-89560000D02*
G75*
G02X51080000Y-87560000I0J1000000D01*
G01*
X123580000Y-38810000D02*
G75*
G02X123580000Y-36810000I0J1000000D01*
G01*
X123580000Y-36810000D02*
X123580000Y-35160000D01*
X123580000Y-35160000D02*
X103140000Y-35160000D01*
X103140000Y-35160000D02*
X103140000Y-40460000D01*
X103140000Y-40460000D02*
X123580000Y-40460000D01*
X123580000Y-40460000D02*
X123580000Y-38810000D01*
X58500000Y-55750000D02*
X58500000Y-54250000D01*
X57250000Y-51750000D02*
X52750000Y-51750000D01*
X51500000Y-54250000D02*
X51500000Y-55750000D01*
X52750000Y-58250000D02*
X57250000Y-58250000D01*
X102330000Y-40460000D02*
X102330000Y-38810000D01*
X81890000Y-40460000D02*
X102330000Y-40460000D01*
X81890000Y-35160000D02*
X81890000Y-40460000D01*
X102330000Y-35160000D02*
X81890000Y-35160000D01*
X102330000Y-36810000D02*
X102330000Y-35160000D01*
X102330000Y-38810000D02*
G75*
G02X102330000Y-36810000I0J1000000D01*
G01*
X48920000Y-40060000D02*
X48189000Y-40060000D01*
X48920000Y-37940000D02*
X48189000Y-37940000D01*
X56920000Y-37940000D02*
X56189000Y-37940000D01*
X56920000Y-40060000D02*
X56189000Y-40060000D01*
X64920000Y-40060000D02*
X64189000Y-40060000D01*
X64920000Y-37940000D02*
X64189000Y-37940000D01*
X72920000Y-37940000D02*
X72189000Y-37940000D01*
X72920000Y-40060000D02*
X72189000Y-40060000D01*
X59240000Y-84750000D02*
X58170000Y-84750000D01*
X53380000Y-84750000D02*
X54450000Y-84750000D01*
X58170000Y-83890000D02*
X54450000Y-83890000D01*
X58170000Y-85610000D02*
X58170000Y-83890000D01*
X54450000Y-85610000D02*
X58170000Y-85610000D01*
X54450000Y-83890000D02*
X54450000Y-85610000D01*
X32750000Y-50000000D02*
X37250000Y-50000000D01*
X31500000Y-46000000D02*
X31500000Y-47500000D01*
X37250000Y-43500000D02*
X32750000Y-43500000D01*
X38500000Y-47500000D02*
X38500000Y-46000000D01*
X48500000Y-47500000D02*
X48500000Y-46000000D01*
X47250000Y-43500000D02*
X42750000Y-43500000D01*
X41500000Y-46000000D02*
X41500000Y-47500000D01*
X42750000Y-50000000D02*
X47250000Y-50000000D01*
X52750000Y-50000000D02*
X57250000Y-50000000D01*
X51500000Y-46000000D02*
X51500000Y-47500000D01*
X57250000Y-43500000D02*
X52750000Y-43500000D01*
X58500000Y-47500000D02*
X58500000Y-46000000D01*
X68500000Y-47500000D02*
X68500000Y-46000000D01*
X67250000Y-43500000D02*
X62750000Y-43500000D01*
X61500000Y-46000000D02*
X61500000Y-47500000D01*
X62750000Y-50000000D02*
X67250000Y-50000000D01*
X72750000Y-50000000D02*
X77250000Y-50000000D01*
X71500000Y-46000000D02*
X71500000Y-47500000D01*
X77250000Y-43500000D02*
X72750000Y-43500000D01*
X78500000Y-47500000D02*
X78500000Y-46000000D01*
X88500000Y-47500000D02*
X88500000Y-46000000D01*
X87250000Y-43500000D02*
X82750000Y-43500000D01*
X81500000Y-46000000D02*
X81500000Y-47500000D01*
X82750000Y-50000000D02*
X87250000Y-50000000D01*
X92750000Y-50000000D02*
X97250000Y-50000000D01*
X91500000Y-46000000D02*
X91500000Y-47500000D01*
X97250000Y-43500000D02*
X92750000Y-43500000D01*
X98500000Y-47500000D02*
X98500000Y-46000000D01*
X108500000Y-47500000D02*
X108500000Y-46000000D01*
X107250000Y-43500000D02*
X102750000Y-43500000D01*
X101500000Y-46000000D02*
X101500000Y-47500000D01*
X102750000Y-50000000D02*
X107250000Y-50000000D01*
X112750000Y-50000000D02*
X117250000Y-50000000D01*
X111500000Y-46000000D02*
X111500000Y-47500000D01*
X117250000Y-43500000D02*
X112750000Y-43500000D01*
X118500000Y-47500000D02*
X118500000Y-46000000D01*
X128500000Y-47500000D02*
X128500000Y-46000000D01*
X127250000Y-43500000D02*
X122750000Y-43500000D01*
X121500000Y-46000000D02*
X121500000Y-47500000D01*
X122750000Y-50000000D02*
X127250000Y-50000000D01*
X38500000Y-55750000D02*
X38500000Y-54250000D01*
X37250000Y-51750000D02*
X32750000Y-51750000D01*
X31500000Y-54250000D02*
X31500000Y-55750000D01*
X32750000Y-58250000D02*
X37250000Y-58250000D01*
X42750000Y-58250000D02*
X47250000Y-58250000D01*
X41500000Y-54250000D02*
X41500000Y-55750000D01*
X47250000Y-51750000D02*
X42750000Y-51750000D01*
X48500000Y-55750000D02*
X48500000Y-54250000D01*
X62750000Y-58250000D02*
X67250000Y-58250000D01*
X61500000Y-54250000D02*
X61500000Y-55750000D01*
X67250000Y-51750000D02*
X62750000Y-51750000D01*
X68500000Y-55750000D02*
X68500000Y-54250000D01*
X78500000Y-55750000D02*
X78500000Y-54250000D01*
X77250000Y-51750000D02*
X72750000Y-51750000D01*
X71500000Y-54250000D02*
X71500000Y-55750000D01*
X72750000Y-58250000D02*
X77250000Y-58250000D01*
X82750000Y-58250000D02*
X87250000Y-58250000D01*
X81500000Y-54250000D02*
X81500000Y-55750000D01*
X87250000Y-51750000D02*
X82750000Y-51750000D01*
X88500000Y-55750000D02*
X88500000Y-54250000D01*
X98500000Y-55750000D02*
X98500000Y-54250000D01*
X97250000Y-51750000D02*
X92750000Y-51750000D01*
X91500000Y-54250000D02*
X91500000Y-55750000D01*
X92750000Y-58250000D02*
X97250000Y-58250000D01*
X102750000Y-58250000D02*
X107250000Y-58250000D01*
X101500000Y-54250000D02*
X101500000Y-55750000D01*
X107250000Y-51750000D02*
X102750000Y-51750000D01*
X108500000Y-55750000D02*
X108500000Y-54250000D01*
X112750000Y-58250000D02*
X117250000Y-58250000D01*
X111500000Y-54250000D02*
X111500000Y-55750000D01*
X117250000Y-51750000D02*
X112750000Y-51750000D01*
X118500000Y-55750000D02*
X118500000Y-54250000D01*
X128500000Y-55750000D02*
X128500000Y-54250000D01*
X127250000Y-51750000D02*
X122750000Y-51750000D01*
X121500000Y-54250000D02*
X121500000Y-55750000D01*
X122750000Y-58250000D02*
X127250000Y-58250000D01*
X32750000Y-66500000D02*
X37250000Y-66500000D01*
X31500000Y-62500000D02*
X31500000Y-64000000D01*
X37250000Y-60000000D02*
X32750000Y-60000000D01*
X38500000Y-64000000D02*
X38500000Y-62500000D01*
X48500000Y-64000000D02*
X48500000Y-62500000D01*
X47250000Y-60000000D02*
X42750000Y-60000000D01*
X41500000Y-62500000D02*
X41500000Y-64000000D01*
X42750000Y-66500000D02*
X47250000Y-66500000D01*
X52750000Y-66500000D02*
X57250000Y-66500000D01*
X51500000Y-62500000D02*
X51500000Y-64000000D01*
X57250000Y-60000000D02*
X52750000Y-60000000D01*
X58500000Y-64000000D02*
X58500000Y-62500000D01*
X68500000Y-64000000D02*
X68500000Y-62500000D01*
X67250000Y-60000000D02*
X62750000Y-60000000D01*
X61500000Y-62500000D02*
X61500000Y-64000000D01*
X62750000Y-66500000D02*
X67250000Y-66500000D01*
X72750000Y-66500000D02*
X77250000Y-66500000D01*
X71500000Y-62500000D02*
X71500000Y-64000000D01*
X77250000Y-60000000D02*
X72750000Y-60000000D01*
X78500000Y-64000000D02*
X78500000Y-62500000D01*
X88500000Y-64000000D02*
X88500000Y-62500000D01*
X87250000Y-60000000D02*
X82750000Y-60000000D01*
X81500000Y-62500000D02*
X81500000Y-64000000D01*
X82750000Y-66500000D02*
X87250000Y-66500000D01*
X92750000Y-66500000D02*
X97250000Y-66500000D01*
X91500000Y-62500000D02*
X91500000Y-64000000D01*
X97250000Y-60000000D02*
X92750000Y-60000000D01*
X98500000Y-64000000D02*
X98500000Y-62500000D01*
X108500000Y-64000000D02*
X108500000Y-62500000D01*
X107250000Y-60000000D02*
X102750000Y-60000000D01*
X101500000Y-62500000D02*
X101500000Y-64000000D01*
X102750000Y-66500000D02*
X107250000Y-66500000D01*
X118500000Y-64000000D02*
X118500000Y-62500000D01*
X117250000Y-60000000D02*
X112750000Y-60000000D01*
X111500000Y-62500000D02*
X111500000Y-64000000D01*
X112750000Y-66500000D02*
X117250000Y-66500000D01*
X122750000Y-66500000D02*
X127250000Y-66500000D01*
X121500000Y-62500000D02*
X121500000Y-64000000D01*
X127250000Y-60000000D02*
X122750000Y-60000000D01*
X128500000Y-64000000D02*
X128500000Y-62500000D01*
X38500000Y-72250000D02*
X38500000Y-70750000D01*
X37250000Y-68250000D02*
X32750000Y-68250000D01*
X31500000Y-70750000D02*
X31500000Y-72250000D01*
X32750000Y-74750000D02*
X37250000Y-74750000D01*
X42750000Y-74750000D02*
X47250000Y-74750000D01*
X41500000Y-70750000D02*
X41500000Y-72250000D01*
X47250000Y-68250000D02*
X42750000Y-68250000D01*
X48500000Y-72250000D02*
X48500000Y-70750000D01*
X58500000Y-72250000D02*
X58500000Y-70750000D01*
X57250000Y-68250000D02*
X52750000Y-68250000D01*
X51500000Y-70750000D02*
X51500000Y-72250000D01*
X52750000Y-74750000D02*
X57250000Y-74750000D01*
X62750000Y-74750000D02*
X67250000Y-74750000D01*
X61500000Y-70750000D02*
X61500000Y-72250000D01*
X67250000Y-68250000D02*
X62750000Y-68250000D01*
X68500000Y-72250000D02*
X68500000Y-70750000D01*
X78500000Y-72250000D02*
X78500000Y-70750000D01*
X77250000Y-68250000D02*
X72750000Y-68250000D01*
X71500000Y-70750000D02*
X71500000Y-72250000D01*
X72750000Y-74750000D02*
X77250000Y-74750000D01*
X82750000Y-74750000D02*
X87250000Y-74750000D01*
X81500000Y-70750000D02*
X81500000Y-72250000D01*
X87250000Y-68250000D02*
X82750000Y-68250000D01*
X88500000Y-72250000D02*
X88500000Y-70750000D01*
X98500000Y-72250000D02*
X98500000Y-70750000D01*
X97250000Y-68250000D02*
X92750000Y-68250000D01*
X91500000Y-70750000D02*
X91500000Y-72250000D01*
X92750000Y-74750000D02*
X97250000Y-74750000D01*
X102750000Y-74750000D02*
X107250000Y-74750000D01*
X101500000Y-70750000D02*
X101500000Y-72250000D01*
X107250000Y-68250000D02*
X102750000Y-68250000D01*
X108500000Y-72250000D02*
X108500000Y-70750000D01*
X112750000Y-74750000D02*
X117250000Y-74750000D01*
X111500000Y-70750000D02*
X111500000Y-72250000D01*
X117250000Y-68250000D02*
X112750000Y-68250000D01*
X118500000Y-72250000D02*
X118500000Y-70750000D01*
X128500000Y-72250000D02*
X128500000Y-70750000D01*
X127250000Y-68250000D02*
X122750000Y-68250000D01*
X121500000Y-70750000D02*
X121500000Y-72250000D01*
X122750000Y-74750000D02*
X127250000Y-74750000D01*
X32750000Y-83000000D02*
X37250000Y-83000000D01*
X31500000Y-79000000D02*
X31500000Y-80500000D01*
X37250000Y-76500000D02*
X32750000Y-76500000D01*
X38500000Y-80500000D02*
X38500000Y-79000000D01*
X48500000Y-80500000D02*
X48500000Y-79000000D01*
X47250000Y-76500000D02*
X42750000Y-76500000D01*
X41500000Y-79000000D02*
X41500000Y-80500000D01*
X42750000Y-83000000D02*
X47250000Y-83000000D01*
X52750000Y-83000000D02*
X57250000Y-83000000D01*
X51500000Y-79000000D02*
X51500000Y-80500000D01*
X57250000Y-76500000D02*
X52750000Y-76500000D01*
X58500000Y-80500000D02*
X58500000Y-79000000D01*
X68500000Y-80500000D02*
X68500000Y-79000000D01*
X67250000Y-76500000D02*
X62750000Y-76500000D01*
X61500000Y-79000000D02*
X61500000Y-80500000D01*
X62750000Y-83000000D02*
X67250000Y-83000000D01*
X72750000Y-83000000D02*
X77250000Y-83000000D01*
X71500000Y-79000000D02*
X71500000Y-80500000D01*
X77250000Y-76500000D02*
X72750000Y-76500000D01*
X78500000Y-80500000D02*
X78500000Y-79000000D01*
X88500000Y-80500000D02*
X88500000Y-79000000D01*
X87250000Y-76500000D02*
X82750000Y-76500000D01*
X81500000Y-79000000D02*
X81500000Y-80500000D01*
X82750000Y-83000000D02*
X87250000Y-83000000D01*
X92750000Y-83000000D02*
X97250000Y-83000000D01*
X91500000Y-79000000D02*
X91500000Y-80500000D01*
X97250000Y-76500000D02*
X92750000Y-76500000D01*
X98500000Y-80500000D02*
X98500000Y-79000000D01*
X108500000Y-80500000D02*
X108500000Y-79000000D01*
X107250000Y-76500000D02*
X102750000Y-76500000D01*
X101500000Y-79000000D02*
X101500000Y-80500000D01*
X102750000Y-83000000D02*
X107250000Y-83000000D01*
X118500000Y-80500000D02*
X118500000Y-79000000D01*
X117250000Y-76500000D02*
X112750000Y-76500000D01*
X111500000Y-79000000D02*
X111500000Y-80500000D01*
X112750000Y-83000000D02*
X117250000Y-83000000D01*
X122750000Y-83000000D02*
X127250000Y-83000000D01*
X121500000Y-79000000D02*
X121500000Y-80500000D01*
X127250000Y-76500000D02*
X122750000Y-76500000D01*
X128500000Y-80500000D02*
X128500000Y-79000000D01*
X54000000Y-93000000D02*
X58500000Y-93000000D01*
X52750000Y-89000000D02*
X52750000Y-90500000D01*
X58500000Y-86500000D02*
X54000000Y-86500000D01*
X59750000Y-90500000D02*
X59750000Y-89000000D01*
X70000000Y-90500000D02*
X70000000Y-89000000D01*
X68750000Y-86500000D02*
X64250000Y-86500000D01*
X63000000Y-89000000D02*
X63000000Y-90500000D01*
X64250000Y-93000000D02*
X68750000Y-93000000D01*
X74500000Y-93000000D02*
X79000000Y-93000000D01*
X73250000Y-89000000D02*
X73250000Y-90500000D01*
X79000000Y-86500000D02*
X74500000Y-86500000D01*
X80250000Y-90500000D02*
X80250000Y-89000000D01*
X90500000Y-90500000D02*
X90500000Y-89000000D01*
X89250000Y-86500000D02*
X84750000Y-86500000D01*
X83500000Y-89000000D02*
X83500000Y-90500000D01*
X84750000Y-93000000D02*
X89250000Y-93000000D01*
X99500000Y-95500000D02*
X99500000Y-91000000D01*
X95500000Y-96750000D02*
X97000000Y-96750000D01*
X93000000Y-91000000D02*
X93000000Y-95500000D01*
X97000000Y-89750000D02*
X95500000Y-89750000D01*
X108500000Y-88750000D02*
X108500000Y-87250000D01*
X107250000Y-84750000D02*
X102750000Y-84750000D01*
X101500000Y-87250000D02*
X101500000Y-88750000D01*
X102750000Y-91250000D02*
X107250000Y-91250000D01*
X102750000Y-99000000D02*
X107250000Y-99000000D01*
X101500000Y-95000000D02*
X101500000Y-96500000D01*
X107250000Y-92500000D02*
X102750000Y-92500000D01*
X108500000Y-96500000D02*
X108500000Y-95000000D01*
X114500000Y-89750000D02*
X113000000Y-89750000D01*
X110500000Y-91000000D02*
X110500000Y-95500000D01*
X113000000Y-96750000D02*
X114500000Y-96750000D01*
X117000000Y-95500000D02*
X117000000Y-91000000D01*
X123000000Y-85750000D02*
X121500000Y-85750000D01*
X119000000Y-87000000D02*
X119000000Y-91500000D01*
X121500000Y-92750000D02*
X123000000Y-92750000D01*
X125500000Y-91500000D02*
X125500000Y-87000000D01*
X37000000Y-34500000D02*
X37000000Y-39000000D01*
X41000000Y-33250000D02*
X39500000Y-33250000D01*
X43500000Y-39000000D02*
X43500000Y-34500000D01*
X39500000Y-40250000D02*
X41000000Y-40250000D01*
X51650000Y-42610000D02*
X51650000Y-40890000D01*
X51650000Y-40890000D02*
X47930000Y-40890000D01*
X47930000Y-40890000D02*
X47930000Y-42610000D01*
X47930000Y-42610000D02*
X51650000Y-42610000D01*
X52720000Y-41750000D02*
X51650000Y-41750000D01*
X46860000Y-41750000D02*
X47930000Y-41750000D01*
X62490000Y-41750000D02*
X61420000Y-41750000D01*
X56630000Y-41750000D02*
X57700000Y-41750000D01*
X61420000Y-40890000D02*
X57700000Y-40890000D01*
X61420000Y-42610000D02*
X61420000Y-40890000D01*
X57700000Y-42610000D02*
X61420000Y-42610000D01*
X57700000Y-40890000D02*
X57700000Y-42610000D01*
X67450000Y-40890000D02*
X67450000Y-42610000D01*
X67450000Y-42610000D02*
X71170000Y-42610000D01*
X71170000Y-42610000D02*
X71170000Y-40890000D01*
X71170000Y-40890000D02*
X67450000Y-40890000D01*
X66380000Y-41750000D02*
X67450000Y-41750000D01*
X72240000Y-41750000D02*
X71170000Y-41750000D01*
X79490000Y-36250000D02*
X78420000Y-36250000D01*
X73630000Y-36250000D02*
X74700000Y-36250000D01*
X78420000Y-35390000D02*
X74700000Y-35390000D01*
X78420000Y-37110000D02*
X78420000Y-35390000D01*
X74700000Y-37110000D02*
X78420000Y-37110000D01*
X74700000Y-35390000D02*
X74700000Y-37110000D01*
X37870000Y-98530000D02*
X37870000Y-97200000D01*
X39200000Y-98530000D02*
X37870000Y-98530000D01*
X40470000Y-98530000D02*
X40470000Y-95870000D01*
X40470000Y-95870000D02*
X58310000Y-95870000D01*
X40470000Y-98530000D02*
X58310000Y-98530000D01*
X58310000Y-98530000D02*
X58310000Y-95870000D01*
X45170000Y-34130000D02*
X45170000Y-32800000D01*
X46500000Y-34130000D02*
X45170000Y-34130000D01*
X47770000Y-34130000D02*
X47770000Y-31470000D01*
X47770000Y-31470000D02*
X80850000Y-31470000D01*
X47770000Y-34130000D02*
X80850000Y-34130000D01*
X80850000Y-34130000D02*
X80850000Y-31470000D01*
D12*
X41150000Y-110650000D02*
X42928000Y-110650000D01*
X52072000Y-110650000D02*
X53850000Y-110650000D01*
X53850000Y-110650000D02*
X53850000Y-112428000D01*
X53850000Y-121572000D02*
X53850000Y-123350000D01*
X53850000Y-123350000D02*
X52072000Y-123350000D01*
X42928000Y-123350000D02*
X41150000Y-123350000D01*
X41150000Y-123350000D02*
X41150000Y-121572000D01*
X41150000Y-112428000D02*
X41150000Y-110650000D01*
D11*
X122170000Y-109670000D02*
X123500000Y-109670000D01*
X122170000Y-111000000D02*
X122170000Y-109670000D01*
X122170000Y-112270000D02*
X124830000Y-112270000D01*
X124830000Y-112270000D02*
X124830000Y-122490000D01*
X122170000Y-112270000D02*
X122170000Y-122490000D01*
X122170000Y-122490000D02*
X124830000Y-122490000D01*
D12*
X61650000Y-106150000D02*
X63428000Y-106150000D01*
X72572000Y-106150000D02*
X74350000Y-106150000D01*
X74350000Y-106150000D02*
X74350000Y-107928000D01*
X74350000Y-117072000D02*
X74350000Y-118850000D01*
X74350000Y-118850000D02*
X72572000Y-118850000D01*
X63428000Y-118850000D02*
X61650000Y-118850000D01*
X61650000Y-118850000D02*
X61650000Y-117072000D01*
X61650000Y-107928000D02*
X61650000Y-106150000D01*
X82150000Y-111428000D02*
X82150000Y-109650000D01*
X82150000Y-122350000D02*
X82150000Y-120572000D01*
X83928000Y-122350000D02*
X82150000Y-122350000D01*
X94850000Y-122350000D02*
X93072000Y-122350000D01*
X94850000Y-120572000D02*
X94850000Y-122350000D01*
X94850000Y-109650000D02*
X94850000Y-111428000D01*
X93072000Y-109650000D02*
X94850000Y-109650000D01*
X82150000Y-109650000D02*
X83928000Y-109650000D01*
X102650000Y-113650000D02*
X104428000Y-113650000D01*
X113572000Y-113650000D02*
X115350000Y-113650000D01*
X115350000Y-113650000D02*
X115350000Y-115428000D01*
X115350000Y-124572000D02*
X115350000Y-126350000D01*
X115350000Y-126350000D02*
X113572000Y-126350000D01*
X104428000Y-126350000D02*
X102650000Y-126350000D01*
X102650000Y-126350000D02*
X102650000Y-124572000D01*
X102650000Y-115428000D02*
X102650000Y-113650000D01*
D13*
X47988095Y-88012380D02*
X47988095Y-88821904D01*
X48035714Y-88917142D01*
X48083333Y-88964761D01*
X48178571Y-89012380D01*
X48369047Y-89012380D01*
X48464285Y-88964761D01*
X48511904Y-88917142D01*
X48559523Y-88821904D01*
X48559523Y-88012380D01*
X49559523Y-89012380D02*
X48988095Y-89012380D01*
X49273809Y-89012380D02*
X49273809Y-88012380D01*
X49178571Y-88155238D01*
X49083333Y-88250476D01*
X48988095Y-88298095D01*
X124488095Y-37452380D02*
X124488095Y-38261904D01*
X124535714Y-38357142D01*
X124583333Y-38404761D01*
X124678571Y-38452380D01*
X124869047Y-38452380D01*
X124964285Y-38404761D01*
X125011904Y-38357142D01*
X125059523Y-38261904D01*
X125059523Y-37452380D01*
X125440476Y-37452380D02*
X126059523Y-37452380D01*
X125726190Y-37833333D01*
X125869047Y-37833333D01*
X125964285Y-37880952D01*
X126011904Y-37928571D01*
X126059523Y-38023809D01*
X126059523Y-38261904D01*
X126011904Y-38357142D01*
X125964285Y-38404761D01*
X125869047Y-38452380D01*
X125583333Y-38452380D01*
X125488095Y-38404761D01*
X125440476Y-38357142D01*
X53740476Y-55404761D02*
X53883333Y-55452380D01*
X54121428Y-55452380D01*
X54216666Y-55404761D01*
X54264285Y-55357142D01*
X54311904Y-55261904D01*
X54311904Y-55166666D01*
X54264285Y-55071428D01*
X54216666Y-55023809D01*
X54121428Y-54976190D01*
X53930952Y-54928571D01*
X53835714Y-54880952D01*
X53788095Y-54833333D01*
X53740476Y-54738095D01*
X53740476Y-54642857D01*
X53788095Y-54547619D01*
X53835714Y-54500000D01*
X53930952Y-54452380D01*
X54169047Y-54452380D01*
X54311904Y-54500000D01*
X54645238Y-54452380D02*
X54883333Y-55452380D01*
X55073809Y-54738095D01*
X55264285Y-55452380D01*
X55502380Y-54452380D01*
X56407142Y-55452380D02*
X55835714Y-55452380D01*
X56121428Y-55452380D02*
X56121428Y-54452380D01*
X56026190Y-54595238D01*
X55930952Y-54690476D01*
X55835714Y-54738095D01*
X56788095Y-54547619D02*
X56835714Y-54500000D01*
X56930952Y-54452380D01*
X57169047Y-54452380D01*
X57264285Y-54500000D01*
X57311904Y-54547619D01*
X57359523Y-54642857D01*
X57359523Y-54738095D01*
X57311904Y-54880952D01*
X56740476Y-55452380D01*
X57359523Y-55452380D01*
X100488095Y-35452380D02*
X100488095Y-36261904D01*
X100535714Y-36357142D01*
X100583333Y-36404761D01*
X100678571Y-36452380D01*
X100869047Y-36452380D01*
X100964285Y-36404761D01*
X101011904Y-36357142D01*
X101059523Y-36261904D01*
X101059523Y-35452380D01*
X101488095Y-35547619D02*
X101535714Y-35500000D01*
X101630952Y-35452380D01*
X101869047Y-35452380D01*
X101964285Y-35500000D01*
X102011904Y-35547619D01*
X102059523Y-35642857D01*
X102059523Y-35738095D01*
X102011904Y-35880952D01*
X101440476Y-36452380D01*
X102059523Y-36452380D01*
X51511904Y-39452380D02*
X51511904Y-38452380D01*
X51750000Y-38452380D01*
X51892857Y-38500000D01*
X51988095Y-38595238D01*
X52035714Y-38690476D01*
X52083333Y-38880952D01*
X52083333Y-39023809D01*
X52035714Y-39214285D01*
X51988095Y-39309523D01*
X51892857Y-39404761D01*
X51750000Y-39452380D01*
X51511904Y-39452380D01*
X52702380Y-38452380D02*
X52797619Y-38452380D01*
X52892857Y-38500000D01*
X52940476Y-38547619D01*
X52988095Y-38642857D01*
X53035714Y-38833333D01*
X53035714Y-39071428D01*
X52988095Y-39261904D01*
X52940476Y-39357142D01*
X52892857Y-39404761D01*
X52797619Y-39452380D01*
X52702380Y-39452380D01*
X52607142Y-39404761D01*
X52559523Y-39357142D01*
X52511904Y-39261904D01*
X52464285Y-39071428D01*
X52464285Y-38833333D01*
X52511904Y-38642857D01*
X52559523Y-38547619D01*
X52607142Y-38500000D01*
X52702380Y-38452380D01*
X59511904Y-39452380D02*
X59511904Y-38452380D01*
X59750000Y-38452380D01*
X59892857Y-38500000D01*
X59988095Y-38595238D01*
X60035714Y-38690476D01*
X60083333Y-38880952D01*
X60083333Y-39023809D01*
X60035714Y-39214285D01*
X59988095Y-39309523D01*
X59892857Y-39404761D01*
X59750000Y-39452380D01*
X59511904Y-39452380D01*
X61035714Y-39452380D02*
X60464285Y-39452380D01*
X60750000Y-39452380D02*
X60750000Y-38452380D01*
X60654761Y-38595238D01*
X60559523Y-38690476D01*
X60464285Y-38738095D01*
X67511904Y-39452380D02*
X67511904Y-38452380D01*
X67750000Y-38452380D01*
X67892857Y-38500000D01*
X67988095Y-38595238D01*
X68035714Y-38690476D01*
X68083333Y-38880952D01*
X68083333Y-39023809D01*
X68035714Y-39214285D01*
X67988095Y-39309523D01*
X67892857Y-39404761D01*
X67750000Y-39452380D01*
X67511904Y-39452380D01*
X68464285Y-38547619D02*
X68511904Y-38500000D01*
X68607142Y-38452380D01*
X68845238Y-38452380D01*
X68940476Y-38500000D01*
X68988095Y-38547619D01*
X69035714Y-38642857D01*
X69035714Y-38738095D01*
X68988095Y-38880952D01*
X68416666Y-39452380D01*
X69035714Y-39452380D01*
X75511904Y-39452380D02*
X75511904Y-38452380D01*
X75750000Y-38452380D01*
X75892857Y-38500000D01*
X75988095Y-38595238D01*
X76035714Y-38690476D01*
X76083333Y-38880952D01*
X76083333Y-39023809D01*
X76035714Y-39214285D01*
X75988095Y-39309523D01*
X75892857Y-39404761D01*
X75750000Y-39452380D01*
X75511904Y-39452380D01*
X76416666Y-38452380D02*
X77035714Y-38452380D01*
X76702380Y-38833333D01*
X76845238Y-38833333D01*
X76940476Y-38880952D01*
X76988095Y-38928571D01*
X77035714Y-39023809D01*
X77035714Y-39261904D01*
X76988095Y-39357142D01*
X76940476Y-39404761D01*
X76845238Y-39452380D01*
X76559523Y-39452380D01*
X76464285Y-39404761D01*
X76416666Y-39357142D01*
X56143333Y-83342380D02*
X55810000Y-82866190D01*
X55571904Y-83342380D02*
X55571904Y-82342380D01*
X55952857Y-82342380D01*
X56048095Y-82390000D01*
X56095714Y-82437619D01*
X56143333Y-82532857D01*
X56143333Y-82675714D01*
X56095714Y-82770952D01*
X56048095Y-82818571D01*
X55952857Y-82866190D01*
X55571904Y-82866190D01*
X57000476Y-82675714D02*
X57000476Y-83342380D01*
X56762380Y-82294761D02*
X56524285Y-83009047D01*
X57143333Y-83009047D01*
X34216666Y-47154761D02*
X34359523Y-47202380D01*
X34597619Y-47202380D01*
X34692857Y-47154761D01*
X34740476Y-47107142D01*
X34788095Y-47011904D01*
X34788095Y-46916666D01*
X34740476Y-46821428D01*
X34692857Y-46773809D01*
X34597619Y-46726190D01*
X34407142Y-46678571D01*
X34311904Y-46630952D01*
X34264285Y-46583333D01*
X34216666Y-46488095D01*
X34216666Y-46392857D01*
X34264285Y-46297619D01*
X34311904Y-46250000D01*
X34407142Y-46202380D01*
X34645238Y-46202380D01*
X34788095Y-46250000D01*
X35121428Y-46202380D02*
X35359523Y-47202380D01*
X35550000Y-46488095D01*
X35740476Y-47202380D01*
X35978571Y-46202380D01*
X36550000Y-46202380D02*
X36645238Y-46202380D01*
X36740476Y-46250000D01*
X36788095Y-46297619D01*
X36835714Y-46392857D01*
X36883333Y-46583333D01*
X36883333Y-46821428D01*
X36835714Y-47011904D01*
X36788095Y-47107142D01*
X36740476Y-47154761D01*
X36645238Y-47202380D01*
X36550000Y-47202380D01*
X36454761Y-47154761D01*
X36407142Y-47107142D01*
X36359523Y-47011904D01*
X36311904Y-46821428D01*
X36311904Y-46583333D01*
X36359523Y-46392857D01*
X36407142Y-46297619D01*
X36454761Y-46250000D01*
X36550000Y-46202380D01*
X44216666Y-47154761D02*
X44359523Y-47202380D01*
X44597619Y-47202380D01*
X44692857Y-47154761D01*
X44740476Y-47107142D01*
X44788095Y-47011904D01*
X44788095Y-46916666D01*
X44740476Y-46821428D01*
X44692857Y-46773809D01*
X44597619Y-46726190D01*
X44407142Y-46678571D01*
X44311904Y-46630952D01*
X44264285Y-46583333D01*
X44216666Y-46488095D01*
X44216666Y-46392857D01*
X44264285Y-46297619D01*
X44311904Y-46250000D01*
X44407142Y-46202380D01*
X44645238Y-46202380D01*
X44788095Y-46250000D01*
X45121428Y-46202380D02*
X45359523Y-47202380D01*
X45550000Y-46488095D01*
X45740476Y-47202380D01*
X45978571Y-46202380D01*
X46883333Y-47202380D02*
X46311904Y-47202380D01*
X46597619Y-47202380D02*
X46597619Y-46202380D01*
X46502380Y-46345238D01*
X46407142Y-46440476D01*
X46311904Y-46488095D01*
X54216666Y-47154761D02*
X54359523Y-47202380D01*
X54597619Y-47202380D01*
X54692857Y-47154761D01*
X54740476Y-47107142D01*
X54788095Y-47011904D01*
X54788095Y-46916666D01*
X54740476Y-46821428D01*
X54692857Y-46773809D01*
X54597619Y-46726190D01*
X54407142Y-46678571D01*
X54311904Y-46630952D01*
X54264285Y-46583333D01*
X54216666Y-46488095D01*
X54216666Y-46392857D01*
X54264285Y-46297619D01*
X54311904Y-46250000D01*
X54407142Y-46202380D01*
X54645238Y-46202380D01*
X54788095Y-46250000D01*
X55121428Y-46202380D02*
X55359523Y-47202380D01*
X55550000Y-46488095D01*
X55740476Y-47202380D01*
X55978571Y-46202380D01*
X56311904Y-46297619D02*
X56359523Y-46250000D01*
X56454761Y-46202380D01*
X56692857Y-46202380D01*
X56788095Y-46250000D01*
X56835714Y-46297619D01*
X56883333Y-46392857D01*
X56883333Y-46488095D01*
X56835714Y-46630952D01*
X56264285Y-47202380D01*
X56883333Y-47202380D01*
X64216666Y-47154761D02*
X64359523Y-47202380D01*
X64597619Y-47202380D01*
X64692857Y-47154761D01*
X64740476Y-47107142D01*
X64788095Y-47011904D01*
X64788095Y-46916666D01*
X64740476Y-46821428D01*
X64692857Y-46773809D01*
X64597619Y-46726190D01*
X64407142Y-46678571D01*
X64311904Y-46630952D01*
X64264285Y-46583333D01*
X64216666Y-46488095D01*
X64216666Y-46392857D01*
X64264285Y-46297619D01*
X64311904Y-46250000D01*
X64407142Y-46202380D01*
X64645238Y-46202380D01*
X64788095Y-46250000D01*
X65121428Y-46202380D02*
X65359523Y-47202380D01*
X65550000Y-46488095D01*
X65740476Y-47202380D01*
X65978571Y-46202380D01*
X66264285Y-46202380D02*
X66883333Y-46202380D01*
X66550000Y-46583333D01*
X66692857Y-46583333D01*
X66788095Y-46630952D01*
X66835714Y-46678571D01*
X66883333Y-46773809D01*
X66883333Y-47011904D01*
X66835714Y-47107142D01*
X66788095Y-47154761D01*
X66692857Y-47202380D01*
X66407142Y-47202380D01*
X66311904Y-47154761D01*
X66264285Y-47107142D01*
X74216666Y-47154761D02*
X74359523Y-47202380D01*
X74597619Y-47202380D01*
X74692857Y-47154761D01*
X74740476Y-47107142D01*
X74788095Y-47011904D01*
X74788095Y-46916666D01*
X74740476Y-46821428D01*
X74692857Y-46773809D01*
X74597619Y-46726190D01*
X74407142Y-46678571D01*
X74311904Y-46630952D01*
X74264285Y-46583333D01*
X74216666Y-46488095D01*
X74216666Y-46392857D01*
X74264285Y-46297619D01*
X74311904Y-46250000D01*
X74407142Y-46202380D01*
X74645238Y-46202380D01*
X74788095Y-46250000D01*
X75121428Y-46202380D02*
X75359523Y-47202380D01*
X75550000Y-46488095D01*
X75740476Y-47202380D01*
X75978571Y-46202380D01*
X76788095Y-46535714D02*
X76788095Y-47202380D01*
X76550000Y-46154761D02*
X76311904Y-46869047D01*
X76930952Y-46869047D01*
X84216666Y-47154761D02*
X84359523Y-47202380D01*
X84597619Y-47202380D01*
X84692857Y-47154761D01*
X84740476Y-47107142D01*
X84788095Y-47011904D01*
X84788095Y-46916666D01*
X84740476Y-46821428D01*
X84692857Y-46773809D01*
X84597619Y-46726190D01*
X84407142Y-46678571D01*
X84311904Y-46630952D01*
X84264285Y-46583333D01*
X84216666Y-46488095D01*
X84216666Y-46392857D01*
X84264285Y-46297619D01*
X84311904Y-46250000D01*
X84407142Y-46202380D01*
X84645238Y-46202380D01*
X84788095Y-46250000D01*
X85121428Y-46202380D02*
X85359523Y-47202380D01*
X85550000Y-46488095D01*
X85740476Y-47202380D01*
X85978571Y-46202380D01*
X86835714Y-46202380D02*
X86359523Y-46202380D01*
X86311904Y-46678571D01*
X86359523Y-46630952D01*
X86454761Y-46583333D01*
X86692857Y-46583333D01*
X86788095Y-46630952D01*
X86835714Y-46678571D01*
X86883333Y-46773809D01*
X86883333Y-47011904D01*
X86835714Y-47107142D01*
X86788095Y-47154761D01*
X86692857Y-47202380D01*
X86454761Y-47202380D01*
X86359523Y-47154761D01*
X86311904Y-47107142D01*
X94216666Y-47154761D02*
X94359523Y-47202380D01*
X94597619Y-47202380D01*
X94692857Y-47154761D01*
X94740476Y-47107142D01*
X94788095Y-47011904D01*
X94788095Y-46916666D01*
X94740476Y-46821428D01*
X94692857Y-46773809D01*
X94597619Y-46726190D01*
X94407142Y-46678571D01*
X94311904Y-46630952D01*
X94264285Y-46583333D01*
X94216666Y-46488095D01*
X94216666Y-46392857D01*
X94264285Y-46297619D01*
X94311904Y-46250000D01*
X94407142Y-46202380D01*
X94645238Y-46202380D01*
X94788095Y-46250000D01*
X95121428Y-46202380D02*
X95359523Y-47202380D01*
X95550000Y-46488095D01*
X95740476Y-47202380D01*
X95978571Y-46202380D01*
X96788095Y-46202380D02*
X96597619Y-46202380D01*
X96502380Y-46250000D01*
X96454761Y-46297619D01*
X96359523Y-46440476D01*
X96311904Y-46630952D01*
X96311904Y-47011904D01*
X96359523Y-47107142D01*
X96407142Y-47154761D01*
X96502380Y-47202380D01*
X96692857Y-47202380D01*
X96788095Y-47154761D01*
X96835714Y-47107142D01*
X96883333Y-47011904D01*
X96883333Y-46773809D01*
X96835714Y-46678571D01*
X96788095Y-46630952D01*
X96692857Y-46583333D01*
X96502380Y-46583333D01*
X96407142Y-46630952D01*
X96359523Y-46678571D01*
X96311904Y-46773809D01*
X104216666Y-47154761D02*
X104359523Y-47202380D01*
X104597619Y-47202380D01*
X104692857Y-47154761D01*
X104740476Y-47107142D01*
X104788095Y-47011904D01*
X104788095Y-46916666D01*
X104740476Y-46821428D01*
X104692857Y-46773809D01*
X104597619Y-46726190D01*
X104407142Y-46678571D01*
X104311904Y-46630952D01*
X104264285Y-46583333D01*
X104216666Y-46488095D01*
X104216666Y-46392857D01*
X104264285Y-46297619D01*
X104311904Y-46250000D01*
X104407142Y-46202380D01*
X104645238Y-46202380D01*
X104788095Y-46250000D01*
X105121428Y-46202380D02*
X105359523Y-47202380D01*
X105550000Y-46488095D01*
X105740476Y-47202380D01*
X105978571Y-46202380D01*
X106264285Y-46202380D02*
X106930952Y-46202380D01*
X106502380Y-47202380D01*
X114216666Y-47154761D02*
X114359523Y-47202380D01*
X114597619Y-47202380D01*
X114692857Y-47154761D01*
X114740476Y-47107142D01*
X114788095Y-47011904D01*
X114788095Y-46916666D01*
X114740476Y-46821428D01*
X114692857Y-46773809D01*
X114597619Y-46726190D01*
X114407142Y-46678571D01*
X114311904Y-46630952D01*
X114264285Y-46583333D01*
X114216666Y-46488095D01*
X114216666Y-46392857D01*
X114264285Y-46297619D01*
X114311904Y-46250000D01*
X114407142Y-46202380D01*
X114645238Y-46202380D01*
X114788095Y-46250000D01*
X115121428Y-46202380D02*
X115359523Y-47202380D01*
X115550000Y-46488095D01*
X115740476Y-47202380D01*
X115978571Y-46202380D01*
X116502380Y-46630952D02*
X116407142Y-46583333D01*
X116359523Y-46535714D01*
X116311904Y-46440476D01*
X116311904Y-46392857D01*
X116359523Y-46297619D01*
X116407142Y-46250000D01*
X116502380Y-46202380D01*
X116692857Y-46202380D01*
X116788095Y-46250000D01*
X116835714Y-46297619D01*
X116883333Y-46392857D01*
X116883333Y-46440476D01*
X116835714Y-46535714D01*
X116788095Y-46583333D01*
X116692857Y-46630952D01*
X116502380Y-46630952D01*
X116407142Y-46678571D01*
X116359523Y-46726190D01*
X116311904Y-46821428D01*
X116311904Y-47011904D01*
X116359523Y-47107142D01*
X116407142Y-47154761D01*
X116502380Y-47202380D01*
X116692857Y-47202380D01*
X116788095Y-47154761D01*
X116835714Y-47107142D01*
X116883333Y-47011904D01*
X116883333Y-46821428D01*
X116835714Y-46726190D01*
X116788095Y-46678571D01*
X116692857Y-46630952D01*
X124216666Y-47154761D02*
X124359523Y-47202380D01*
X124597619Y-47202380D01*
X124692857Y-47154761D01*
X124740476Y-47107142D01*
X124788095Y-47011904D01*
X124788095Y-46916666D01*
X124740476Y-46821428D01*
X124692857Y-46773809D01*
X124597619Y-46726190D01*
X124407142Y-46678571D01*
X124311904Y-46630952D01*
X124264285Y-46583333D01*
X124216666Y-46488095D01*
X124216666Y-46392857D01*
X124264285Y-46297619D01*
X124311904Y-46250000D01*
X124407142Y-46202380D01*
X124645238Y-46202380D01*
X124788095Y-46250000D01*
X125121428Y-46202380D02*
X125359523Y-47202380D01*
X125550000Y-46488095D01*
X125740476Y-47202380D01*
X125978571Y-46202380D01*
X126407142Y-47202380D02*
X126597619Y-47202380D01*
X126692857Y-47154761D01*
X126740476Y-47107142D01*
X126835714Y-46964285D01*
X126883333Y-46773809D01*
X126883333Y-46392857D01*
X126835714Y-46297619D01*
X126788095Y-46250000D01*
X126692857Y-46202380D01*
X126502380Y-46202380D01*
X126407142Y-46250000D01*
X126359523Y-46297619D01*
X126311904Y-46392857D01*
X126311904Y-46630952D01*
X126359523Y-46726190D01*
X126407142Y-46773809D01*
X126502380Y-46821428D01*
X126692857Y-46821428D01*
X126788095Y-46773809D01*
X126835714Y-46726190D01*
X126883333Y-46630952D01*
X33740476Y-55404761D02*
X33883333Y-55452380D01*
X34121428Y-55452380D01*
X34216666Y-55404761D01*
X34264285Y-55357142D01*
X34311904Y-55261904D01*
X34311904Y-55166666D01*
X34264285Y-55071428D01*
X34216666Y-55023809D01*
X34121428Y-54976190D01*
X33930952Y-54928571D01*
X33835714Y-54880952D01*
X33788095Y-54833333D01*
X33740476Y-54738095D01*
X33740476Y-54642857D01*
X33788095Y-54547619D01*
X33835714Y-54500000D01*
X33930952Y-54452380D01*
X34169047Y-54452380D01*
X34311904Y-54500000D01*
X34645238Y-54452380D02*
X34883333Y-55452380D01*
X35073809Y-54738095D01*
X35264285Y-55452380D01*
X35502380Y-54452380D01*
X36407142Y-55452380D02*
X35835714Y-55452380D01*
X36121428Y-55452380D02*
X36121428Y-54452380D01*
X36026190Y-54595238D01*
X35930952Y-54690476D01*
X35835714Y-54738095D01*
X37026190Y-54452380D02*
X37121428Y-54452380D01*
X37216666Y-54500000D01*
X37264285Y-54547619D01*
X37311904Y-54642857D01*
X37359523Y-54833333D01*
X37359523Y-55071428D01*
X37311904Y-55261904D01*
X37264285Y-55357142D01*
X37216666Y-55404761D01*
X37121428Y-55452380D01*
X37026190Y-55452380D01*
X36930952Y-55404761D01*
X36883333Y-55357142D01*
X36835714Y-55261904D01*
X36788095Y-55071428D01*
X36788095Y-54833333D01*
X36835714Y-54642857D01*
X36883333Y-54547619D01*
X36930952Y-54500000D01*
X37026190Y-54452380D01*
X43740476Y-55404761D02*
X43883333Y-55452380D01*
X44121428Y-55452380D01*
X44216666Y-55404761D01*
X44264285Y-55357142D01*
X44311904Y-55261904D01*
X44311904Y-55166666D01*
X44264285Y-55071428D01*
X44216666Y-55023809D01*
X44121428Y-54976190D01*
X43930952Y-54928571D01*
X43835714Y-54880952D01*
X43788095Y-54833333D01*
X43740476Y-54738095D01*
X43740476Y-54642857D01*
X43788095Y-54547619D01*
X43835714Y-54500000D01*
X43930952Y-54452380D01*
X44169047Y-54452380D01*
X44311904Y-54500000D01*
X44645238Y-54452380D02*
X44883333Y-55452380D01*
X45073809Y-54738095D01*
X45264285Y-55452380D01*
X45502380Y-54452380D01*
X46407142Y-55452380D02*
X45835714Y-55452380D01*
X46121428Y-55452380D02*
X46121428Y-54452380D01*
X46026190Y-54595238D01*
X45930952Y-54690476D01*
X45835714Y-54738095D01*
X47359523Y-55452380D02*
X46788095Y-55452380D01*
X47073809Y-55452380D02*
X47073809Y-54452380D01*
X46978571Y-54595238D01*
X46883333Y-54690476D01*
X46788095Y-54738095D01*
X63740476Y-55404761D02*
X63883333Y-55452380D01*
X64121428Y-55452380D01*
X64216666Y-55404761D01*
X64264285Y-55357142D01*
X64311904Y-55261904D01*
X64311904Y-55166666D01*
X64264285Y-55071428D01*
X64216666Y-55023809D01*
X64121428Y-54976190D01*
X63930952Y-54928571D01*
X63835714Y-54880952D01*
X63788095Y-54833333D01*
X63740476Y-54738095D01*
X63740476Y-54642857D01*
X63788095Y-54547619D01*
X63835714Y-54500000D01*
X63930952Y-54452380D01*
X64169047Y-54452380D01*
X64311904Y-54500000D01*
X64645238Y-54452380D02*
X64883333Y-55452380D01*
X65073809Y-54738095D01*
X65264285Y-55452380D01*
X65502380Y-54452380D01*
X66407142Y-55452380D02*
X65835714Y-55452380D01*
X66121428Y-55452380D02*
X66121428Y-54452380D01*
X66026190Y-54595238D01*
X65930952Y-54690476D01*
X65835714Y-54738095D01*
X66740476Y-54452380D02*
X67359523Y-54452380D01*
X67026190Y-54833333D01*
X67169047Y-54833333D01*
X67264285Y-54880952D01*
X67311904Y-54928571D01*
X67359523Y-55023809D01*
X67359523Y-55261904D01*
X67311904Y-55357142D01*
X67264285Y-55404761D01*
X67169047Y-55452380D01*
X66883333Y-55452380D01*
X66788095Y-55404761D01*
X66740476Y-55357142D01*
X73740476Y-55404761D02*
X73883333Y-55452380D01*
X74121428Y-55452380D01*
X74216666Y-55404761D01*
X74264285Y-55357142D01*
X74311904Y-55261904D01*
X74311904Y-55166666D01*
X74264285Y-55071428D01*
X74216666Y-55023809D01*
X74121428Y-54976190D01*
X73930952Y-54928571D01*
X73835714Y-54880952D01*
X73788095Y-54833333D01*
X73740476Y-54738095D01*
X73740476Y-54642857D01*
X73788095Y-54547619D01*
X73835714Y-54500000D01*
X73930952Y-54452380D01*
X74169047Y-54452380D01*
X74311904Y-54500000D01*
X74645238Y-54452380D02*
X74883333Y-55452380D01*
X75073809Y-54738095D01*
X75264285Y-55452380D01*
X75502380Y-54452380D01*
X76407142Y-55452380D02*
X75835714Y-55452380D01*
X76121428Y-55452380D02*
X76121428Y-54452380D01*
X76026190Y-54595238D01*
X75930952Y-54690476D01*
X75835714Y-54738095D01*
X77264285Y-54785714D02*
X77264285Y-55452380D01*
X77026190Y-54404761D02*
X76788095Y-55119047D01*
X77407142Y-55119047D01*
X83740476Y-55404761D02*
X83883333Y-55452380D01*
X84121428Y-55452380D01*
X84216666Y-55404761D01*
X84264285Y-55357142D01*
X84311904Y-55261904D01*
X84311904Y-55166666D01*
X84264285Y-55071428D01*
X84216666Y-55023809D01*
X84121428Y-54976190D01*
X83930952Y-54928571D01*
X83835714Y-54880952D01*
X83788095Y-54833333D01*
X83740476Y-54738095D01*
X83740476Y-54642857D01*
X83788095Y-54547619D01*
X83835714Y-54500000D01*
X83930952Y-54452380D01*
X84169047Y-54452380D01*
X84311904Y-54500000D01*
X84645238Y-54452380D02*
X84883333Y-55452380D01*
X85073809Y-54738095D01*
X85264285Y-55452380D01*
X85502380Y-54452380D01*
X86407142Y-55452380D02*
X85835714Y-55452380D01*
X86121428Y-55452380D02*
X86121428Y-54452380D01*
X86026190Y-54595238D01*
X85930952Y-54690476D01*
X85835714Y-54738095D01*
X87311904Y-54452380D02*
X86835714Y-54452380D01*
X86788095Y-54928571D01*
X86835714Y-54880952D01*
X86930952Y-54833333D01*
X87169047Y-54833333D01*
X87264285Y-54880952D01*
X87311904Y-54928571D01*
X87359523Y-55023809D01*
X87359523Y-55261904D01*
X87311904Y-55357142D01*
X87264285Y-55404761D01*
X87169047Y-55452380D01*
X86930952Y-55452380D01*
X86835714Y-55404761D01*
X86788095Y-55357142D01*
X93740476Y-55404761D02*
X93883333Y-55452380D01*
X94121428Y-55452380D01*
X94216666Y-55404761D01*
X94264285Y-55357142D01*
X94311904Y-55261904D01*
X94311904Y-55166666D01*
X94264285Y-55071428D01*
X94216666Y-55023809D01*
X94121428Y-54976190D01*
X93930952Y-54928571D01*
X93835714Y-54880952D01*
X93788095Y-54833333D01*
X93740476Y-54738095D01*
X93740476Y-54642857D01*
X93788095Y-54547619D01*
X93835714Y-54500000D01*
X93930952Y-54452380D01*
X94169047Y-54452380D01*
X94311904Y-54500000D01*
X94645238Y-54452380D02*
X94883333Y-55452380D01*
X95073809Y-54738095D01*
X95264285Y-55452380D01*
X95502380Y-54452380D01*
X96407142Y-55452380D02*
X95835714Y-55452380D01*
X96121428Y-55452380D02*
X96121428Y-54452380D01*
X96026190Y-54595238D01*
X95930952Y-54690476D01*
X95835714Y-54738095D01*
X97264285Y-54452380D02*
X97073809Y-54452380D01*
X96978571Y-54500000D01*
X96930952Y-54547619D01*
X96835714Y-54690476D01*
X96788095Y-54880952D01*
X96788095Y-55261904D01*
X96835714Y-55357142D01*
X96883333Y-55404761D01*
X96978571Y-55452380D01*
X97169047Y-55452380D01*
X97264285Y-55404761D01*
X97311904Y-55357142D01*
X97359523Y-55261904D01*
X97359523Y-55023809D01*
X97311904Y-54928571D01*
X97264285Y-54880952D01*
X97169047Y-54833333D01*
X96978571Y-54833333D01*
X96883333Y-54880952D01*
X96835714Y-54928571D01*
X96788095Y-55023809D01*
X103740476Y-55404761D02*
X103883333Y-55452380D01*
X104121428Y-55452380D01*
X104216666Y-55404761D01*
X104264285Y-55357142D01*
X104311904Y-55261904D01*
X104311904Y-55166666D01*
X104264285Y-55071428D01*
X104216666Y-55023809D01*
X104121428Y-54976190D01*
X103930952Y-54928571D01*
X103835714Y-54880952D01*
X103788095Y-54833333D01*
X103740476Y-54738095D01*
X103740476Y-54642857D01*
X103788095Y-54547619D01*
X103835714Y-54500000D01*
X103930952Y-54452380D01*
X104169047Y-54452380D01*
X104311904Y-54500000D01*
X104645238Y-54452380D02*
X104883333Y-55452380D01*
X105073809Y-54738095D01*
X105264285Y-55452380D01*
X105502380Y-54452380D01*
X106407142Y-55452380D02*
X105835714Y-55452380D01*
X106121428Y-55452380D02*
X106121428Y-54452380D01*
X106026190Y-54595238D01*
X105930952Y-54690476D01*
X105835714Y-54738095D01*
X106740476Y-54452380D02*
X107407142Y-54452380D01*
X106978571Y-55452380D01*
X113740476Y-55404761D02*
X113883333Y-55452380D01*
X114121428Y-55452380D01*
X114216666Y-55404761D01*
X114264285Y-55357142D01*
X114311904Y-55261904D01*
X114311904Y-55166666D01*
X114264285Y-55071428D01*
X114216666Y-55023809D01*
X114121428Y-54976190D01*
X113930952Y-54928571D01*
X113835714Y-54880952D01*
X113788095Y-54833333D01*
X113740476Y-54738095D01*
X113740476Y-54642857D01*
X113788095Y-54547619D01*
X113835714Y-54500000D01*
X113930952Y-54452380D01*
X114169047Y-54452380D01*
X114311904Y-54500000D01*
X114645238Y-54452380D02*
X114883333Y-55452380D01*
X115073809Y-54738095D01*
X115264285Y-55452380D01*
X115502380Y-54452380D01*
X116407142Y-55452380D02*
X115835714Y-55452380D01*
X116121428Y-55452380D02*
X116121428Y-54452380D01*
X116026190Y-54595238D01*
X115930952Y-54690476D01*
X115835714Y-54738095D01*
X116978571Y-54880952D02*
X116883333Y-54833333D01*
X116835714Y-54785714D01*
X116788095Y-54690476D01*
X116788095Y-54642857D01*
X116835714Y-54547619D01*
X116883333Y-54500000D01*
X116978571Y-54452380D01*
X117169047Y-54452380D01*
X117264285Y-54500000D01*
X117311904Y-54547619D01*
X117359523Y-54642857D01*
X117359523Y-54690476D01*
X117311904Y-54785714D01*
X117264285Y-54833333D01*
X117169047Y-54880952D01*
X116978571Y-54880952D01*
X116883333Y-54928571D01*
X116835714Y-54976190D01*
X116788095Y-55071428D01*
X116788095Y-55261904D01*
X116835714Y-55357142D01*
X116883333Y-55404761D01*
X116978571Y-55452380D01*
X117169047Y-55452380D01*
X117264285Y-55404761D01*
X117311904Y-55357142D01*
X117359523Y-55261904D01*
X117359523Y-55071428D01*
X117311904Y-54976190D01*
X117264285Y-54928571D01*
X117169047Y-54880952D01*
X123740476Y-55404761D02*
X123883333Y-55452380D01*
X124121428Y-55452380D01*
X124216666Y-55404761D01*
X124264285Y-55357142D01*
X124311904Y-55261904D01*
X124311904Y-55166666D01*
X124264285Y-55071428D01*
X124216666Y-55023809D01*
X124121428Y-54976190D01*
X123930952Y-54928571D01*
X123835714Y-54880952D01*
X123788095Y-54833333D01*
X123740476Y-54738095D01*
X123740476Y-54642857D01*
X123788095Y-54547619D01*
X123835714Y-54500000D01*
X123930952Y-54452380D01*
X124169047Y-54452380D01*
X124311904Y-54500000D01*
X124645238Y-54452380D02*
X124883333Y-55452380D01*
X125073809Y-54738095D01*
X125264285Y-55452380D01*
X125502380Y-54452380D01*
X126407142Y-55452380D02*
X125835714Y-55452380D01*
X126121428Y-55452380D02*
X126121428Y-54452380D01*
X126026190Y-54595238D01*
X125930952Y-54690476D01*
X125835714Y-54738095D01*
X126883333Y-55452380D02*
X127073809Y-55452380D01*
X127169047Y-55404761D01*
X127216666Y-55357142D01*
X127311904Y-55214285D01*
X127359523Y-55023809D01*
X127359523Y-54642857D01*
X127311904Y-54547619D01*
X127264285Y-54500000D01*
X127169047Y-54452380D01*
X126978571Y-54452380D01*
X126883333Y-54500000D01*
X126835714Y-54547619D01*
X126788095Y-54642857D01*
X126788095Y-54880952D01*
X126835714Y-54976190D01*
X126883333Y-55023809D01*
X126978571Y-55071428D01*
X127169047Y-55071428D01*
X127264285Y-55023809D01*
X127311904Y-54976190D01*
X127359523Y-54880952D01*
X33740476Y-63654761D02*
X33883333Y-63702380D01*
X34121428Y-63702380D01*
X34216666Y-63654761D01*
X34264285Y-63607142D01*
X34311904Y-63511904D01*
X34311904Y-63416666D01*
X34264285Y-63321428D01*
X34216666Y-63273809D01*
X34121428Y-63226190D01*
X33930952Y-63178571D01*
X33835714Y-63130952D01*
X33788095Y-63083333D01*
X33740476Y-62988095D01*
X33740476Y-62892857D01*
X33788095Y-62797619D01*
X33835714Y-62750000D01*
X33930952Y-62702380D01*
X34169047Y-62702380D01*
X34311904Y-62750000D01*
X34645238Y-62702380D02*
X34883333Y-63702380D01*
X35073809Y-62988095D01*
X35264285Y-63702380D01*
X35502380Y-62702380D01*
X35835714Y-62797619D02*
X35883333Y-62750000D01*
X35978571Y-62702380D01*
X36216666Y-62702380D01*
X36311904Y-62750000D01*
X36359523Y-62797619D01*
X36407142Y-62892857D01*
X36407142Y-62988095D01*
X36359523Y-63130952D01*
X35788095Y-63702380D01*
X36407142Y-63702380D01*
X37026190Y-62702380D02*
X37121428Y-62702380D01*
X37216666Y-62750000D01*
X37264285Y-62797619D01*
X37311904Y-62892857D01*
X37359523Y-63083333D01*
X37359523Y-63321428D01*
X37311904Y-63511904D01*
X37264285Y-63607142D01*
X37216666Y-63654761D01*
X37121428Y-63702380D01*
X37026190Y-63702380D01*
X36930952Y-63654761D01*
X36883333Y-63607142D01*
X36835714Y-63511904D01*
X36788095Y-63321428D01*
X36788095Y-63083333D01*
X36835714Y-62892857D01*
X36883333Y-62797619D01*
X36930952Y-62750000D01*
X37026190Y-62702380D01*
X43740476Y-63654761D02*
X43883333Y-63702380D01*
X44121428Y-63702380D01*
X44216666Y-63654761D01*
X44264285Y-63607142D01*
X44311904Y-63511904D01*
X44311904Y-63416666D01*
X44264285Y-63321428D01*
X44216666Y-63273809D01*
X44121428Y-63226190D01*
X43930952Y-63178571D01*
X43835714Y-63130952D01*
X43788095Y-63083333D01*
X43740476Y-62988095D01*
X43740476Y-62892857D01*
X43788095Y-62797619D01*
X43835714Y-62750000D01*
X43930952Y-62702380D01*
X44169047Y-62702380D01*
X44311904Y-62750000D01*
X44645238Y-62702380D02*
X44883333Y-63702380D01*
X45073809Y-62988095D01*
X45264285Y-63702380D01*
X45502380Y-62702380D01*
X45835714Y-62797619D02*
X45883333Y-62750000D01*
X45978571Y-62702380D01*
X46216666Y-62702380D01*
X46311904Y-62750000D01*
X46359523Y-62797619D01*
X46407142Y-62892857D01*
X46407142Y-62988095D01*
X46359523Y-63130952D01*
X45788095Y-63702380D01*
X46407142Y-63702380D01*
X47359523Y-63702380D02*
X46788095Y-63702380D01*
X47073809Y-63702380D02*
X47073809Y-62702380D01*
X46978571Y-62845238D01*
X46883333Y-62940476D01*
X46788095Y-62988095D01*
X53740476Y-63654761D02*
X53883333Y-63702380D01*
X54121428Y-63702380D01*
X54216666Y-63654761D01*
X54264285Y-63607142D01*
X54311904Y-63511904D01*
X54311904Y-63416666D01*
X54264285Y-63321428D01*
X54216666Y-63273809D01*
X54121428Y-63226190D01*
X53930952Y-63178571D01*
X53835714Y-63130952D01*
X53788095Y-63083333D01*
X53740476Y-62988095D01*
X53740476Y-62892857D01*
X53788095Y-62797619D01*
X53835714Y-62750000D01*
X53930952Y-62702380D01*
X54169047Y-62702380D01*
X54311904Y-62750000D01*
X54645238Y-62702380D02*
X54883333Y-63702380D01*
X55073809Y-62988095D01*
X55264285Y-63702380D01*
X55502380Y-62702380D01*
X55835714Y-62797619D02*
X55883333Y-62750000D01*
X55978571Y-62702380D01*
X56216666Y-62702380D01*
X56311904Y-62750000D01*
X56359523Y-62797619D01*
X56407142Y-62892857D01*
X56407142Y-62988095D01*
X56359523Y-63130952D01*
X55788095Y-63702380D01*
X56407142Y-63702380D01*
X56788095Y-62797619D02*
X56835714Y-62750000D01*
X56930952Y-62702380D01*
X57169047Y-62702380D01*
X57264285Y-62750000D01*
X57311904Y-62797619D01*
X57359523Y-62892857D01*
X57359523Y-62988095D01*
X57311904Y-63130952D01*
X56740476Y-63702380D01*
X57359523Y-63702380D01*
X63740476Y-63654761D02*
X63883333Y-63702380D01*
X64121428Y-63702380D01*
X64216666Y-63654761D01*
X64264285Y-63607142D01*
X64311904Y-63511904D01*
X64311904Y-63416666D01*
X64264285Y-63321428D01*
X64216666Y-63273809D01*
X64121428Y-63226190D01*
X63930952Y-63178571D01*
X63835714Y-63130952D01*
X63788095Y-63083333D01*
X63740476Y-62988095D01*
X63740476Y-62892857D01*
X63788095Y-62797619D01*
X63835714Y-62750000D01*
X63930952Y-62702380D01*
X64169047Y-62702380D01*
X64311904Y-62750000D01*
X64645238Y-62702380D02*
X64883333Y-63702380D01*
X65073809Y-62988095D01*
X65264285Y-63702380D01*
X65502380Y-62702380D01*
X65835714Y-62797619D02*
X65883333Y-62750000D01*
X65978571Y-62702380D01*
X66216666Y-62702380D01*
X66311904Y-62750000D01*
X66359523Y-62797619D01*
X66407142Y-62892857D01*
X66407142Y-62988095D01*
X66359523Y-63130952D01*
X65788095Y-63702380D01*
X66407142Y-63702380D01*
X66740476Y-62702380D02*
X67359523Y-62702380D01*
X67026190Y-63083333D01*
X67169047Y-63083333D01*
X67264285Y-63130952D01*
X67311904Y-63178571D01*
X67359523Y-63273809D01*
X67359523Y-63511904D01*
X67311904Y-63607142D01*
X67264285Y-63654761D01*
X67169047Y-63702380D01*
X66883333Y-63702380D01*
X66788095Y-63654761D01*
X66740476Y-63607142D01*
X73740476Y-63654761D02*
X73883333Y-63702380D01*
X74121428Y-63702380D01*
X74216666Y-63654761D01*
X74264285Y-63607142D01*
X74311904Y-63511904D01*
X74311904Y-63416666D01*
X74264285Y-63321428D01*
X74216666Y-63273809D01*
X74121428Y-63226190D01*
X73930952Y-63178571D01*
X73835714Y-63130952D01*
X73788095Y-63083333D01*
X73740476Y-62988095D01*
X73740476Y-62892857D01*
X73788095Y-62797619D01*
X73835714Y-62750000D01*
X73930952Y-62702380D01*
X74169047Y-62702380D01*
X74311904Y-62750000D01*
X74645238Y-62702380D02*
X74883333Y-63702380D01*
X75073809Y-62988095D01*
X75264285Y-63702380D01*
X75502380Y-62702380D01*
X75835714Y-62797619D02*
X75883333Y-62750000D01*
X75978571Y-62702380D01*
X76216666Y-62702380D01*
X76311904Y-62750000D01*
X76359523Y-62797619D01*
X76407142Y-62892857D01*
X76407142Y-62988095D01*
X76359523Y-63130952D01*
X75788095Y-63702380D01*
X76407142Y-63702380D01*
X77264285Y-63035714D02*
X77264285Y-63702380D01*
X77026190Y-62654761D02*
X76788095Y-63369047D01*
X77407142Y-63369047D01*
X83740476Y-63654761D02*
X83883333Y-63702380D01*
X84121428Y-63702380D01*
X84216666Y-63654761D01*
X84264285Y-63607142D01*
X84311904Y-63511904D01*
X84311904Y-63416666D01*
X84264285Y-63321428D01*
X84216666Y-63273809D01*
X84121428Y-63226190D01*
X83930952Y-63178571D01*
X83835714Y-63130952D01*
X83788095Y-63083333D01*
X83740476Y-62988095D01*
X83740476Y-62892857D01*
X83788095Y-62797619D01*
X83835714Y-62750000D01*
X83930952Y-62702380D01*
X84169047Y-62702380D01*
X84311904Y-62750000D01*
X84645238Y-62702380D02*
X84883333Y-63702380D01*
X85073809Y-62988095D01*
X85264285Y-63702380D01*
X85502380Y-62702380D01*
X85835714Y-62797619D02*
X85883333Y-62750000D01*
X85978571Y-62702380D01*
X86216666Y-62702380D01*
X86311904Y-62750000D01*
X86359523Y-62797619D01*
X86407142Y-62892857D01*
X86407142Y-62988095D01*
X86359523Y-63130952D01*
X85788095Y-63702380D01*
X86407142Y-63702380D01*
X87311904Y-62702380D02*
X86835714Y-62702380D01*
X86788095Y-63178571D01*
X86835714Y-63130952D01*
X86930952Y-63083333D01*
X87169047Y-63083333D01*
X87264285Y-63130952D01*
X87311904Y-63178571D01*
X87359523Y-63273809D01*
X87359523Y-63511904D01*
X87311904Y-63607142D01*
X87264285Y-63654761D01*
X87169047Y-63702380D01*
X86930952Y-63702380D01*
X86835714Y-63654761D01*
X86788095Y-63607142D01*
X93740476Y-63654761D02*
X93883333Y-63702380D01*
X94121428Y-63702380D01*
X94216666Y-63654761D01*
X94264285Y-63607142D01*
X94311904Y-63511904D01*
X94311904Y-63416666D01*
X94264285Y-63321428D01*
X94216666Y-63273809D01*
X94121428Y-63226190D01*
X93930952Y-63178571D01*
X93835714Y-63130952D01*
X93788095Y-63083333D01*
X93740476Y-62988095D01*
X93740476Y-62892857D01*
X93788095Y-62797619D01*
X93835714Y-62750000D01*
X93930952Y-62702380D01*
X94169047Y-62702380D01*
X94311904Y-62750000D01*
X94645238Y-62702380D02*
X94883333Y-63702380D01*
X95073809Y-62988095D01*
X95264285Y-63702380D01*
X95502380Y-62702380D01*
X95835714Y-62797619D02*
X95883333Y-62750000D01*
X95978571Y-62702380D01*
X96216666Y-62702380D01*
X96311904Y-62750000D01*
X96359523Y-62797619D01*
X96407142Y-62892857D01*
X96407142Y-62988095D01*
X96359523Y-63130952D01*
X95788095Y-63702380D01*
X96407142Y-63702380D01*
X97264285Y-62702380D02*
X97073809Y-62702380D01*
X96978571Y-62750000D01*
X96930952Y-62797619D01*
X96835714Y-62940476D01*
X96788095Y-63130952D01*
X96788095Y-63511904D01*
X96835714Y-63607142D01*
X96883333Y-63654761D01*
X96978571Y-63702380D01*
X97169047Y-63702380D01*
X97264285Y-63654761D01*
X97311904Y-63607142D01*
X97359523Y-63511904D01*
X97359523Y-63273809D01*
X97311904Y-63178571D01*
X97264285Y-63130952D01*
X97169047Y-63083333D01*
X96978571Y-63083333D01*
X96883333Y-63130952D01*
X96835714Y-63178571D01*
X96788095Y-63273809D01*
X103740476Y-63654761D02*
X103883333Y-63702380D01*
X104121428Y-63702380D01*
X104216666Y-63654761D01*
X104264285Y-63607142D01*
X104311904Y-63511904D01*
X104311904Y-63416666D01*
X104264285Y-63321428D01*
X104216666Y-63273809D01*
X104121428Y-63226190D01*
X103930952Y-63178571D01*
X103835714Y-63130952D01*
X103788095Y-63083333D01*
X103740476Y-62988095D01*
X103740476Y-62892857D01*
X103788095Y-62797619D01*
X103835714Y-62750000D01*
X103930952Y-62702380D01*
X104169047Y-62702380D01*
X104311904Y-62750000D01*
X104645238Y-62702380D02*
X104883333Y-63702380D01*
X105073809Y-62988095D01*
X105264285Y-63702380D01*
X105502380Y-62702380D01*
X105835714Y-62797619D02*
X105883333Y-62750000D01*
X105978571Y-62702380D01*
X106216666Y-62702380D01*
X106311904Y-62750000D01*
X106359523Y-62797619D01*
X106407142Y-62892857D01*
X106407142Y-62988095D01*
X106359523Y-63130952D01*
X105788095Y-63702380D01*
X106407142Y-63702380D01*
X106740476Y-62702380D02*
X107407142Y-62702380D01*
X106978571Y-63702380D01*
X113740476Y-63654761D02*
X113883333Y-63702380D01*
X114121428Y-63702380D01*
X114216666Y-63654761D01*
X114264285Y-63607142D01*
X114311904Y-63511904D01*
X114311904Y-63416666D01*
X114264285Y-63321428D01*
X114216666Y-63273809D01*
X114121428Y-63226190D01*
X113930952Y-63178571D01*
X113835714Y-63130952D01*
X113788095Y-63083333D01*
X113740476Y-62988095D01*
X113740476Y-62892857D01*
X113788095Y-62797619D01*
X113835714Y-62750000D01*
X113930952Y-62702380D01*
X114169047Y-62702380D01*
X114311904Y-62750000D01*
X114645238Y-62702380D02*
X114883333Y-63702380D01*
X115073809Y-62988095D01*
X115264285Y-63702380D01*
X115502380Y-62702380D01*
X115835714Y-62797619D02*
X115883333Y-62750000D01*
X115978571Y-62702380D01*
X116216666Y-62702380D01*
X116311904Y-62750000D01*
X116359523Y-62797619D01*
X116407142Y-62892857D01*
X116407142Y-62988095D01*
X116359523Y-63130952D01*
X115788095Y-63702380D01*
X116407142Y-63702380D01*
X116978571Y-63130952D02*
X116883333Y-63083333D01*
X116835714Y-63035714D01*
X116788095Y-62940476D01*
X116788095Y-62892857D01*
X116835714Y-62797619D01*
X116883333Y-62750000D01*
X116978571Y-62702380D01*
X117169047Y-62702380D01*
X117264285Y-62750000D01*
X117311904Y-62797619D01*
X117359523Y-62892857D01*
X117359523Y-62940476D01*
X117311904Y-63035714D01*
X117264285Y-63083333D01*
X117169047Y-63130952D01*
X116978571Y-63130952D01*
X116883333Y-63178571D01*
X116835714Y-63226190D01*
X116788095Y-63321428D01*
X116788095Y-63511904D01*
X116835714Y-63607142D01*
X116883333Y-63654761D01*
X116978571Y-63702380D01*
X117169047Y-63702380D01*
X117264285Y-63654761D01*
X117311904Y-63607142D01*
X117359523Y-63511904D01*
X117359523Y-63321428D01*
X117311904Y-63226190D01*
X117264285Y-63178571D01*
X117169047Y-63130952D01*
X123740476Y-63654761D02*
X123883333Y-63702380D01*
X124121428Y-63702380D01*
X124216666Y-63654761D01*
X124264285Y-63607142D01*
X124311904Y-63511904D01*
X124311904Y-63416666D01*
X124264285Y-63321428D01*
X124216666Y-63273809D01*
X124121428Y-63226190D01*
X123930952Y-63178571D01*
X123835714Y-63130952D01*
X123788095Y-63083333D01*
X123740476Y-62988095D01*
X123740476Y-62892857D01*
X123788095Y-62797619D01*
X123835714Y-62750000D01*
X123930952Y-62702380D01*
X124169047Y-62702380D01*
X124311904Y-62750000D01*
X124645238Y-62702380D02*
X124883333Y-63702380D01*
X125073809Y-62988095D01*
X125264285Y-63702380D01*
X125502380Y-62702380D01*
X125835714Y-62797619D02*
X125883333Y-62750000D01*
X125978571Y-62702380D01*
X126216666Y-62702380D01*
X126311904Y-62750000D01*
X126359523Y-62797619D01*
X126407142Y-62892857D01*
X126407142Y-62988095D01*
X126359523Y-63130952D01*
X125788095Y-63702380D01*
X126407142Y-63702380D01*
X126883333Y-63702380D02*
X127073809Y-63702380D01*
X127169047Y-63654761D01*
X127216666Y-63607142D01*
X127311904Y-63464285D01*
X127359523Y-63273809D01*
X127359523Y-62892857D01*
X127311904Y-62797619D01*
X127264285Y-62750000D01*
X127169047Y-62702380D01*
X126978571Y-62702380D01*
X126883333Y-62750000D01*
X126835714Y-62797619D01*
X126788095Y-62892857D01*
X126788095Y-63130952D01*
X126835714Y-63226190D01*
X126883333Y-63273809D01*
X126978571Y-63321428D01*
X127169047Y-63321428D01*
X127264285Y-63273809D01*
X127311904Y-63226190D01*
X127359523Y-63130952D01*
X33740476Y-71904761D02*
X33883333Y-71952380D01*
X34121428Y-71952380D01*
X34216666Y-71904761D01*
X34264285Y-71857142D01*
X34311904Y-71761904D01*
X34311904Y-71666666D01*
X34264285Y-71571428D01*
X34216666Y-71523809D01*
X34121428Y-71476190D01*
X33930952Y-71428571D01*
X33835714Y-71380952D01*
X33788095Y-71333333D01*
X33740476Y-71238095D01*
X33740476Y-71142857D01*
X33788095Y-71047619D01*
X33835714Y-71000000D01*
X33930952Y-70952380D01*
X34169047Y-70952380D01*
X34311904Y-71000000D01*
X34645238Y-70952380D02*
X34883333Y-71952380D01*
X35073809Y-71238095D01*
X35264285Y-71952380D01*
X35502380Y-70952380D01*
X35788095Y-70952380D02*
X36407142Y-70952380D01*
X36073809Y-71333333D01*
X36216666Y-71333333D01*
X36311904Y-71380952D01*
X36359523Y-71428571D01*
X36407142Y-71523809D01*
X36407142Y-71761904D01*
X36359523Y-71857142D01*
X36311904Y-71904761D01*
X36216666Y-71952380D01*
X35930952Y-71952380D01*
X35835714Y-71904761D01*
X35788095Y-71857142D01*
X37026190Y-70952380D02*
X37121428Y-70952380D01*
X37216666Y-71000000D01*
X37264285Y-71047619D01*
X37311904Y-71142857D01*
X37359523Y-71333333D01*
X37359523Y-71571428D01*
X37311904Y-71761904D01*
X37264285Y-71857142D01*
X37216666Y-71904761D01*
X37121428Y-71952380D01*
X37026190Y-71952380D01*
X36930952Y-71904761D01*
X36883333Y-71857142D01*
X36835714Y-71761904D01*
X36788095Y-71571428D01*
X36788095Y-71333333D01*
X36835714Y-71142857D01*
X36883333Y-71047619D01*
X36930952Y-71000000D01*
X37026190Y-70952380D01*
X43740476Y-71904761D02*
X43883333Y-71952380D01*
X44121428Y-71952380D01*
X44216666Y-71904761D01*
X44264285Y-71857142D01*
X44311904Y-71761904D01*
X44311904Y-71666666D01*
X44264285Y-71571428D01*
X44216666Y-71523809D01*
X44121428Y-71476190D01*
X43930952Y-71428571D01*
X43835714Y-71380952D01*
X43788095Y-71333333D01*
X43740476Y-71238095D01*
X43740476Y-71142857D01*
X43788095Y-71047619D01*
X43835714Y-71000000D01*
X43930952Y-70952380D01*
X44169047Y-70952380D01*
X44311904Y-71000000D01*
X44645238Y-70952380D02*
X44883333Y-71952380D01*
X45073809Y-71238095D01*
X45264285Y-71952380D01*
X45502380Y-70952380D01*
X45788095Y-70952380D02*
X46407142Y-70952380D01*
X46073809Y-71333333D01*
X46216666Y-71333333D01*
X46311904Y-71380952D01*
X46359523Y-71428571D01*
X46407142Y-71523809D01*
X46407142Y-71761904D01*
X46359523Y-71857142D01*
X46311904Y-71904761D01*
X46216666Y-71952380D01*
X45930952Y-71952380D01*
X45835714Y-71904761D01*
X45788095Y-71857142D01*
X47359523Y-71952380D02*
X46788095Y-71952380D01*
X47073809Y-71952380D02*
X47073809Y-70952380D01*
X46978571Y-71095238D01*
X46883333Y-71190476D01*
X46788095Y-71238095D01*
X53740476Y-71904761D02*
X53883333Y-71952380D01*
X54121428Y-71952380D01*
X54216666Y-71904761D01*
X54264285Y-71857142D01*
X54311904Y-71761904D01*
X54311904Y-71666666D01*
X54264285Y-71571428D01*
X54216666Y-71523809D01*
X54121428Y-71476190D01*
X53930952Y-71428571D01*
X53835714Y-71380952D01*
X53788095Y-71333333D01*
X53740476Y-71238095D01*
X53740476Y-71142857D01*
X53788095Y-71047619D01*
X53835714Y-71000000D01*
X53930952Y-70952380D01*
X54169047Y-70952380D01*
X54311904Y-71000000D01*
X54645238Y-70952380D02*
X54883333Y-71952380D01*
X55073809Y-71238095D01*
X55264285Y-71952380D01*
X55502380Y-70952380D01*
X55788095Y-70952380D02*
X56407142Y-70952380D01*
X56073809Y-71333333D01*
X56216666Y-71333333D01*
X56311904Y-71380952D01*
X56359523Y-71428571D01*
X56407142Y-71523809D01*
X56407142Y-71761904D01*
X56359523Y-71857142D01*
X56311904Y-71904761D01*
X56216666Y-71952380D01*
X55930952Y-71952380D01*
X55835714Y-71904761D01*
X55788095Y-71857142D01*
X56788095Y-71047619D02*
X56835714Y-71000000D01*
X56930952Y-70952380D01*
X57169047Y-70952380D01*
X57264285Y-71000000D01*
X57311904Y-71047619D01*
X57359523Y-71142857D01*
X57359523Y-71238095D01*
X57311904Y-71380952D01*
X56740476Y-71952380D01*
X57359523Y-71952380D01*
X63740476Y-71904761D02*
X63883333Y-71952380D01*
X64121428Y-71952380D01*
X64216666Y-71904761D01*
X64264285Y-71857142D01*
X64311904Y-71761904D01*
X64311904Y-71666666D01*
X64264285Y-71571428D01*
X64216666Y-71523809D01*
X64121428Y-71476190D01*
X63930952Y-71428571D01*
X63835714Y-71380952D01*
X63788095Y-71333333D01*
X63740476Y-71238095D01*
X63740476Y-71142857D01*
X63788095Y-71047619D01*
X63835714Y-71000000D01*
X63930952Y-70952380D01*
X64169047Y-70952380D01*
X64311904Y-71000000D01*
X64645238Y-70952380D02*
X64883333Y-71952380D01*
X65073809Y-71238095D01*
X65264285Y-71952380D01*
X65502380Y-70952380D01*
X65788095Y-70952380D02*
X66407142Y-70952380D01*
X66073809Y-71333333D01*
X66216666Y-71333333D01*
X66311904Y-71380952D01*
X66359523Y-71428571D01*
X66407142Y-71523809D01*
X66407142Y-71761904D01*
X66359523Y-71857142D01*
X66311904Y-71904761D01*
X66216666Y-71952380D01*
X65930952Y-71952380D01*
X65835714Y-71904761D01*
X65788095Y-71857142D01*
X66740476Y-70952380D02*
X67359523Y-70952380D01*
X67026190Y-71333333D01*
X67169047Y-71333333D01*
X67264285Y-71380952D01*
X67311904Y-71428571D01*
X67359523Y-71523809D01*
X67359523Y-71761904D01*
X67311904Y-71857142D01*
X67264285Y-71904761D01*
X67169047Y-71952380D01*
X66883333Y-71952380D01*
X66788095Y-71904761D01*
X66740476Y-71857142D01*
X73740476Y-71904761D02*
X73883333Y-71952380D01*
X74121428Y-71952380D01*
X74216666Y-71904761D01*
X74264285Y-71857142D01*
X74311904Y-71761904D01*
X74311904Y-71666666D01*
X74264285Y-71571428D01*
X74216666Y-71523809D01*
X74121428Y-71476190D01*
X73930952Y-71428571D01*
X73835714Y-71380952D01*
X73788095Y-71333333D01*
X73740476Y-71238095D01*
X73740476Y-71142857D01*
X73788095Y-71047619D01*
X73835714Y-71000000D01*
X73930952Y-70952380D01*
X74169047Y-70952380D01*
X74311904Y-71000000D01*
X74645238Y-70952380D02*
X74883333Y-71952380D01*
X75073809Y-71238095D01*
X75264285Y-71952380D01*
X75502380Y-70952380D01*
X75788095Y-70952380D02*
X76407142Y-70952380D01*
X76073809Y-71333333D01*
X76216666Y-71333333D01*
X76311904Y-71380952D01*
X76359523Y-71428571D01*
X76407142Y-71523809D01*
X76407142Y-71761904D01*
X76359523Y-71857142D01*
X76311904Y-71904761D01*
X76216666Y-71952380D01*
X75930952Y-71952380D01*
X75835714Y-71904761D01*
X75788095Y-71857142D01*
X77264285Y-71285714D02*
X77264285Y-71952380D01*
X77026190Y-70904761D02*
X76788095Y-71619047D01*
X77407142Y-71619047D01*
X83740476Y-71904761D02*
X83883333Y-71952380D01*
X84121428Y-71952380D01*
X84216666Y-71904761D01*
X84264285Y-71857142D01*
X84311904Y-71761904D01*
X84311904Y-71666666D01*
X84264285Y-71571428D01*
X84216666Y-71523809D01*
X84121428Y-71476190D01*
X83930952Y-71428571D01*
X83835714Y-71380952D01*
X83788095Y-71333333D01*
X83740476Y-71238095D01*
X83740476Y-71142857D01*
X83788095Y-71047619D01*
X83835714Y-71000000D01*
X83930952Y-70952380D01*
X84169047Y-70952380D01*
X84311904Y-71000000D01*
X84645238Y-70952380D02*
X84883333Y-71952380D01*
X85073809Y-71238095D01*
X85264285Y-71952380D01*
X85502380Y-70952380D01*
X85788095Y-70952380D02*
X86407142Y-70952380D01*
X86073809Y-71333333D01*
X86216666Y-71333333D01*
X86311904Y-71380952D01*
X86359523Y-71428571D01*
X86407142Y-71523809D01*
X86407142Y-71761904D01*
X86359523Y-71857142D01*
X86311904Y-71904761D01*
X86216666Y-71952380D01*
X85930952Y-71952380D01*
X85835714Y-71904761D01*
X85788095Y-71857142D01*
X87311904Y-70952380D02*
X86835714Y-70952380D01*
X86788095Y-71428571D01*
X86835714Y-71380952D01*
X86930952Y-71333333D01*
X87169047Y-71333333D01*
X87264285Y-71380952D01*
X87311904Y-71428571D01*
X87359523Y-71523809D01*
X87359523Y-71761904D01*
X87311904Y-71857142D01*
X87264285Y-71904761D01*
X87169047Y-71952380D01*
X86930952Y-71952380D01*
X86835714Y-71904761D01*
X86788095Y-71857142D01*
X93740476Y-71904761D02*
X93883333Y-71952380D01*
X94121428Y-71952380D01*
X94216666Y-71904761D01*
X94264285Y-71857142D01*
X94311904Y-71761904D01*
X94311904Y-71666666D01*
X94264285Y-71571428D01*
X94216666Y-71523809D01*
X94121428Y-71476190D01*
X93930952Y-71428571D01*
X93835714Y-71380952D01*
X93788095Y-71333333D01*
X93740476Y-71238095D01*
X93740476Y-71142857D01*
X93788095Y-71047619D01*
X93835714Y-71000000D01*
X93930952Y-70952380D01*
X94169047Y-70952380D01*
X94311904Y-71000000D01*
X94645238Y-70952380D02*
X94883333Y-71952380D01*
X95073809Y-71238095D01*
X95264285Y-71952380D01*
X95502380Y-70952380D01*
X95788095Y-70952380D02*
X96407142Y-70952380D01*
X96073809Y-71333333D01*
X96216666Y-71333333D01*
X96311904Y-71380952D01*
X96359523Y-71428571D01*
X96407142Y-71523809D01*
X96407142Y-71761904D01*
X96359523Y-71857142D01*
X96311904Y-71904761D01*
X96216666Y-71952380D01*
X95930952Y-71952380D01*
X95835714Y-71904761D01*
X95788095Y-71857142D01*
X97264285Y-70952380D02*
X97073809Y-70952380D01*
X96978571Y-71000000D01*
X96930952Y-71047619D01*
X96835714Y-71190476D01*
X96788095Y-71380952D01*
X96788095Y-71761904D01*
X96835714Y-71857142D01*
X96883333Y-71904761D01*
X96978571Y-71952380D01*
X97169047Y-71952380D01*
X97264285Y-71904761D01*
X97311904Y-71857142D01*
X97359523Y-71761904D01*
X97359523Y-71523809D01*
X97311904Y-71428571D01*
X97264285Y-71380952D01*
X97169047Y-71333333D01*
X96978571Y-71333333D01*
X96883333Y-71380952D01*
X96835714Y-71428571D01*
X96788095Y-71523809D01*
X103740476Y-71904761D02*
X103883333Y-71952380D01*
X104121428Y-71952380D01*
X104216666Y-71904761D01*
X104264285Y-71857142D01*
X104311904Y-71761904D01*
X104311904Y-71666666D01*
X104264285Y-71571428D01*
X104216666Y-71523809D01*
X104121428Y-71476190D01*
X103930952Y-71428571D01*
X103835714Y-71380952D01*
X103788095Y-71333333D01*
X103740476Y-71238095D01*
X103740476Y-71142857D01*
X103788095Y-71047619D01*
X103835714Y-71000000D01*
X103930952Y-70952380D01*
X104169047Y-70952380D01*
X104311904Y-71000000D01*
X104645238Y-70952380D02*
X104883333Y-71952380D01*
X105073809Y-71238095D01*
X105264285Y-71952380D01*
X105502380Y-70952380D01*
X105788095Y-70952380D02*
X106407142Y-70952380D01*
X106073809Y-71333333D01*
X106216666Y-71333333D01*
X106311904Y-71380952D01*
X106359523Y-71428571D01*
X106407142Y-71523809D01*
X106407142Y-71761904D01*
X106359523Y-71857142D01*
X106311904Y-71904761D01*
X106216666Y-71952380D01*
X105930952Y-71952380D01*
X105835714Y-71904761D01*
X105788095Y-71857142D01*
X106740476Y-70952380D02*
X107407142Y-70952380D01*
X106978571Y-71952380D01*
X113740476Y-71904761D02*
X113883333Y-71952380D01*
X114121428Y-71952380D01*
X114216666Y-71904761D01*
X114264285Y-71857142D01*
X114311904Y-71761904D01*
X114311904Y-71666666D01*
X114264285Y-71571428D01*
X114216666Y-71523809D01*
X114121428Y-71476190D01*
X113930952Y-71428571D01*
X113835714Y-71380952D01*
X113788095Y-71333333D01*
X113740476Y-71238095D01*
X113740476Y-71142857D01*
X113788095Y-71047619D01*
X113835714Y-71000000D01*
X113930952Y-70952380D01*
X114169047Y-70952380D01*
X114311904Y-71000000D01*
X114645238Y-70952380D02*
X114883333Y-71952380D01*
X115073809Y-71238095D01*
X115264285Y-71952380D01*
X115502380Y-70952380D01*
X115788095Y-70952380D02*
X116407142Y-70952380D01*
X116073809Y-71333333D01*
X116216666Y-71333333D01*
X116311904Y-71380952D01*
X116359523Y-71428571D01*
X116407142Y-71523809D01*
X116407142Y-71761904D01*
X116359523Y-71857142D01*
X116311904Y-71904761D01*
X116216666Y-71952380D01*
X115930952Y-71952380D01*
X115835714Y-71904761D01*
X115788095Y-71857142D01*
X116978571Y-71380952D02*
X116883333Y-71333333D01*
X116835714Y-71285714D01*
X116788095Y-71190476D01*
X116788095Y-71142857D01*
X116835714Y-71047619D01*
X116883333Y-71000000D01*
X116978571Y-70952380D01*
X117169047Y-70952380D01*
X117264285Y-71000000D01*
X117311904Y-71047619D01*
X117359523Y-71142857D01*
X117359523Y-71190476D01*
X117311904Y-71285714D01*
X117264285Y-71333333D01*
X117169047Y-71380952D01*
X116978571Y-71380952D01*
X116883333Y-71428571D01*
X116835714Y-71476190D01*
X116788095Y-71571428D01*
X116788095Y-71761904D01*
X116835714Y-71857142D01*
X116883333Y-71904761D01*
X116978571Y-71952380D01*
X117169047Y-71952380D01*
X117264285Y-71904761D01*
X117311904Y-71857142D01*
X117359523Y-71761904D01*
X117359523Y-71571428D01*
X117311904Y-71476190D01*
X117264285Y-71428571D01*
X117169047Y-71380952D01*
X123740476Y-71904761D02*
X123883333Y-71952380D01*
X124121428Y-71952380D01*
X124216666Y-71904761D01*
X124264285Y-71857142D01*
X124311904Y-71761904D01*
X124311904Y-71666666D01*
X124264285Y-71571428D01*
X124216666Y-71523809D01*
X124121428Y-71476190D01*
X123930952Y-71428571D01*
X123835714Y-71380952D01*
X123788095Y-71333333D01*
X123740476Y-71238095D01*
X123740476Y-71142857D01*
X123788095Y-71047619D01*
X123835714Y-71000000D01*
X123930952Y-70952380D01*
X124169047Y-70952380D01*
X124311904Y-71000000D01*
X124645238Y-70952380D02*
X124883333Y-71952380D01*
X125073809Y-71238095D01*
X125264285Y-71952380D01*
X125502380Y-70952380D01*
X125788095Y-70952380D02*
X126407142Y-70952380D01*
X126073809Y-71333333D01*
X126216666Y-71333333D01*
X126311904Y-71380952D01*
X126359523Y-71428571D01*
X126407142Y-71523809D01*
X126407142Y-71761904D01*
X126359523Y-71857142D01*
X126311904Y-71904761D01*
X126216666Y-71952380D01*
X125930952Y-71952380D01*
X125835714Y-71904761D01*
X125788095Y-71857142D01*
X126883333Y-71952380D02*
X127073809Y-71952380D01*
X127169047Y-71904761D01*
X127216666Y-71857142D01*
X127311904Y-71714285D01*
X127359523Y-71523809D01*
X127359523Y-71142857D01*
X127311904Y-71047619D01*
X127264285Y-71000000D01*
X127169047Y-70952380D01*
X126978571Y-70952380D01*
X126883333Y-71000000D01*
X126835714Y-71047619D01*
X126788095Y-71142857D01*
X126788095Y-71380952D01*
X126835714Y-71476190D01*
X126883333Y-71523809D01*
X126978571Y-71571428D01*
X127169047Y-71571428D01*
X127264285Y-71523809D01*
X127311904Y-71476190D01*
X127359523Y-71380952D01*
X33740476Y-80154761D02*
X33883333Y-80202380D01*
X34121428Y-80202380D01*
X34216666Y-80154761D01*
X34264285Y-80107142D01*
X34311904Y-80011904D01*
X34311904Y-79916666D01*
X34264285Y-79821428D01*
X34216666Y-79773809D01*
X34121428Y-79726190D01*
X33930952Y-79678571D01*
X33835714Y-79630952D01*
X33788095Y-79583333D01*
X33740476Y-79488095D01*
X33740476Y-79392857D01*
X33788095Y-79297619D01*
X33835714Y-79250000D01*
X33930952Y-79202380D01*
X34169047Y-79202380D01*
X34311904Y-79250000D01*
X34645238Y-79202380D02*
X34883333Y-80202380D01*
X35073809Y-79488095D01*
X35264285Y-80202380D01*
X35502380Y-79202380D01*
X36311904Y-79535714D02*
X36311904Y-80202380D01*
X36073809Y-79154761D02*
X35835714Y-79869047D01*
X36454761Y-79869047D01*
X37026190Y-79202380D02*
X37121428Y-79202380D01*
X37216666Y-79250000D01*
X37264285Y-79297619D01*
X37311904Y-79392857D01*
X37359523Y-79583333D01*
X37359523Y-79821428D01*
X37311904Y-80011904D01*
X37264285Y-80107142D01*
X37216666Y-80154761D01*
X37121428Y-80202380D01*
X37026190Y-80202380D01*
X36930952Y-80154761D01*
X36883333Y-80107142D01*
X36835714Y-80011904D01*
X36788095Y-79821428D01*
X36788095Y-79583333D01*
X36835714Y-79392857D01*
X36883333Y-79297619D01*
X36930952Y-79250000D01*
X37026190Y-79202380D01*
X43740476Y-80154761D02*
X43883333Y-80202380D01*
X44121428Y-80202380D01*
X44216666Y-80154761D01*
X44264285Y-80107142D01*
X44311904Y-80011904D01*
X44311904Y-79916666D01*
X44264285Y-79821428D01*
X44216666Y-79773809D01*
X44121428Y-79726190D01*
X43930952Y-79678571D01*
X43835714Y-79630952D01*
X43788095Y-79583333D01*
X43740476Y-79488095D01*
X43740476Y-79392857D01*
X43788095Y-79297619D01*
X43835714Y-79250000D01*
X43930952Y-79202380D01*
X44169047Y-79202380D01*
X44311904Y-79250000D01*
X44645238Y-79202380D02*
X44883333Y-80202380D01*
X45073809Y-79488095D01*
X45264285Y-80202380D01*
X45502380Y-79202380D01*
X46311904Y-79535714D02*
X46311904Y-80202380D01*
X46073809Y-79154761D02*
X45835714Y-79869047D01*
X46454761Y-79869047D01*
X47359523Y-80202380D02*
X46788095Y-80202380D01*
X47073809Y-80202380D02*
X47073809Y-79202380D01*
X46978571Y-79345238D01*
X46883333Y-79440476D01*
X46788095Y-79488095D01*
X53740476Y-80154761D02*
X53883333Y-80202380D01*
X54121428Y-80202380D01*
X54216666Y-80154761D01*
X54264285Y-80107142D01*
X54311904Y-80011904D01*
X54311904Y-79916666D01*
X54264285Y-79821428D01*
X54216666Y-79773809D01*
X54121428Y-79726190D01*
X53930952Y-79678571D01*
X53835714Y-79630952D01*
X53788095Y-79583333D01*
X53740476Y-79488095D01*
X53740476Y-79392857D01*
X53788095Y-79297619D01*
X53835714Y-79250000D01*
X53930952Y-79202380D01*
X54169047Y-79202380D01*
X54311904Y-79250000D01*
X54645238Y-79202380D02*
X54883333Y-80202380D01*
X55073809Y-79488095D01*
X55264285Y-80202380D01*
X55502380Y-79202380D01*
X56311904Y-79535714D02*
X56311904Y-80202380D01*
X56073809Y-79154761D02*
X55835714Y-79869047D01*
X56454761Y-79869047D01*
X56788095Y-79297619D02*
X56835714Y-79250000D01*
X56930952Y-79202380D01*
X57169047Y-79202380D01*
X57264285Y-79250000D01*
X57311904Y-79297619D01*
X57359523Y-79392857D01*
X57359523Y-79488095D01*
X57311904Y-79630952D01*
X56740476Y-80202380D01*
X57359523Y-80202380D01*
X63740476Y-80154761D02*
X63883333Y-80202380D01*
X64121428Y-80202380D01*
X64216666Y-80154761D01*
X64264285Y-80107142D01*
X64311904Y-80011904D01*
X64311904Y-79916666D01*
X64264285Y-79821428D01*
X64216666Y-79773809D01*
X64121428Y-79726190D01*
X63930952Y-79678571D01*
X63835714Y-79630952D01*
X63788095Y-79583333D01*
X63740476Y-79488095D01*
X63740476Y-79392857D01*
X63788095Y-79297619D01*
X63835714Y-79250000D01*
X63930952Y-79202380D01*
X64169047Y-79202380D01*
X64311904Y-79250000D01*
X64645238Y-79202380D02*
X64883333Y-80202380D01*
X65073809Y-79488095D01*
X65264285Y-80202380D01*
X65502380Y-79202380D01*
X66311904Y-79535714D02*
X66311904Y-80202380D01*
X66073809Y-79154761D02*
X65835714Y-79869047D01*
X66454761Y-79869047D01*
X66740476Y-79202380D02*
X67359523Y-79202380D01*
X67026190Y-79583333D01*
X67169047Y-79583333D01*
X67264285Y-79630952D01*
X67311904Y-79678571D01*
X67359523Y-79773809D01*
X67359523Y-80011904D01*
X67311904Y-80107142D01*
X67264285Y-80154761D01*
X67169047Y-80202380D01*
X66883333Y-80202380D01*
X66788095Y-80154761D01*
X66740476Y-80107142D01*
X73740476Y-80154761D02*
X73883333Y-80202380D01*
X74121428Y-80202380D01*
X74216666Y-80154761D01*
X74264285Y-80107142D01*
X74311904Y-80011904D01*
X74311904Y-79916666D01*
X74264285Y-79821428D01*
X74216666Y-79773809D01*
X74121428Y-79726190D01*
X73930952Y-79678571D01*
X73835714Y-79630952D01*
X73788095Y-79583333D01*
X73740476Y-79488095D01*
X73740476Y-79392857D01*
X73788095Y-79297619D01*
X73835714Y-79250000D01*
X73930952Y-79202380D01*
X74169047Y-79202380D01*
X74311904Y-79250000D01*
X74645238Y-79202380D02*
X74883333Y-80202380D01*
X75073809Y-79488095D01*
X75264285Y-80202380D01*
X75502380Y-79202380D01*
X76311904Y-79535714D02*
X76311904Y-80202380D01*
X76073809Y-79154761D02*
X75835714Y-79869047D01*
X76454761Y-79869047D01*
X77264285Y-79535714D02*
X77264285Y-80202380D01*
X77026190Y-79154761D02*
X76788095Y-79869047D01*
X77407142Y-79869047D01*
X83740476Y-80154761D02*
X83883333Y-80202380D01*
X84121428Y-80202380D01*
X84216666Y-80154761D01*
X84264285Y-80107142D01*
X84311904Y-80011904D01*
X84311904Y-79916666D01*
X84264285Y-79821428D01*
X84216666Y-79773809D01*
X84121428Y-79726190D01*
X83930952Y-79678571D01*
X83835714Y-79630952D01*
X83788095Y-79583333D01*
X83740476Y-79488095D01*
X83740476Y-79392857D01*
X83788095Y-79297619D01*
X83835714Y-79250000D01*
X83930952Y-79202380D01*
X84169047Y-79202380D01*
X84311904Y-79250000D01*
X84645238Y-79202380D02*
X84883333Y-80202380D01*
X85073809Y-79488095D01*
X85264285Y-80202380D01*
X85502380Y-79202380D01*
X86311904Y-79535714D02*
X86311904Y-80202380D01*
X86073809Y-79154761D02*
X85835714Y-79869047D01*
X86454761Y-79869047D01*
X87311904Y-79202380D02*
X86835714Y-79202380D01*
X86788095Y-79678571D01*
X86835714Y-79630952D01*
X86930952Y-79583333D01*
X87169047Y-79583333D01*
X87264285Y-79630952D01*
X87311904Y-79678571D01*
X87359523Y-79773809D01*
X87359523Y-80011904D01*
X87311904Y-80107142D01*
X87264285Y-80154761D01*
X87169047Y-80202380D01*
X86930952Y-80202380D01*
X86835714Y-80154761D01*
X86788095Y-80107142D01*
X93740476Y-80154761D02*
X93883333Y-80202380D01*
X94121428Y-80202380D01*
X94216666Y-80154761D01*
X94264285Y-80107142D01*
X94311904Y-80011904D01*
X94311904Y-79916666D01*
X94264285Y-79821428D01*
X94216666Y-79773809D01*
X94121428Y-79726190D01*
X93930952Y-79678571D01*
X93835714Y-79630952D01*
X93788095Y-79583333D01*
X93740476Y-79488095D01*
X93740476Y-79392857D01*
X93788095Y-79297619D01*
X93835714Y-79250000D01*
X93930952Y-79202380D01*
X94169047Y-79202380D01*
X94311904Y-79250000D01*
X94645238Y-79202380D02*
X94883333Y-80202380D01*
X95073809Y-79488095D01*
X95264285Y-80202380D01*
X95502380Y-79202380D01*
X96311904Y-79535714D02*
X96311904Y-80202380D01*
X96073809Y-79154761D02*
X95835714Y-79869047D01*
X96454761Y-79869047D01*
X97264285Y-79202380D02*
X97073809Y-79202380D01*
X96978571Y-79250000D01*
X96930952Y-79297619D01*
X96835714Y-79440476D01*
X96788095Y-79630952D01*
X96788095Y-80011904D01*
X96835714Y-80107142D01*
X96883333Y-80154761D01*
X96978571Y-80202380D01*
X97169047Y-80202380D01*
X97264285Y-80154761D01*
X97311904Y-80107142D01*
X97359523Y-80011904D01*
X97359523Y-79773809D01*
X97311904Y-79678571D01*
X97264285Y-79630952D01*
X97169047Y-79583333D01*
X96978571Y-79583333D01*
X96883333Y-79630952D01*
X96835714Y-79678571D01*
X96788095Y-79773809D01*
X103740476Y-80154761D02*
X103883333Y-80202380D01*
X104121428Y-80202380D01*
X104216666Y-80154761D01*
X104264285Y-80107142D01*
X104311904Y-80011904D01*
X104311904Y-79916666D01*
X104264285Y-79821428D01*
X104216666Y-79773809D01*
X104121428Y-79726190D01*
X103930952Y-79678571D01*
X103835714Y-79630952D01*
X103788095Y-79583333D01*
X103740476Y-79488095D01*
X103740476Y-79392857D01*
X103788095Y-79297619D01*
X103835714Y-79250000D01*
X103930952Y-79202380D01*
X104169047Y-79202380D01*
X104311904Y-79250000D01*
X104645238Y-79202380D02*
X104883333Y-80202380D01*
X105073809Y-79488095D01*
X105264285Y-80202380D01*
X105502380Y-79202380D01*
X106311904Y-79535714D02*
X106311904Y-80202380D01*
X106073809Y-79154761D02*
X105835714Y-79869047D01*
X106454761Y-79869047D01*
X106740476Y-79202380D02*
X107407142Y-79202380D01*
X106978571Y-80202380D01*
X113740476Y-80154761D02*
X113883333Y-80202380D01*
X114121428Y-80202380D01*
X114216666Y-80154761D01*
X114264285Y-80107142D01*
X114311904Y-80011904D01*
X114311904Y-79916666D01*
X114264285Y-79821428D01*
X114216666Y-79773809D01*
X114121428Y-79726190D01*
X113930952Y-79678571D01*
X113835714Y-79630952D01*
X113788095Y-79583333D01*
X113740476Y-79488095D01*
X113740476Y-79392857D01*
X113788095Y-79297619D01*
X113835714Y-79250000D01*
X113930952Y-79202380D01*
X114169047Y-79202380D01*
X114311904Y-79250000D01*
X114645238Y-79202380D02*
X114883333Y-80202380D01*
X115073809Y-79488095D01*
X115264285Y-80202380D01*
X115502380Y-79202380D01*
X116311904Y-79535714D02*
X116311904Y-80202380D01*
X116073809Y-79154761D02*
X115835714Y-79869047D01*
X116454761Y-79869047D01*
X116978571Y-79630952D02*
X116883333Y-79583333D01*
X116835714Y-79535714D01*
X116788095Y-79440476D01*
X116788095Y-79392857D01*
X116835714Y-79297619D01*
X116883333Y-79250000D01*
X116978571Y-79202380D01*
X117169047Y-79202380D01*
X117264285Y-79250000D01*
X117311904Y-79297619D01*
X117359523Y-79392857D01*
X117359523Y-79440476D01*
X117311904Y-79535714D01*
X117264285Y-79583333D01*
X117169047Y-79630952D01*
X116978571Y-79630952D01*
X116883333Y-79678571D01*
X116835714Y-79726190D01*
X116788095Y-79821428D01*
X116788095Y-80011904D01*
X116835714Y-80107142D01*
X116883333Y-80154761D01*
X116978571Y-80202380D01*
X117169047Y-80202380D01*
X117264285Y-80154761D01*
X117311904Y-80107142D01*
X117359523Y-80011904D01*
X117359523Y-79821428D01*
X117311904Y-79726190D01*
X117264285Y-79678571D01*
X117169047Y-79630952D01*
X123740476Y-80154761D02*
X123883333Y-80202380D01*
X124121428Y-80202380D01*
X124216666Y-80154761D01*
X124264285Y-80107142D01*
X124311904Y-80011904D01*
X124311904Y-79916666D01*
X124264285Y-79821428D01*
X124216666Y-79773809D01*
X124121428Y-79726190D01*
X123930952Y-79678571D01*
X123835714Y-79630952D01*
X123788095Y-79583333D01*
X123740476Y-79488095D01*
X123740476Y-79392857D01*
X123788095Y-79297619D01*
X123835714Y-79250000D01*
X123930952Y-79202380D01*
X124169047Y-79202380D01*
X124311904Y-79250000D01*
X124645238Y-79202380D02*
X124883333Y-80202380D01*
X125073809Y-79488095D01*
X125264285Y-80202380D01*
X125502380Y-79202380D01*
X126311904Y-79535714D02*
X126311904Y-80202380D01*
X126073809Y-79154761D02*
X125835714Y-79869047D01*
X126454761Y-79869047D01*
X126883333Y-80202380D02*
X127073809Y-80202380D01*
X127169047Y-80154761D01*
X127216666Y-80107142D01*
X127311904Y-79964285D01*
X127359523Y-79773809D01*
X127359523Y-79392857D01*
X127311904Y-79297619D01*
X127264285Y-79250000D01*
X127169047Y-79202380D01*
X126978571Y-79202380D01*
X126883333Y-79250000D01*
X126835714Y-79297619D01*
X126788095Y-79392857D01*
X126788095Y-79630952D01*
X126835714Y-79726190D01*
X126883333Y-79773809D01*
X126978571Y-79821428D01*
X127169047Y-79821428D01*
X127264285Y-79773809D01*
X127311904Y-79726190D01*
X127359523Y-79630952D01*
X54990476Y-90154761D02*
X55133333Y-90202380D01*
X55371428Y-90202380D01*
X55466666Y-90154761D01*
X55514285Y-90107142D01*
X55561904Y-90011904D01*
X55561904Y-89916666D01*
X55514285Y-89821428D01*
X55466666Y-89773809D01*
X55371428Y-89726190D01*
X55180952Y-89678571D01*
X55085714Y-89630952D01*
X55038095Y-89583333D01*
X54990476Y-89488095D01*
X54990476Y-89392857D01*
X55038095Y-89297619D01*
X55085714Y-89250000D01*
X55180952Y-89202380D01*
X55419047Y-89202380D01*
X55561904Y-89250000D01*
X55895238Y-89202380D02*
X56133333Y-90202380D01*
X56323809Y-89488095D01*
X56514285Y-90202380D01*
X56752380Y-89202380D01*
X57609523Y-89202380D02*
X57133333Y-89202380D01*
X57085714Y-89678571D01*
X57133333Y-89630952D01*
X57228571Y-89583333D01*
X57466666Y-89583333D01*
X57561904Y-89630952D01*
X57609523Y-89678571D01*
X57657142Y-89773809D01*
X57657142Y-90011904D01*
X57609523Y-90107142D01*
X57561904Y-90154761D01*
X57466666Y-90202380D01*
X57228571Y-90202380D01*
X57133333Y-90154761D01*
X57085714Y-90107142D01*
X58276190Y-89202380D02*
X58371428Y-89202380D01*
X58466666Y-89250000D01*
X58514285Y-89297619D01*
X58561904Y-89392857D01*
X58609523Y-89583333D01*
X58609523Y-89821428D01*
X58561904Y-90011904D01*
X58514285Y-90107142D01*
X58466666Y-90154761D01*
X58371428Y-90202380D01*
X58276190Y-90202380D01*
X58180952Y-90154761D01*
X58133333Y-90107142D01*
X58085714Y-90011904D01*
X58038095Y-89821428D01*
X58038095Y-89583333D01*
X58085714Y-89392857D01*
X58133333Y-89297619D01*
X58180952Y-89250000D01*
X58276190Y-89202380D01*
X65240476Y-90154761D02*
X65383333Y-90202380D01*
X65621428Y-90202380D01*
X65716666Y-90154761D01*
X65764285Y-90107142D01*
X65811904Y-90011904D01*
X65811904Y-89916666D01*
X65764285Y-89821428D01*
X65716666Y-89773809D01*
X65621428Y-89726190D01*
X65430952Y-89678571D01*
X65335714Y-89630952D01*
X65288095Y-89583333D01*
X65240476Y-89488095D01*
X65240476Y-89392857D01*
X65288095Y-89297619D01*
X65335714Y-89250000D01*
X65430952Y-89202380D01*
X65669047Y-89202380D01*
X65811904Y-89250000D01*
X66145238Y-89202380D02*
X66383333Y-90202380D01*
X66573809Y-89488095D01*
X66764285Y-90202380D01*
X67002380Y-89202380D01*
X67859523Y-89202380D02*
X67383333Y-89202380D01*
X67335714Y-89678571D01*
X67383333Y-89630952D01*
X67478571Y-89583333D01*
X67716666Y-89583333D01*
X67811904Y-89630952D01*
X67859523Y-89678571D01*
X67907142Y-89773809D01*
X67907142Y-90011904D01*
X67859523Y-90107142D01*
X67811904Y-90154761D01*
X67716666Y-90202380D01*
X67478571Y-90202380D01*
X67383333Y-90154761D01*
X67335714Y-90107142D01*
X68859523Y-90202380D02*
X68288095Y-90202380D01*
X68573809Y-90202380D02*
X68573809Y-89202380D01*
X68478571Y-89345238D01*
X68383333Y-89440476D01*
X68288095Y-89488095D01*
X75490476Y-90154761D02*
X75633333Y-90202380D01*
X75871428Y-90202380D01*
X75966666Y-90154761D01*
X76014285Y-90107142D01*
X76061904Y-90011904D01*
X76061904Y-89916666D01*
X76014285Y-89821428D01*
X75966666Y-89773809D01*
X75871428Y-89726190D01*
X75680952Y-89678571D01*
X75585714Y-89630952D01*
X75538095Y-89583333D01*
X75490476Y-89488095D01*
X75490476Y-89392857D01*
X75538095Y-89297619D01*
X75585714Y-89250000D01*
X75680952Y-89202380D01*
X75919047Y-89202380D01*
X76061904Y-89250000D01*
X76395238Y-89202380D02*
X76633333Y-90202380D01*
X76823809Y-89488095D01*
X77014285Y-90202380D01*
X77252380Y-89202380D01*
X78109523Y-89202380D02*
X77633333Y-89202380D01*
X77585714Y-89678571D01*
X77633333Y-89630952D01*
X77728571Y-89583333D01*
X77966666Y-89583333D01*
X78061904Y-89630952D01*
X78109523Y-89678571D01*
X78157142Y-89773809D01*
X78157142Y-90011904D01*
X78109523Y-90107142D01*
X78061904Y-90154761D01*
X77966666Y-90202380D01*
X77728571Y-90202380D01*
X77633333Y-90154761D01*
X77585714Y-90107142D01*
X78538095Y-89297619D02*
X78585714Y-89250000D01*
X78680952Y-89202380D01*
X78919047Y-89202380D01*
X79014285Y-89250000D01*
X79061904Y-89297619D01*
X79109523Y-89392857D01*
X79109523Y-89488095D01*
X79061904Y-89630952D01*
X78490476Y-90202380D01*
X79109523Y-90202380D01*
X85740476Y-90154761D02*
X85883333Y-90202380D01*
X86121428Y-90202380D01*
X86216666Y-90154761D01*
X86264285Y-90107142D01*
X86311904Y-90011904D01*
X86311904Y-89916666D01*
X86264285Y-89821428D01*
X86216666Y-89773809D01*
X86121428Y-89726190D01*
X85930952Y-89678571D01*
X85835714Y-89630952D01*
X85788095Y-89583333D01*
X85740476Y-89488095D01*
X85740476Y-89392857D01*
X85788095Y-89297619D01*
X85835714Y-89250000D01*
X85930952Y-89202380D01*
X86169047Y-89202380D01*
X86311904Y-89250000D01*
X86645238Y-89202380D02*
X86883333Y-90202380D01*
X87073809Y-89488095D01*
X87264285Y-90202380D01*
X87502380Y-89202380D01*
X88359523Y-89202380D02*
X87883333Y-89202380D01*
X87835714Y-89678571D01*
X87883333Y-89630952D01*
X87978571Y-89583333D01*
X88216666Y-89583333D01*
X88311904Y-89630952D01*
X88359523Y-89678571D01*
X88407142Y-89773809D01*
X88407142Y-90011904D01*
X88359523Y-90107142D01*
X88311904Y-90154761D01*
X88216666Y-90202380D01*
X87978571Y-90202380D01*
X87883333Y-90154761D01*
X87835714Y-90107142D01*
X88740476Y-89202380D02*
X89359523Y-89202380D01*
X89026190Y-89583333D01*
X89169047Y-89583333D01*
X89264285Y-89630952D01*
X89311904Y-89678571D01*
X89359523Y-89773809D01*
X89359523Y-90011904D01*
X89311904Y-90107142D01*
X89264285Y-90154761D01*
X89169047Y-90202380D01*
X88883333Y-90202380D01*
X88788095Y-90154761D01*
X88740476Y-90107142D01*
X96654761Y-94509523D02*
X96702380Y-94366666D01*
X96702380Y-94128571D01*
X96654761Y-94033333D01*
X96607142Y-93985714D01*
X96511904Y-93938095D01*
X96416666Y-93938095D01*
X96321428Y-93985714D01*
X96273809Y-94033333D01*
X96226190Y-94128571D01*
X96178571Y-94319047D01*
X96130952Y-94414285D01*
X96083333Y-94461904D01*
X95988095Y-94509523D01*
X95892857Y-94509523D01*
X95797619Y-94461904D01*
X95750000Y-94414285D01*
X95702380Y-94319047D01*
X95702380Y-94080952D01*
X95750000Y-93938095D01*
X95702380Y-93604761D02*
X96702380Y-93366666D01*
X95988095Y-93176190D01*
X96702380Y-92985714D01*
X95702380Y-92747619D01*
X95702380Y-91890476D02*
X95702380Y-92366666D01*
X96178571Y-92414285D01*
X96130952Y-92366666D01*
X96083333Y-92271428D01*
X96083333Y-92033333D01*
X96130952Y-91938095D01*
X96178571Y-91890476D01*
X96273809Y-91842857D01*
X96511904Y-91842857D01*
X96607142Y-91890476D01*
X96654761Y-91938095D01*
X96702380Y-92033333D01*
X96702380Y-92271428D01*
X96654761Y-92366666D01*
X96607142Y-92414285D01*
X96035714Y-90985714D02*
X96702380Y-90985714D01*
X95654761Y-91223809D02*
X96369047Y-91461904D01*
X96369047Y-90842857D01*
X103740476Y-88404761D02*
X103883333Y-88452380D01*
X104121428Y-88452380D01*
X104216666Y-88404761D01*
X104264285Y-88357142D01*
X104311904Y-88261904D01*
X104311904Y-88166666D01*
X104264285Y-88071428D01*
X104216666Y-88023809D01*
X104121428Y-87976190D01*
X103930952Y-87928571D01*
X103835714Y-87880952D01*
X103788095Y-87833333D01*
X103740476Y-87738095D01*
X103740476Y-87642857D01*
X103788095Y-87547619D01*
X103835714Y-87500000D01*
X103930952Y-87452380D01*
X104169047Y-87452380D01*
X104311904Y-87500000D01*
X104645238Y-87452380D02*
X104883333Y-88452380D01*
X105073809Y-87738095D01*
X105264285Y-88452380D01*
X105502380Y-87452380D01*
X106359523Y-87452380D02*
X105883333Y-87452380D01*
X105835714Y-87928571D01*
X105883333Y-87880952D01*
X105978571Y-87833333D01*
X106216666Y-87833333D01*
X106311904Y-87880952D01*
X106359523Y-87928571D01*
X106407142Y-88023809D01*
X106407142Y-88261904D01*
X106359523Y-88357142D01*
X106311904Y-88404761D01*
X106216666Y-88452380D01*
X105978571Y-88452380D01*
X105883333Y-88404761D01*
X105835714Y-88357142D01*
X107311904Y-87452380D02*
X106835714Y-87452380D01*
X106788095Y-87928571D01*
X106835714Y-87880952D01*
X106930952Y-87833333D01*
X107169047Y-87833333D01*
X107264285Y-87880952D01*
X107311904Y-87928571D01*
X107359523Y-88023809D01*
X107359523Y-88261904D01*
X107311904Y-88357142D01*
X107264285Y-88404761D01*
X107169047Y-88452380D01*
X106930952Y-88452380D01*
X106835714Y-88404761D01*
X106788095Y-88357142D01*
X103740476Y-96154761D02*
X103883333Y-96202380D01*
X104121428Y-96202380D01*
X104216666Y-96154761D01*
X104264285Y-96107142D01*
X104311904Y-96011904D01*
X104311904Y-95916666D01*
X104264285Y-95821428D01*
X104216666Y-95773809D01*
X104121428Y-95726190D01*
X103930952Y-95678571D01*
X103835714Y-95630952D01*
X103788095Y-95583333D01*
X103740476Y-95488095D01*
X103740476Y-95392857D01*
X103788095Y-95297619D01*
X103835714Y-95250000D01*
X103930952Y-95202380D01*
X104169047Y-95202380D01*
X104311904Y-95250000D01*
X104645238Y-95202380D02*
X104883333Y-96202380D01*
X105073809Y-95488095D01*
X105264285Y-96202380D01*
X105502380Y-95202380D01*
X106359523Y-95202380D02*
X105883333Y-95202380D01*
X105835714Y-95678571D01*
X105883333Y-95630952D01*
X105978571Y-95583333D01*
X106216666Y-95583333D01*
X106311904Y-95630952D01*
X106359523Y-95678571D01*
X106407142Y-95773809D01*
X106407142Y-96011904D01*
X106359523Y-96107142D01*
X106311904Y-96154761D01*
X106216666Y-96202380D01*
X105978571Y-96202380D01*
X105883333Y-96154761D01*
X105835714Y-96107142D01*
X107264285Y-95202380D02*
X107073809Y-95202380D01*
X106978571Y-95250000D01*
X106930952Y-95297619D01*
X106835714Y-95440476D01*
X106788095Y-95630952D01*
X106788095Y-96011904D01*
X106835714Y-96107142D01*
X106883333Y-96154761D01*
X106978571Y-96202380D01*
X107169047Y-96202380D01*
X107264285Y-96154761D01*
X107311904Y-96107142D01*
X107359523Y-96011904D01*
X107359523Y-95773809D01*
X107311904Y-95678571D01*
X107264285Y-95630952D01*
X107169047Y-95583333D01*
X106978571Y-95583333D01*
X106883333Y-95630952D01*
X106835714Y-95678571D01*
X106788095Y-95773809D01*
X114154761Y-94509523D02*
X114202380Y-94366666D01*
X114202380Y-94128571D01*
X114154761Y-94033333D01*
X114107142Y-93985714D01*
X114011904Y-93938095D01*
X113916666Y-93938095D01*
X113821428Y-93985714D01*
X113773809Y-94033333D01*
X113726190Y-94128571D01*
X113678571Y-94319047D01*
X113630952Y-94414285D01*
X113583333Y-94461904D01*
X113488095Y-94509523D01*
X113392857Y-94509523D01*
X113297619Y-94461904D01*
X113250000Y-94414285D01*
X113202380Y-94319047D01*
X113202380Y-94080952D01*
X113250000Y-93938095D01*
X113202380Y-93604761D02*
X114202380Y-93366666D01*
X113488095Y-93176190D01*
X114202380Y-92985714D01*
X113202380Y-92747619D01*
X113202380Y-91890476D02*
X113202380Y-92366666D01*
X113678571Y-92414285D01*
X113630952Y-92366666D01*
X113583333Y-92271428D01*
X113583333Y-92033333D01*
X113630952Y-91938095D01*
X113678571Y-91890476D01*
X113773809Y-91842857D01*
X114011904Y-91842857D01*
X114107142Y-91890476D01*
X114154761Y-91938095D01*
X114202380Y-92033333D01*
X114202380Y-92271428D01*
X114154761Y-92366666D01*
X114107142Y-92414285D01*
X113202380Y-91509523D02*
X113202380Y-90842857D01*
X114202380Y-91271428D01*
X122654761Y-90509523D02*
X122702380Y-90366666D01*
X122702380Y-90128571D01*
X122654761Y-90033333D01*
X122607142Y-89985714D01*
X122511904Y-89938095D01*
X122416666Y-89938095D01*
X122321428Y-89985714D01*
X122273809Y-90033333D01*
X122226190Y-90128571D01*
X122178571Y-90319047D01*
X122130952Y-90414285D01*
X122083333Y-90461904D01*
X121988095Y-90509523D01*
X121892857Y-90509523D01*
X121797619Y-90461904D01*
X121750000Y-90414285D01*
X121702380Y-90319047D01*
X121702380Y-90080952D01*
X121750000Y-89938095D01*
X121702380Y-89604761D02*
X122702380Y-89366666D01*
X121988095Y-89176190D01*
X122702380Y-88985714D01*
X121702380Y-88747619D01*
X121702380Y-87890476D02*
X121702380Y-88366666D01*
X122178571Y-88414285D01*
X122130952Y-88366666D01*
X122083333Y-88271428D01*
X122083333Y-88033333D01*
X122130952Y-87938095D01*
X122178571Y-87890476D01*
X122273809Y-87842857D01*
X122511904Y-87842857D01*
X122607142Y-87890476D01*
X122654761Y-87938095D01*
X122702380Y-88033333D01*
X122702380Y-88271428D01*
X122654761Y-88366666D01*
X122607142Y-88414285D01*
X122130952Y-87271428D02*
X122083333Y-87366666D01*
X122035714Y-87414285D01*
X121940476Y-87461904D01*
X121892857Y-87461904D01*
X121797619Y-87414285D01*
X121750000Y-87366666D01*
X121702380Y-87271428D01*
X121702380Y-87080952D01*
X121750000Y-86985714D01*
X121797619Y-86938095D01*
X121892857Y-86890476D01*
X121940476Y-86890476D01*
X122035714Y-86938095D01*
X122083333Y-86985714D01*
X122130952Y-87080952D01*
X122130952Y-87271428D01*
X122178571Y-87366666D01*
X122226190Y-87414285D01*
X122321428Y-87461904D01*
X122511904Y-87461904D01*
X122607142Y-87414285D01*
X122654761Y-87366666D01*
X122702380Y-87271428D01*
X122702380Y-87080952D01*
X122654761Y-86985714D01*
X122607142Y-86938095D01*
X122511904Y-86890476D01*
X122321428Y-86890476D01*
X122226190Y-86938095D01*
X122178571Y-86985714D01*
X122130952Y-87080952D01*
X38440476Y-37154761D02*
X38583333Y-37202380D01*
X38821428Y-37202380D01*
X38916666Y-37154761D01*
X38964285Y-37107142D01*
X39011904Y-37011904D01*
X39011904Y-36916666D01*
X38964285Y-36821428D01*
X38916666Y-36773809D01*
X38821428Y-36726190D01*
X38630952Y-36678571D01*
X38535714Y-36630952D01*
X38488095Y-36583333D01*
X38440476Y-36488095D01*
X38440476Y-36392857D01*
X38488095Y-36297619D01*
X38535714Y-36250000D01*
X38630952Y-36202380D01*
X38869047Y-36202380D01*
X39011904Y-36250000D01*
X39345238Y-36202380D02*
X39583333Y-37202380D01*
X39773809Y-36488095D01*
X39964285Y-37202380D01*
X40202380Y-36202380D01*
X41059523Y-36202380D02*
X40583333Y-36202380D01*
X40535714Y-36678571D01*
X40583333Y-36630952D01*
X40678571Y-36583333D01*
X40916666Y-36583333D01*
X41011904Y-36630952D01*
X41059523Y-36678571D01*
X41107142Y-36773809D01*
X41107142Y-37011904D01*
X41059523Y-37107142D01*
X41011904Y-37154761D01*
X40916666Y-37202380D01*
X40678571Y-37202380D01*
X40583333Y-37154761D01*
X40535714Y-37107142D01*
X41583333Y-37202380D02*
X41773809Y-37202380D01*
X41869047Y-37154761D01*
X41916666Y-37107142D01*
X42011904Y-36964285D01*
X42059523Y-36773809D01*
X42059523Y-36392857D01*
X42011904Y-36297619D01*
X41964285Y-36250000D01*
X41869047Y-36202380D01*
X41678571Y-36202380D01*
X41583333Y-36250000D01*
X41535714Y-36297619D01*
X41488095Y-36392857D01*
X41488095Y-36630952D01*
X41535714Y-36726190D01*
X41583333Y-36773809D01*
X41678571Y-36821428D01*
X41869047Y-36821428D01*
X41964285Y-36773809D01*
X42011904Y-36726190D01*
X42059523Y-36630952D01*
X49623333Y-42202380D02*
X49290000Y-41726190D01*
X49051904Y-42202380D02*
X49051904Y-41202380D01*
X49432857Y-41202380D01*
X49528095Y-41250000D01*
X49575714Y-41297619D01*
X49623333Y-41392857D01*
X49623333Y-41535714D01*
X49575714Y-41630952D01*
X49528095Y-41678571D01*
X49432857Y-41726190D01*
X49051904Y-41726190D01*
X50242380Y-41202380D02*
X50337619Y-41202380D01*
X50432857Y-41250000D01*
X50480476Y-41297619D01*
X50528095Y-41392857D01*
X50575714Y-41583333D01*
X50575714Y-41821428D01*
X50528095Y-42011904D01*
X50480476Y-42107142D01*
X50432857Y-42154761D01*
X50337619Y-42202380D01*
X50242380Y-42202380D01*
X50147142Y-42154761D01*
X50099523Y-42107142D01*
X50051904Y-42011904D01*
X50004285Y-41821428D01*
X50004285Y-41583333D01*
X50051904Y-41392857D01*
X50099523Y-41297619D01*
X50147142Y-41250000D01*
X50242380Y-41202380D01*
X59393333Y-42202380D02*
X59060000Y-41726190D01*
X58821904Y-42202380D02*
X58821904Y-41202380D01*
X59202857Y-41202380D01*
X59298095Y-41250000D01*
X59345714Y-41297619D01*
X59393333Y-41392857D01*
X59393333Y-41535714D01*
X59345714Y-41630952D01*
X59298095Y-41678571D01*
X59202857Y-41726190D01*
X58821904Y-41726190D01*
X60345714Y-42202380D02*
X59774285Y-42202380D01*
X60060000Y-42202380D02*
X60060000Y-41202380D01*
X59964761Y-41345238D01*
X59869523Y-41440476D01*
X59774285Y-41488095D01*
X69143333Y-42202380D02*
X68810000Y-41726190D01*
X68571904Y-42202380D02*
X68571904Y-41202380D01*
X68952857Y-41202380D01*
X69048095Y-41250000D01*
X69095714Y-41297619D01*
X69143333Y-41392857D01*
X69143333Y-41535714D01*
X69095714Y-41630952D01*
X69048095Y-41678571D01*
X68952857Y-41726190D01*
X68571904Y-41726190D01*
X69524285Y-41297619D02*
X69571904Y-41250000D01*
X69667142Y-41202380D01*
X69905238Y-41202380D01*
X70000476Y-41250000D01*
X70048095Y-41297619D01*
X70095714Y-41392857D01*
X70095714Y-41488095D01*
X70048095Y-41630952D01*
X69476666Y-42202380D01*
X70095714Y-42202380D01*
X76333333Y-36702380D02*
X76000000Y-36226190D01*
X75761904Y-36702380D02*
X75761904Y-35702380D01*
X76142857Y-35702380D01*
X76238095Y-35750000D01*
X76285714Y-35797619D01*
X76333333Y-35892857D01*
X76333333Y-36035714D01*
X76285714Y-36130952D01*
X76238095Y-36178571D01*
X76142857Y-36226190D01*
X75761904Y-36226190D01*
X76666666Y-35702380D02*
X77285714Y-35702380D01*
X76952380Y-36083333D01*
X77095238Y-36083333D01*
X77190476Y-36130952D01*
X77238095Y-36178571D01*
X77285714Y-36273809D01*
X77285714Y-36511904D01*
X77238095Y-36607142D01*
X77190476Y-36654761D01*
X77095238Y-36702380D01*
X76809523Y-36702380D01*
X76714285Y-36654761D01*
X76666666Y-36607142D01*
X38916666Y-94452380D02*
X38916666Y-95166666D01*
X38869047Y-95309523D01*
X38773809Y-95404761D01*
X38630952Y-95452380D01*
X38535714Y-95452380D01*
X39916666Y-95452380D02*
X39345238Y-95452380D01*
X39630952Y-95452380D02*
X39630952Y-94452380D01*
X39535714Y-94595238D01*
X39440476Y-94690476D01*
X39345238Y-94738095D01*
X46166666Y-34702380D02*
X46166666Y-35416666D01*
X46119047Y-35559523D01*
X46023809Y-35654761D01*
X45880952Y-35702380D01*
X45785714Y-35702380D01*
X46595238Y-34797619D02*
X46642857Y-34750000D01*
X46738095Y-34702380D01*
X46976190Y-34702380D01*
X47071428Y-34750000D01*
X47119047Y-34797619D01*
X47166666Y-34892857D01*
X47166666Y-34988095D01*
X47119047Y-35130952D01*
X46547619Y-35702380D01*
X47166666Y-35702380D01*
X36333333Y-88807142D02*
X36285714Y-88854761D01*
X36142857Y-88902380D01*
X36047619Y-88902380D01*
X35904761Y-88854761D01*
X35809523Y-88759523D01*
X35761904Y-88664285D01*
X35714285Y-88473809D01*
X35714285Y-88330952D01*
X35761904Y-88140476D01*
X35809523Y-88045238D01*
X35904761Y-87950000D01*
X36047619Y-87902380D01*
X36142857Y-87902380D01*
X36285714Y-87950000D01*
X36333333Y-87997619D01*
X37285714Y-88902380D02*
X36714285Y-88902380D01*
X37000000Y-88902380D02*
X37000000Y-87902380D01*
X36904761Y-88045238D01*
X36809523Y-88140476D01*
X36714285Y-88188095D01*
X113583333Y-37757142D02*
X113535714Y-37804761D01*
X113392857Y-37852380D01*
X113297619Y-37852380D01*
X113154761Y-37804761D01*
X113059523Y-37709523D01*
X113011904Y-37614285D01*
X112964285Y-37423809D01*
X112964285Y-37280952D01*
X113011904Y-37090476D01*
X113059523Y-36995238D01*
X113154761Y-36900000D01*
X113297619Y-36852380D01*
X113392857Y-36852380D01*
X113535714Y-36900000D01*
X113583333Y-36947619D01*
X113964285Y-36947619D02*
X114011904Y-36900000D01*
X114107142Y-36852380D01*
X114345238Y-36852380D01*
X114440476Y-36900000D01*
X114488095Y-36947619D01*
X114535714Y-37042857D01*
X114535714Y-37138095D01*
X114488095Y-37280952D01*
X113916666Y-37852380D01*
X114535714Y-37852380D01*
X105531904Y-39412380D02*
X105531904Y-38412380D01*
X106103333Y-39412380D02*
X105674761Y-38840952D01*
X106103333Y-38412380D02*
X105531904Y-38983809D01*
X107008095Y-38412380D02*
X106531904Y-38412380D01*
X106484285Y-38888571D01*
X106531904Y-38840952D01*
X106627142Y-38793333D01*
X106865238Y-38793333D01*
X106960476Y-38840952D01*
X107008095Y-38888571D01*
X107055714Y-38983809D01*
X107055714Y-39221904D01*
X107008095Y-39317142D01*
X106960476Y-39364761D01*
X106865238Y-39412380D01*
X106627142Y-39412380D01*
X106531904Y-39364761D01*
X106484285Y-39317142D01*
X86261904Y-36702380D02*
X86261904Y-35702380D01*
X86833333Y-36702380D02*
X86404761Y-36130952D01*
X86833333Y-35702380D02*
X86261904Y-36273809D01*
X87690476Y-35702380D02*
X87500000Y-35702380D01*
X87404761Y-35750000D01*
X87357142Y-35797619D01*
X87261904Y-35940476D01*
X87214285Y-36130952D01*
X87214285Y-36511904D01*
X87261904Y-36607142D01*
X87309523Y-36654761D01*
X87404761Y-36702380D01*
X87595238Y-36702380D01*
X87690476Y-36654761D01*
X87738095Y-36607142D01*
X87785714Y-36511904D01*
X87785714Y-36273809D01*
X87738095Y-36178571D01*
X87690476Y-36130952D01*
X87595238Y-36083333D01*
X87404761Y-36083333D01*
X87309523Y-36130952D01*
X87261904Y-36178571D01*
X87214285Y-36273809D01*
X94011904Y-36702380D02*
X94011904Y-35702380D01*
X94583333Y-36702380D02*
X94154761Y-36130952D01*
X94583333Y-35702380D02*
X94011904Y-36273809D01*
X94916666Y-35702380D02*
X95583333Y-35702380D01*
X95154761Y-36702380D01*
D14*
X45690476Y-121722761D02*
X45833333Y-121770380D01*
X46071428Y-121770380D01*
X46166666Y-121722761D01*
X46214285Y-121675142D01*
X46261904Y-121579904D01*
X46261904Y-121484666D01*
X46214285Y-121389428D01*
X46166666Y-121341809D01*
X46071428Y-121294190D01*
X45880952Y-121246571D01*
X45785714Y-121198952D01*
X45738095Y-121151333D01*
X45690476Y-121056095D01*
X45690476Y-120960857D01*
X45738095Y-120865619D01*
X45785714Y-120818000D01*
X45880952Y-120770380D01*
X46119047Y-120770380D01*
X46261904Y-120818000D01*
X46595238Y-120770380D02*
X46833333Y-121770380D01*
X47023809Y-121056095D01*
X47214285Y-121770380D01*
X47452380Y-120770380D01*
X48261904Y-120770380D02*
X48071428Y-120770380D01*
X47976190Y-120818000D01*
X47928571Y-120865619D01*
X47833333Y-121008476D01*
X47785714Y-121198952D01*
X47785714Y-121579904D01*
X47833333Y-121675142D01*
X47880952Y-121722761D01*
X47976190Y-121770380D01*
X48166666Y-121770380D01*
X48261904Y-121722761D01*
X48309523Y-121675142D01*
X48357142Y-121579904D01*
X48357142Y-121341809D01*
X48309523Y-121246571D01*
X48261904Y-121198952D01*
X48166666Y-121151333D01*
X47976190Y-121151333D01*
X47880952Y-121198952D01*
X47833333Y-121246571D01*
X47785714Y-121341809D01*
X49309523Y-121770380D02*
X48738095Y-121770380D01*
X49023809Y-121770380D02*
X49023809Y-120770380D01*
X48928571Y-120913238D01*
X48833333Y-121008476D01*
X48738095Y-121056095D01*
D13*
X120166666Y-110702380D02*
X120166666Y-111416666D01*
X120119047Y-111559523D01*
X120023809Y-111654761D01*
X119880952Y-111702380D01*
X119785714Y-111702380D01*
X120547619Y-110702380D02*
X121166666Y-110702380D01*
X120833333Y-111083333D01*
X120976190Y-111083333D01*
X121071428Y-111130952D01*
X121119047Y-111178571D01*
X121166666Y-111273809D01*
X121166666Y-111511904D01*
X121119047Y-111607142D01*
X121071428Y-111654761D01*
X120976190Y-111702380D01*
X120690476Y-111702380D01*
X120595238Y-111654761D01*
X120547619Y-111607142D01*
D14*
X66190476Y-117222761D02*
X66333333Y-117270380D01*
X66571428Y-117270380D01*
X66666666Y-117222761D01*
X66714285Y-117175142D01*
X66761904Y-117079904D01*
X66761904Y-116984666D01*
X66714285Y-116889428D01*
X66666666Y-116841809D01*
X66571428Y-116794190D01*
X66380952Y-116746571D01*
X66285714Y-116698952D01*
X66238095Y-116651333D01*
X66190476Y-116556095D01*
X66190476Y-116460857D01*
X66238095Y-116365619D01*
X66285714Y-116318000D01*
X66380952Y-116270380D01*
X66619047Y-116270380D01*
X66761904Y-116318000D01*
X67095238Y-116270380D02*
X67333333Y-117270380D01*
X67523809Y-116556095D01*
X67714285Y-117270380D01*
X67952380Y-116270380D01*
X68761904Y-116270380D02*
X68571428Y-116270380D01*
X68476190Y-116318000D01*
X68428571Y-116365619D01*
X68333333Y-116508476D01*
X68285714Y-116698952D01*
X68285714Y-117079904D01*
X68333333Y-117175142D01*
X68380952Y-117222761D01*
X68476190Y-117270380D01*
X68666666Y-117270380D01*
X68761904Y-117222761D01*
X68809523Y-117175142D01*
X68857142Y-117079904D01*
X68857142Y-116841809D01*
X68809523Y-116746571D01*
X68761904Y-116698952D01*
X68666666Y-116651333D01*
X68476190Y-116651333D01*
X68380952Y-116698952D01*
X68333333Y-116746571D01*
X68285714Y-116841809D01*
X69238095Y-116365619D02*
X69285714Y-116318000D01*
X69380952Y-116270380D01*
X69619047Y-116270380D01*
X69714285Y-116318000D01*
X69761904Y-116365619D01*
X69809523Y-116460857D01*
X69809523Y-116556095D01*
X69761904Y-116698952D01*
X69190476Y-117270380D01*
X69809523Y-117270380D01*
X86690476Y-120722761D02*
X86833333Y-120770380D01*
X87071428Y-120770380D01*
X87166666Y-120722761D01*
X87214285Y-120675142D01*
X87261904Y-120579904D01*
X87261904Y-120484666D01*
X87214285Y-120389428D01*
X87166666Y-120341809D01*
X87071428Y-120294190D01*
X86880952Y-120246571D01*
X86785714Y-120198952D01*
X86738095Y-120151333D01*
X86690476Y-120056095D01*
X86690476Y-119960857D01*
X86738095Y-119865619D01*
X86785714Y-119818000D01*
X86880952Y-119770380D01*
X87119047Y-119770380D01*
X87261904Y-119818000D01*
X87595238Y-119770380D02*
X87833333Y-120770380D01*
X88023809Y-120056095D01*
X88214285Y-120770380D01*
X88452380Y-119770380D01*
X89261904Y-119770380D02*
X89071428Y-119770380D01*
X88976190Y-119818000D01*
X88928571Y-119865619D01*
X88833333Y-120008476D01*
X88785714Y-120198952D01*
X88785714Y-120579904D01*
X88833333Y-120675142D01*
X88880952Y-120722761D01*
X88976190Y-120770380D01*
X89166666Y-120770380D01*
X89261904Y-120722761D01*
X89309523Y-120675142D01*
X89357142Y-120579904D01*
X89357142Y-120341809D01*
X89309523Y-120246571D01*
X89261904Y-120198952D01*
X89166666Y-120151333D01*
X88976190Y-120151333D01*
X88880952Y-120198952D01*
X88833333Y-120246571D01*
X88785714Y-120341809D01*
X89690476Y-119770380D02*
X90309523Y-119770380D01*
X89976190Y-120151333D01*
X90119047Y-120151333D01*
X90214285Y-120198952D01*
X90261904Y-120246571D01*
X90309523Y-120341809D01*
X90309523Y-120579904D01*
X90261904Y-120675142D01*
X90214285Y-120722761D01*
X90119047Y-120770380D01*
X89833333Y-120770380D01*
X89738095Y-120722761D01*
X89690476Y-120675142D01*
X107190476Y-124722761D02*
X107333333Y-124770380D01*
X107571428Y-124770380D01*
X107666666Y-124722761D01*
X107714285Y-124675142D01*
X107761904Y-124579904D01*
X107761904Y-124484666D01*
X107714285Y-124389428D01*
X107666666Y-124341809D01*
X107571428Y-124294190D01*
X107380952Y-124246571D01*
X107285714Y-124198952D01*
X107238095Y-124151333D01*
X107190476Y-124056095D01*
X107190476Y-123960857D01*
X107238095Y-123865619D01*
X107285714Y-123818000D01*
X107380952Y-123770380D01*
X107619047Y-123770380D01*
X107761904Y-123818000D01*
X108095238Y-123770380D02*
X108333333Y-124770380D01*
X108523809Y-124056095D01*
X108714285Y-124770380D01*
X108952380Y-123770380D01*
X109761904Y-123770380D02*
X109571428Y-123770380D01*
X109476190Y-123818000D01*
X109428571Y-123865619D01*
X109333333Y-124008476D01*
X109285714Y-124198952D01*
X109285714Y-124579904D01*
X109333333Y-124675142D01*
X109380952Y-124722761D01*
X109476190Y-124770380D01*
X109666666Y-124770380D01*
X109761904Y-124722761D01*
X109809523Y-124675142D01*
X109857142Y-124579904D01*
X109857142Y-124341809D01*
X109809523Y-124246571D01*
X109761904Y-124198952D01*
X109666666Y-124151333D01*
X109476190Y-124151333D01*
X109380952Y-124198952D01*
X109333333Y-124246571D01*
X109285714Y-124341809D01*
X110714285Y-124103714D02*
X110714285Y-124770380D01*
X110476190Y-123722761D02*
X110238095Y-124437047D01*
X110857142Y-124437047D01*
M02*
